SplineFontDB: 3.0
FontName: SwankyandMooMoo
FullName: Swanky and Moo Moo
FamilyName: Swanky and Moo Moo
Weight: Book
Copyright: Copyright (c) 2010, Kimberly Geswein (kimberlygeswein.com)
Version: 1.002 2001
ItalicAngle: 0
UnderlinePosition: -52
UnderlineWidth: 51
Ascent: 819
Descent: 205
sfntRevision: 0x00010083
LayerCount: 2
Layer: 0 1 "Back"  1
Layer: 1 1 "Fore"  0
XUID: [1021 288 713564382 6490576]
FSType: 0
OS2Version: 3
OS2_WeightWidthSlopeOnly: 0
OS2_UseTypoMetrics: 1
CreationTime: 1297248836
ModificationTime: 1303476325
PfmFamily: 17
TTFWeight: 400
TTFWidth: 5
LineGap: 0
VLineGap: 0
Panose: 2 0 0 0 0 0 0 0 0 0
OS2TypoAscent: 995
OS2TypoAOffset: 0
OS2TypoDescent: -507
OS2TypoDOffset: 0
OS2TypoLinegap: 0
OS2WinAscent: 995
OS2WinAOffset: 0
OS2WinDescent: 507
OS2WinDOffset: 0
HheadAscent: 995
HheadAOffset: 0
HheadDescent: -507
HheadDOffset: 0
OS2SubXSize: 717
OS2SubYSize: 666
OS2SubXOff: 0
OS2SubYOff: 143
OS2SupXSize: 717
OS2SupYSize: 666
OS2SupXOff: 0
OS2SupYOff: 488
OS2StrikeYSize: 51
OS2StrikeYPos: 256
OS2Vendor: '    '
OS2CodePages: 00000093.00000000
OS2UnicodeRanges: a000002f.5000004a.00000000.00000000
MarkAttachClasses: 1
DEI: 91125
TtTable: prep
PUSHW_1
 511
SCANCTRL
PUSHB_1
 4
SCANTYPE
EndTTInstrs
ShortTable: maxp 16
  1
  0
  344
  184
  5
  203
  4
  1
  0
  0
  0
  0
  0
  0
  3
  1
EndShort

StartChar: exclam
Encoding: 33 33 4
Width: 166
Flags: W
LayerCount: 2
Fore
SplineSet
49 282 m 1,0,1
 52 330 52 330 52 367 c 128,-1,2
 52 404 52 404 49.5 434.5 c 128,-1,3
 47 465 47 465 43 493 c 128,-1,4
 39 521 39 521 35.5 551.5 c 128,-1,5
 32 582 32 582 29.5 619 c 128,-1,6
 27 656 27 656 27 704 c 2,7,-1
 27 711 l 2,8,9
 27 717 27 717 27.5 723 c 128,-1,10
 28 729 28 729 28 735 c 2,11,-1
 28 743 l 1,12,13
 29 745 29 745 33 749.5 c 128,-1,14
 37 754 37 754 42 758.5 c 128,-1,15
 47 763 47 763 51 767 c 128,-1,16
 55 771 55 771 57 772 c 0,17,18
 58 772 58 772 65 768 c 2,19,-1
 77 762 l 1,20,-1
 87 753 l 1,21,22
 88 736 88 736 90 712 c 128,-1,23
 92 688 92 688 93.5 660.5 c 128,-1,24
 95 633 95 633 97 604.5 c 128,-1,25
 99 576 99 576 101 549 c 128,-1,26
 103 522 103 522 104 498 c 128,-1,27
 105 474 105 474 107 457 c 0,28,29
 108 454 108 454 108 440 c 128,-1,30
 108 426 108 426 107.5 409.5 c 128,-1,31
 107 393 107 393 107 378 c 2,32,-1
 107 360 l 1,33,34
 108 355 108 355 109 344.5 c 128,-1,35
 110 334 110 334 111.5 321.5 c 128,-1,36
 113 309 113 309 114 297 c 2,37,-1
 116 282 l 1,38,39
 110 269 110 269 102.5 265.5 c 128,-1,40
 95 262 95 262 82 262 c 0,41,42
 71 262 71 262 62.5 265.5 c 128,-1,43
 54 269 54 269 49 282 c 1,0,1
37 59 m 0,44,45
 37 71 37 71 43 80.5 c 128,-1,46
 49 90 49 90 58 96.5 c 128,-1,47
 67 103 67 103 79 106 c 128,-1,48
 91 109 91 109 103 109 c 256,49,50
 115 109 115 109 124.5 103.5 c 128,-1,51
 134 98 134 98 141.5 89.5 c 128,-1,52
 149 81 149 81 152.5 70 c 128,-1,53
 156 59 156 59 156 48 c 256,54,55
 156 37 156 37 150 28.5 c 128,-1,56
 144 20 144 20 133.5 13.5 c 128,-1,57
 123 7 123 7 112 3.5 c 128,-1,58
 101 0 101 0 93 0 c 0,59,60
 65 0 65 0 51 17 c 128,-1,61
 37 34 37 34 37 59 c 0,44,45
EndSplineSet
EndChar

StartChar: quotedbl
Encoding: 34 34 5
Width: 312
Flags: W
LayerCount: 2
Fore
SplineSet
60 691 m 0,0,1
 69 691 69 691 79.5 686.5 c 128,-1,2
 90 682 90 682 90 671 c 2,3,-1
 90 466 l 2,4,5
 90 455 90 455 80.5 445.5 c 128,-1,6
 71 436 71 436 60 436 c 0,7,8
 52 436 52 436 41.5 440 c 128,-1,9
 31 444 31 444 31 456 c 2,10,-1
 31 671 l 2,11,12
 31 682 31 682 41.5 686.5 c 128,-1,13
 52 691 52 691 60 691 c 0,0,1
265 691 m 0,14,15
 279 691 279 691 287 680 c 128,-1,16
 295 669 295 669 299.5 652.5 c 128,-1,17
 304 636 304 636 305.5 614.5 c 128,-1,18
 307 593 307 593 306.5 573 c 128,-1,19
 306 553 306 553 305 536 c 128,-1,20
 304 519 304 519 304 510 c 0,21,22
 304 506 304 506 302 499.5 c 128,-1,23
 300 493 300 493 297 487.5 c 128,-1,24
 294 482 294 482 289.5 478 c 128,-1,25
 285 474 285 474 280 474 c 0,26,27
 270 474 270 474 262 479 c 128,-1,28
 254 484 254 484 248.5 491 c 128,-1,29
 243 498 243 498 239 507 c 128,-1,30
 235 516 235 516 235 524 c 2,31,-1
 235 671 l 2,32,33
 235 683 235 683 245.5 687 c 128,-1,34
 256 691 256 691 265 691 c 0,14,15
EndSplineSet
EndChar

StartChar: numbersign
Encoding: 35 35 6
Width: 740
Flags: W
LayerCount: 2
Fore
SplineSet
350 9 m 1,0,1
 350 13 350 13 350 20.5 c 128,-1,2
 350 28 350 28 349.5 36.5 c 128,-1,3
 349 45 349 45 348.5 52 c 128,-1,4
 348 59 348 59 348 63 c 0,5,6
 348 96 348 96 354 128.5 c 128,-1,7
 360 161 360 161 367.5 193 c 128,-1,8
 375 225 375 225 381 257 c 128,-1,9
 387 289 387 289 387 322 c 1,10,-1
 282 322 l 2,11,12
 276 322 276 322 267 315 c 128,-1,13
 258 308 258 308 253 302 c 1,14,15
 251 295 251 295 246.5 280.5 c 128,-1,16
 242 266 242 266 237.5 248 c 128,-1,17
 233 230 233 230 227.5 210 c 128,-1,18
 222 190 222 190 217 171.5 c 128,-1,19
 212 153 212 153 209 138 c 128,-1,20
 206 123 206 123 205 116 c 1,21,22
 202 108 202 108 204.5 89.5 c 128,-1,23
 207 71 207 71 206 53 c 128,-1,24
 205 35 205 35 197.5 21.5 c 128,-1,25
 190 8 190 8 170 8 c 0,26,27
 154 8 154 8 145 19.5 c 128,-1,28
 136 31 136 31 136 48 c 256,29,30
 136 65 136 65 140 87.5 c 128,-1,31
 144 110 144 110 149 133.5 c 128,-1,32
 154 157 154 157 160.5 181 c 128,-1,33
 167 205 167 205 173.5 226.5 c 128,-1,34
 180 248 180 248 186 265 c 128,-1,35
 192 282 192 282 195 292 c 1,36,-1
 195 309 l 1,37,38
 173 309 173 309 151.5 306 c 128,-1,39
 130 303 130 303 109 300 c 128,-1,40
 88 297 88 297 66 294.5 c 128,-1,41
 44 292 44 292 22 292 c 0,42,43
 8 292 8 292 3.5 300.5 c 128,-1,44
 -1 309 -1 309 -1 322 c 0,45,46
 -1 331 -1 331 2 334 c 128,-1,47
 5 337 5 337 20 341 c 2,48,-1
 214 380 l 2,49,50
 216 381 216 381 221 393 c 128,-1,51
 226 405 226 405 230.5 420.5 c 128,-1,52
 235 436 235 436 239 449.5 c 128,-1,53
 243 463 243 463 243 467 c 0,54,55
 243 470 243 470 239.5 474 c 128,-1,56
 236 478 236 478 234 478 c 0,57,58
 217 474 217 474 204 472 c 128,-1,59
 191 470 191 470 179.5 468.5 c 128,-1,60
 168 467 168 467 156.5 467 c 128,-1,61
 145 467 145 467 131 467 c 2,62,-1
 107 467 l 1,63,64
 105 468 105 468 104 472.5 c 128,-1,65
 103 477 103 477 101.5 481.5 c 128,-1,66
 100 486 100 486 99 490.5 c 128,-1,67
 98 495 98 495 98 496 c 0,68,69
 98 498 98 498 101.5 502 c 128,-1,70
 105 506 105 506 107 507 c 0,71,72
 122 516 122 516 143.5 521.5 c 128,-1,73
 165 527 165 527 186.5 530 c 128,-1,74
 208 533 208 533 227 534 c 128,-1,75
 246 535 246 535 253 536 c 1,76,77
 269 544 269 544 277.5 564 c 128,-1,78
 286 584 286 584 290 608.5 c 128,-1,79
 294 633 294 633 296.5 660.5 c 128,-1,80
 299 688 299 688 304.5 710.5 c 128,-1,81
 310 733 310 733 320.5 747 c 128,-1,82
 331 761 331 761 350 761 c 0,83,84
 366 761 366 761 368.5 750.5 c 128,-1,85
 371 740 371 740 371 727 c 0,86,87
 371 702 371 702 365.5 679.5 c 128,-1,88
 360 657 360 657 352.5 635 c 128,-1,89
 345 613 345 613 339.5 591 c 128,-1,90
 334 569 334 569 334 546 c 1,91,-1
 457 546 l 1,92,-1
 507 682 l 1,93,94
 503 691 503 691 505 703 c 128,-1,95
 507 715 507 715 512.5 726 c 128,-1,96
 518 737 518 737 527 744 c 128,-1,97
 536 751 536 751 547 751 c 0,98,99
 553 751 553 751 557.5 748 c 128,-1,100
 562 745 562 745 563.5 739.5 c 128,-1,101
 565 734 565 734 565.5 728 c 128,-1,102
 566 722 566 722 566 717 c 0,103,104
 566 697 566 697 562 675.5 c 128,-1,105
 558 654 558 654 551.5 633 c 128,-1,106
 545 612 545 612 538 592 c 128,-1,107
 531 572 531 572 526 555 c 1,108,-1
 536 546 l 1,109,-1
 702 526 l 2,110,111
 709 525 709 525 713 521.5 c 128,-1,112
 717 518 717 518 719 513 c 128,-1,113
 721 508 721 508 721.5 503 c 128,-1,114
 722 498 722 498 722 493 c 0,115,116
 722 486 722 486 721.5 478 c 128,-1,117
 721 470 721 470 711 467 c 1,118,119
 685 473 685 473 664.5 477 c 128,-1,120
 644 481 644 481 626 483 c 128,-1,121
 608 485 608 485 590 486.5 c 128,-1,122
 572 488 572 488 550 488 c 0,123,124
 548 488 548 488 543.5 488 c 128,-1,125
 539 488 539 488 533.5 488 c 128,-1,126
 528 488 528 488 523 487.5 c 128,-1,127
 518 487 518 487 516 487 c 1,128,129
 504 467 504 467 495 445.5 c 128,-1,130
 486 424 486 424 486 399 c 0,131,132
 486 397 486 397 486.5 389.5 c 128,-1,133
 487 382 487 382 487 380 c 1,134,135
 497 378 497 378 518 378 c 128,-1,136
 539 378 539 378 564 377 c 128,-1,137
 589 376 589 376 616 373.5 c 128,-1,138
 643 371 643 371 665 364.5 c 128,-1,139
 687 358 687 358 701 345 c 128,-1,140
 715 332 715 332 715 312 c 1,141,-1
 467 312 l 2,142,143
 456 312 456 312 448.5 298.5 c 128,-1,144
 441 285 441 285 435.5 263 c 128,-1,145
 430 241 430 241 426 212.5 c 128,-1,146
 422 184 422 184 418 155 c 128,-1,147
 414 126 414 126 409.5 98 c 128,-1,148
 405 70 405 70 399 48 c 128,-1,149
 393 26 393 26 385 12.5 c 128,-1,150
 377 -1 377 -1 365 -1 c 2,151,-1
 362 -1 l 2,152,153
 360 -1 360 -1 360 0 c 0,154,155
 359 1 359 1 355.5 4.5 c 128,-1,156
 352 8 352 8 350 9 c 1,0,1
281 399 m 256,157,158
 281 397 281 397 281 394 c 128,-1,159
 281 391 281 391 282.5 387.5 c 128,-1,160
 284 384 284 384 286 382 c 128,-1,161
 288 380 288 380 292 380 c 2,162,-1
 409 380 l 2,163,164
 412 380 412 380 415.5 384 c 128,-1,165
 419 388 419 388 422 394 c 0,166,167
 425 401 425 401 429 409 c 0,168,169
 432 416 432 416 435.5 427.5 c 128,-1,170
 439 439 439 439 442 450.5 c 128,-1,171
 445 462 445 462 447 470 c 128,-1,172
 449 478 449 478 448 478 c 2,173,-1
 439 487 l 1,174,-1
 331 487 l 1,175,-1
 312 478 l 2,176,177
 311 478 311 478 307 470 c 128,-1,178
 303 462 303 462 298.5 450.5 c 128,-1,179
 294 439 294 439 289.5 427.5 c 128,-1,180
 285 416 285 416 282 409 c 0,181,182
 282 408 282 408 281.5 404.5 c 128,-1,183
 281 401 281 401 281 399 c 256,157,158
EndSplineSet
EndChar

StartChar: dollar
Encoding: 36 36 7
Width: 536
Flags: W
LayerCount: 2
Fore
SplineSet
214 116 m 1,0,1
 184 117 184 117 148.5 129 c 128,-1,2
 113 141 113 141 82 162.5 c 128,-1,3
 51 184 51 184 29.5 213.5 c 128,-1,4
 8 243 8 243 8 276 c 0,5,6
 8 286 8 286 9.5 301.5 c 128,-1,7
 11 317 11 317 15 333 c 128,-1,8
 19 349 19 349 27 360.5 c 128,-1,9
 35 372 35 372 49 372 c 1,10,-1
 49 263 l 2,11,12
 49 242 49 242 67 226 c 128,-1,13
 85 210 85 210 109.5 198.5 c 128,-1,14
 134 187 134 187 159.5 181 c 128,-1,15
 185 175 185 175 201 175 c 2,16,-1
 205 175 l 1,17,-1
 210 180 l 2,18,19
 214 184 214 184 214 185 c 2,20,-1
 214 467 l 2,21,22
 214 470 214 470 200.5 472.5 c 128,-1,23
 187 475 187 475 166.5 479 c 128,-1,24
 146 483 146 483 121.5 490 c 128,-1,25
 97 497 97 497 75.5 508 c 128,-1,26
 54 519 54 519 38.5 535.5 c 128,-1,27
 23 552 23 552 20 575 c 0,28,29
 16 602 16 602 26.5 620 c 128,-1,30
 37 638 37 638 56 651 c 128,-1,31
 75 664 75 664 100 672.5 c 128,-1,32
 125 681 125 681 149 687.5 c 128,-1,33
 173 694 173 694 192.5 702 c 128,-1,34
 212 710 212 710 224 720 c 0,35,36
 229 725 229 725 232 745.5 c 128,-1,37
 235 766 235 766 238 793 c 128,-1,38
 241 820 241 820 244.5 850.5 c 128,-1,39
 248 881 248 881 254.5 905 c 128,-1,40
 261 929 261 929 270 943.5 c 128,-1,41
 279 958 279 958 292 955 c 0,42,43
 297 954 297 954 302 948.5 c 128,-1,44
 307 943 307 943 311.5 936.5 c 128,-1,45
 316 930 316 930 319 923 c 128,-1,46
 322 916 322 916 322 911 c 0,47,48
 322 893 322 893 318.5 874 c 128,-1,49
 315 855 315 855 311 836 c 128,-1,50
 307 817 307 817 304 798 c 128,-1,51
 301 779 301 779 301 760 c 0,52,53
 301 756 301 756 301.5 749.5 c 128,-1,54
 302 743 302 743 302 735.5 c 128,-1,55
 302 728 302 728 302 721 c 128,-1,56
 302 714 302 714 302 711 c 1,57,58
 313 707 313 707 324 702.5 c 128,-1,59
 335 698 335 698 343 691 c 128,-1,60
 351 684 351 684 356 675 c 128,-1,61
 361 666 361 666 361 654 c 0,62,63
 361 641 361 641 358.5 632 c 128,-1,64
 356 623 356 623 341 623 c 0,65,66
 334 623 334 623 329.5 626.5 c 128,-1,67
 325 630 325 630 321 633.5 c 128,-1,68
 317 637 317 637 313 640.5 c 128,-1,69
 309 644 309 644 302 644 c 0,70,71
 301 644 301 644 297 643.5 c 128,-1,72
 293 643 293 643 292 643 c 1,73,74
 292 637 292 637 290.5 623.5 c 128,-1,75
 289 610 289 610 287.5 594.5 c 128,-1,76
 286 579 286 579 284 565.5 c 128,-1,77
 282 552 282 552 282 546 c 2,78,-1
 282 536 l 1,79,80
 283 535 283 535 287.5 530.5 c 128,-1,81
 292 526 292 526 292 526 c 1,82,83
 337 526 337 526 377.5 512 c 128,-1,84
 418 498 418 498 449 472 c 128,-1,85
 480 446 480 446 499 409.5 c 128,-1,86
 518 373 518 373 518 328 c 0,87,88
 518 298 518 298 506.5 274.5 c 128,-1,89
 495 251 495 251 476 231.5 c 128,-1,90
 457 212 457 212 433 197.5 c 128,-1,91
 409 183 409 183 382.5 170.5 c 128,-1,92
 356 158 356 158 330 147.5 c 128,-1,93
 304 137 304 137 282 127 c 1,94,95
 281 116 281 116 282 94.5 c 128,-1,96
 283 73 283 73 279.5 52 c 128,-1,97
 276 31 276 31 266 15.5 c 128,-1,98
 256 0 256 0 234 0 c 0,99,100
 229 0 229 0 221.5 3.5 c 128,-1,101
 214 7 214 7 214 9 c 2,102,-1
 214 116 l 1,0,1
282 193 m 1,103,104
 305 193 305 193 335.5 206 c 128,-1,105
 366 219 366 219 394 239.5 c 128,-1,106
 422 260 422 260 440.5 285.5 c 128,-1,107
 459 311 459 311 459 336 c 0,108,109
 459 348 459 348 449 365.5 c 128,-1,110
 439 383 439 383 423.5 400.5 c 128,-1,111
 408 418 408 418 389 434 c 128,-1,112
 370 450 370 450 351 460 c 128,-1,113
 332 470 332 470 317 473 c 128,-1,114
 302 476 302 476 292 467 c 2,115,-1
 282 457 l 1,116,-1
 282 193 l 1,103,104
87 585 m 0,117,118
 87 571 87 571 100 561.5 c 128,-1,119
 113 552 113 552 131 546 c 128,-1,120
 149 540 149 540 167 537.5 c 128,-1,121
 185 535 185 535 195 535 c 0,122,123
 197 535 197 535 204.5 535.5 c 128,-1,124
 212 536 212 536 214 536 c 1,125,126
 215 541 215 541 216.5 553 c 128,-1,127
 218 565 218 565 219.5 578.5 c 128,-1,128
 221 592 221 592 222.5 605 c 128,-1,129
 224 618 224 618 224 623 c 0,130,131
 224 626 224 626 224.5 634.5 c 128,-1,132
 225 643 225 643 225 645 c 1,133,134
 217 645 217 645 203.5 644 c 128,-1,135
 190 643 190 643 174.5 640.5 c 128,-1,136
 159 638 159 638 143 633.5 c 128,-1,137
 127 629 127 629 115 622.5 c 128,-1,138
 103 616 103 616 95 607 c 128,-1,139
 87 598 87 598 87 585 c 0,117,118
EndSplineSet
EndChar

StartChar: percent
Encoding: 37 37 8
Width: 467
Flags: W
LayerCount: 2
Fore
SplineSet
-1 107 m 0,0,1
 -1 108 -1 108 -0.5 112 c 128,-1,2
 0 116 0 116 0 116 c 2,3,4
 1 122 1 122 3.5 130.5 c 128,-1,5
 6 139 6 139 9.5 148.5 c 128,-1,6
 13 158 13 158 16 165.5 c 128,-1,7
 19 173 19 173 20 175 c 2,8,-1
 322 711 l 1,9,10
 331 717 331 717 339 729.5 c 128,-1,11
 347 742 347 742 354 757.5 c 128,-1,12
 361 773 361 773 369 788.5 c 128,-1,13
 377 804 377 804 386 817.5 c 128,-1,14
 395 831 395 831 406.5 839.5 c 128,-1,15
 418 848 418 848 433 848 c 0,16,17
 434 848 434 848 434.5 847.5 c 128,-1,18
 435 847 435 847 437 847 c 2,19,-1
 439 847 l 1,20,-1
 448 838 l 2,21,22
 448 837 448 837 449 836 c 0,23,24
 449 835 449 835 449.5 834.5 c 128,-1,25
 450 834 450 834 450 833 c 2,26,-1
 449 832 l 1,27,28
 449 832 449 832 449 830 c 1,29,30
 448 830 448 830 448 828 c 2,31,-1
 49 98 l 2,32,33
 42 85 42 85 36 81 c 128,-1,34
 30 77 30 77 20 77 c 0,35,36
 7 77 7 77 3 86.5 c 128,-1,37
 -1 96 -1 96 -1 107 c 0,0,1
195 88 m 0,38,39
 195 102 195 102 201 112.5 c 128,-1,40
 207 123 207 123 214.5 131.5 c 128,-1,41
 222 140 222 140 228 149 c 128,-1,42
 234 158 234 158 234 170 c 2,43,-1
 234 175 l 2,44,45
 234 176 234 176 232 179 c 2,46,-1
 228 185 l 2,47,48
 226 189 226 189 225 192 c 128,-1,49
 224 195 224 195 224 195 c 1,50,51
 230 211 230 211 243 219.5 c 128,-1,52
 256 228 256 228 271 231.5 c 128,-1,53
 286 235 286 235 302.5 235 c 128,-1,54
 319 235 319 235 332 235 c 0,55,56
 353 235 353 235 374 228 c 128,-1,57
 395 221 395 221 412 208 c 128,-1,58
 429 195 429 195 439.5 175.5 c 128,-1,59
 450 156 450 156 450 133 c 0,60,61
 450 103 450 103 436 78.5 c 128,-1,62
 422 54 422 54 400 36.5 c 128,-1,63
 378 19 378 19 350.5 9 c 128,-1,64
 323 -1 323 -1 295 -1 c 0,65,66
 274 -1 274 -1 255.5 4 c 128,-1,67
 237 9 237 9 223.5 20 c 128,-1,68
 210 31 210 31 202.5 48 c 128,-1,69
 195 65 195 65 195 88 c 0,38,39
127 794 m 0,70,71
 127 813 127 813 135 835.5 c 128,-1,72
 143 858 143 858 156 878 c 128,-1,73
 169 898 169 898 187 912 c 128,-1,74
 205 926 205 926 225 926 c 0,75,76
 252 926 252 926 274.5 919 c 128,-1,77
 297 912 297 912 314 898 c 128,-1,78
 331 884 331 884 340.5 862.5 c 128,-1,79
 350 841 350 841 350 813 c 256,80,81
 350 785 350 785 337.5 765 c 128,-1,82
 325 745 325 745 304.5 733 c 128,-1,83
 284 721 284 721 260 715.5 c 128,-1,84
 236 710 236 710 214 710 c 0,85,86
 212 710 212 710 206.5 710.5 c 128,-1,87
 201 711 201 711 195 711 c 128,-1,88
 189 711 189 711 183.5 711 c 128,-1,89
 178 711 178 711 175 711 c 1,90,91
 167 718 167 718 158 727.5 c 128,-1,92
 149 737 149 737 142.5 747.5 c 128,-1,93
 136 758 136 758 131.5 769.5 c 128,-1,94
 127 781 127 781 127 794 c 0,70,71
253 88 m 0,95,96
 253 78 253 78 257.5 72.5 c 128,-1,97
 262 67 262 67 268.5 63.5 c 128,-1,98
 275 60 275 60 282.5 58.5 c 128,-1,99
 290 57 290 57 297 57 c 0,100,101
 312 57 312 57 330 63.5 c 128,-1,102
 348 70 348 70 363.5 80 c 128,-1,103
 379 90 379 90 389.5 105 c 128,-1,104
 400 120 400 120 400 137 c 0,105,106
 400 150 400 150 394 159.5 c 128,-1,107
 388 169 388 169 378.5 175.5 c 128,-1,108
 369 182 369 182 357.5 185 c 128,-1,109
 346 188 346 188 336 188 c 0,110,111
 335 188 335 188 331 187.5 c 128,-1,112
 327 187 327 187 323.5 187 c 128,-1,113
 320 187 320 187 317 186 c 128,-1,114
 314 185 314 185 312 185 c 1,115,116
 313 184 313 184 314.5 180 c 128,-1,117
 316 176 316 176 318 171.5 c 128,-1,118
 320 167 320 167 321 162.5 c 128,-1,119
 322 158 322 158 322 156 c 0,120,121
 322 149 322 149 311 141.5 c 128,-1,122
 300 134 300 134 287.5 126.5 c 128,-1,123
 275 119 275 119 264 109.5 c 128,-1,124
 253 100 253 100 253 88 c 0,95,96
184 795 m 0,125,126
 184 776 184 776 196 768 c 128,-1,127
 208 760 208 760 229 760 c 0,128,129
 241 760 241 760 253.5 766.5 c 128,-1,130
 266 773 266 773 277 782.5 c 128,-1,131
 288 792 288 792 295.5 804.5 c 128,-1,132
 303 817 303 817 303 828 c 0,133,134
 303 842 303 842 293 850 c 128,-1,135
 283 858 283 858 269 858 c 0,136,137
 256 858 256 858 241.5 854 c 128,-1,138
 227 850 227 850 214 842.5 c 128,-1,139
 201 835 201 835 192.5 822.5 c 128,-1,140
 184 810 184 810 184 795 c 0,125,126
EndSplineSet
EndChar

StartChar: ampersand
Encoding: 38 38 9
Width: 702
Flags: W
LayerCount: 2
Fore
SplineSet
458 89 m 0,0,1
 457 89 457 89 453.5 88.5 c 128,-1,2
 450 88 450 88 448 88 c 0,3,4
 411 67 411 67 380.5 52 c 128,-1,5
 350 37 350 37 320.5 27.5 c 128,-1,6
 291 18 291 18 258.5 13 c 128,-1,7
 226 8 226 8 185 8 c 0,8,9
 181 8 181 8 171 8 c 128,-1,10
 161 8 161 8 150 8 c 128,-1,11
 139 8 139 8 130 8.5 c 128,-1,12
 121 9 121 9 116 9 c 1,13,14
 92 25 92 25 72 37 c 128,-1,15
 52 49 52 49 38 64 c 128,-1,16
 24 79 24 79 16 100.5 c 128,-1,17
 8 122 8 122 8 156 c 0,18,19
 8 195 8 195 22.5 225.5 c 128,-1,20
 37 256 37 256 59.5 282.5 c 128,-1,21
 82 309 82 309 110.5 333 c 128,-1,22
 139 357 139 357 167 380 c 128,-1,23
 195 403 195 403 220.5 426.5 c 128,-1,24
 246 450 246 450 263 478 c 0,25,26
 275 496 275 496 286 518.5 c 128,-1,27
 297 541 297 541 308.5 564 c 128,-1,28
 320 587 320 587 334 608.5 c 128,-1,29
 348 630 348 630 366.5 646.5 c 128,-1,30
 385 663 385 663 408.5 673 c 128,-1,31
 432 683 432 683 462 683 c 0,32,33
 475 683 475 683 491.5 678.5 c 128,-1,34
 508 674 508 674 522 665.5 c 128,-1,35
 536 657 536 657 545.5 644.5 c 128,-1,36
 555 632 555 632 555 614 c 0,37,38
 555 592 555 592 541 573 c 128,-1,39
 527 554 527 554 505 536.5 c 128,-1,40
 483 519 483 519 456 504 c 128,-1,41
 429 489 429 489 403 475.5 c 128,-1,42
 377 462 377 462 355 450.5 c 128,-1,43
 333 439 333 439 322 429 c 1,44,45
 322 416 322 416 328 393.5 c 128,-1,46
 334 371 334 371 343.5 344 c 128,-1,47
 353 317 353 317 365 288.5 c 128,-1,48
 377 260 377 260 391.5 236.5 c 128,-1,49
 406 213 406 213 421.5 198.5 c 128,-1,50
 437 184 437 184 453 184 c 0,51,52
 455 184 455 184 456 184 c 256,53,54
 457 184 457 184 458 185 c 2,55,-1
 633 350 l 2,56,57
 634 350 634 350 637.5 351.5 c 128,-1,58
 641 353 641 353 643 353 c 0,59,60
 650 353 650 353 657 349 c 128,-1,61
 664 345 664 345 670 340 c 128,-1,62
 676 335 676 335 679.5 327.5 c 128,-1,63
 683 320 683 320 683 312 c 256,64,65
 683 304 683 304 679.5 299 c 128,-1,66
 676 294 676 294 670 290 c 128,-1,67
 664 286 664 286 657 284.5 c 128,-1,68
 650 283 650 283 643 282 c 1,69,-1
 516 156 l 1,70,71
 516 156 516 156 515 153 c 2,72,-1
 512 147 l 2,73,74
 511 144 511 144 509 141.5 c 128,-1,75
 507 139 507 139 507 136 c 2,76,-1
 507 127 l 1,77,78
 519 116 519 116 530 103 c 128,-1,79
 541 90 541 90 550.5 77.5 c 128,-1,80
 560 65 560 65 571 52 c 128,-1,81
 582 39 582 39 595 29 c 1,82,83
 586 14 586 14 577.5 6.5 c 128,-1,84
 569 -1 569 -1 555 -1 c 0,85,86
 554 -1 554 -1 550.5 -0.5 c 128,-1,87
 547 0 547 0 546 0 c 0,88,89
 541 6 541 6 530.5 21.5 c 128,-1,90
 520 37 520 37 507.5 51.5 c 128,-1,91
 495 66 495 66 481.5 77.5 c 128,-1,92
 468 89 468 89 458 89 c 0,0,1
77 98 m 1,93,94
 90 84 90 84 108 77.5 c 128,-1,95
 126 71 126 71 144.5 68.5 c 128,-1,96
 163 66 163 66 182 66.5 c 128,-1,97
 201 67 201 67 218 67 c 0,98,99
 240 67 240 67 267.5 70 c 128,-1,100
 295 73 295 73 322.5 81 c 128,-1,101
 350 89 350 89 373 102.5 c 128,-1,102
 396 116 396 116 409 136 c 1,103,104
 388 158 388 158 364 187 c 128,-1,105
 340 216 340 216 319.5 248 c 128,-1,106
 299 280 299 280 285.5 314 c 128,-1,107
 272 348 272 348 273 380 c 1,108,109
 271 380 271 380 267.5 380.5 c 128,-1,110
 264 381 264 381 263 381 c 0,111,112
 243 381 243 381 221 368 c 128,-1,113
 199 355 199 355 178 333.5 c 128,-1,114
 157 312 157 312 138.5 285.5 c 128,-1,115
 120 259 120 259 106 233 c 128,-1,116
 92 207 92 207 83.5 182 c 128,-1,117
 75 157 75 157 75 141 c 0,118,119
 75 139 75 139 75.5 132.5 c 128,-1,120
 76 126 76 126 76 119.5 c 128,-1,121
 76 113 76 113 76.5 106.5 c 128,-1,122
 77 100 77 100 77 98 c 1,93,94
448 623 m 1,123,124
 445 621 445 621 436 615.5 c 128,-1,125
 427 610 427 610 414.5 601.5 c 128,-1,126
 402 593 402 593 389 583.5 c 128,-1,127
 376 574 376 574 365 564 c 128,-1,128
 354 554 354 554 347 544 c 128,-1,129
 340 534 340 534 340 526 c 0,130,131
 340 524 340 524 340.5 521 c 128,-1,132
 341 518 341 518 341 516 c 1,133,134
 356 526 356 526 376.5 536.5 c 128,-1,135
 397 547 397 547 418 558.5 c 128,-1,136
 439 570 439 570 457 584 c 128,-1,137
 475 598 475 598 487 614 c 1,138,139
 479 620 479 620 473 622.5 c 128,-1,140
 467 625 467 625 458 625 c 0,141,142
 457 625 457 625 453.5 624 c 128,-1,143
 450 623 450 623 448 623 c 1,123,124
EndSplineSet
EndChar

StartChar: quotesingle
Encoding: 39 39 10
Width: 77
Flags: W
LayerCount: 2
Fore
SplineSet
-1 413 m 0,0,1
 -1 419 -1 419 -1.5 433 c 128,-1,2
 -2 447 -2 447 -1 464 c 128,-1,3
 0 481 0 481 1.5 499.5 c 128,-1,4
 3 518 3 518 8 532.5 c 128,-1,5
 13 547 13 547 20 557 c 128,-1,6
 27 567 27 567 39 567 c 0,7,8
 54 567 54 567 62 557 c 128,-1,9
 70 547 70 547 70 534 c 0,10,11
 70 506 70 506 67.5 480 c 128,-1,12
 65 454 65 454 62 428.5 c 128,-1,13
 59 403 59 403 58 376.5 c 128,-1,14
 57 350 57 350 59 322 c 1,15,16
 57 320 57 320 49.5 316 c 128,-1,17
 42 312 42 312 39 312 c 0,18,19
 27 312 27 312 19.5 324.5 c 128,-1,20
 12 337 12 337 7.5 354.5 c 128,-1,21
 3 372 3 372 1 388.5 c 128,-1,22
 -1 405 -1 405 -1 413 c 0,0,1
EndSplineSet
EndChar

StartChar: parenleft
Encoding: 40 40 11
Width: 371
Flags: W
LayerCount: 2
Fore
SplineSet
8 322 m 0,0,1
 8 358 8 358 22.5 400 c 128,-1,2
 37 442 37 442 61 484 c 128,-1,3
 85 526 85 526 118 565.5 c 128,-1,4
 151 605 151 605 188 635.5 c 128,-1,5
 225 666 225 666 264.5 684 c 128,-1,6
 304 702 304 702 343 702 c 0,7,8
 349 702 349 702 352.5 699 c 128,-1,9
 356 696 356 696 358 691 c 128,-1,10
 360 686 360 686 360 680 c 128,-1,11
 360 674 360 674 360 668 c 2,12,-1
 360 662 l 1,13,14
 330 652 330 652 296.5 633.5 c 128,-1,15
 263 615 263 615 231 589.5 c 128,-1,16
 199 564 199 564 169 533.5 c 128,-1,17
 139 503 139 503 116 469.5 c 128,-1,18
 93 436 93 436 80 400 c 128,-1,19
 67 364 67 364 67 327 c 0,20,21
 67 286 67 286 82.5 249 c 128,-1,22
 98 212 98 212 123.5 178 c 128,-1,23
 149 144 149 144 181.5 115 c 128,-1,24
 214 86 214 86 248 60 c 128,-1,25
 282 34 282 34 315 12.5 c 128,-1,26
 348 -9 348 -9 373.5 -26.5 c 128,-1,27
 399 -44 399 -44 414 -58.5 c 128,-1,28
 429 -73 429 -73 429 -83 c 0,29,30
 429 -92 429 -92 422.5 -95.5 c 128,-1,31
 416 -99 416 -99 409 -99 c 0,32,33
 408 -99 408 -99 404.5 -98.5 c 128,-1,34
 401 -98 401 -98 399 -98 c 0,35,36
 360 -76 360 -76 315 -51 c 128,-1,37
 270 -26 270 -26 227 3.5 c 128,-1,38
 184 33 184 33 144.5 66.5 c 128,-1,39
 105 100 105 100 74.5 139.5 c 128,-1,40
 44 179 44 179 26 224.5 c 128,-1,41
 8 270 8 270 8 322 c 0,0,1
EndSplineSet
EndChar

StartChar: parenright
Encoding: 41 41 12
Width: 341
Flags: W
LayerCount: 2
Fore
SplineSet
-30 -244 m 0,0,1
 -30 -231 -30 -231 -16.5 -211 c 128,-1,2
 -3 -191 -3 -191 18 -168 c 128,-1,3
 39 -145 39 -145 64 -119.5 c 128,-1,4
 89 -94 89 -94 112.5 -69.5 c 128,-1,5
 136 -45 136 -45 155.5 -24.5 c 128,-1,6
 175 -4 175 -4 184 9 c 0,7,8
 208 44 208 44 223.5 78.5 c 128,-1,9
 239 113 239 113 248 148.5 c 128,-1,10
 257 184 257 184 260 222 c 128,-1,11
 263 260 263 260 263 300 c 0,12,13
 263 363 263 363 243.5 415 c 128,-1,14
 224 467 224 467 195 510.5 c 128,-1,15
 166 554 166 554 131.5 588.5 c 128,-1,16
 97 623 97 623 67.5 649 c 128,-1,17
 38 675 38 675 18 694 c 128,-1,18
 -2 713 -2 713 -2 725 c 0,19,20
 -2 736 -2 736 2 743.5 c 128,-1,21
 6 751 6 751 20 751 c 0,22,23
 21 751 21 751 24.5 751 c 128,-1,24
 28 751 28 751 29 751 c 0,25,26
 77 717 77 717 119.5 682 c 128,-1,27
 162 647 162 647 198.5 607.5 c 128,-1,28
 235 568 235 568 263.5 521.5 c 128,-1,29
 292 475 292 475 311 419 c 1,30,31
 309 402 309 402 310.5 383.5 c 128,-1,32
 312 365 312 365 314 346 c 2,33,-1
 320 308 l 2,34,35
 322 289 322 289 322 271 c 0,36,37
 322 233 322 233 315 187.5 c 128,-1,38
 308 142 308 142 293.5 97 c 128,-1,39
 279 52 279 52 257 11 c 128,-1,40
 235 -30 235 -30 205 -58 c 2,41,-1
 0 -253 l 2,42,43
 -2 -254 -2 -254 -4 -254 c 2,44,-1
 -9 -254 l 2,45,46
 -14 -254 -14 -254 -22 -253 c 128,-1,47
 -30 -252 -30 -252 -30 -244 c 0,0,1
EndSplineSet
EndChar

StartChar: asterisk
Encoding: 42 42 13
Width: 389
Flags: W
LayerCount: 2
Fore
SplineSet
156 536 m 0,0,1
 155 536 155 536 153.5 536.5 c 128,-1,2
 152 537 152 537 151 537 c 0,3,4
 139 537 139 537 126.5 527 c 128,-1,5
 114 517 114 517 101 505 c 128,-1,6
 88 493 88 493 73 483 c 128,-1,7
 58 473 58 473 39 473 c 1,8,9
 39 503 39 503 54.5 527 c 128,-1,10
 70 551 70 551 98 565 c 1,11,-1
 98 577 l 1,12,13
 91 577 91 577 78 575.5 c 128,-1,14
 65 574 65 574 52 574.5 c 128,-1,15
 39 575 39 575 29 579.5 c 128,-1,16
 19 584 19 584 19 598 c 2,17,-1
 19 604 l 2,18,19
 19 609 19 609 20 614.5 c 128,-1,20
 21 620 21 620 23 624 c 128,-1,21
 25 628 25 628 29 628 c 2,22,-1
 116 628 l 1,23,-1
 88 646 l 2,24,25
 76 654 76 654 66.5 662.5 c 128,-1,26
 57 671 57 671 52.5 680.5 c 128,-1,27
 48 690 48 690 48 705 c 0,28,29
 48 713 48 713 50 722.5 c 128,-1,30
 52 732 52 732 63 732 c 0,31,32
 69 732 69 732 78 726.5 c 128,-1,33
 87 721 87 721 96 714 c 128,-1,34
 105 707 105 707 113.5 700.5 c 128,-1,35
 122 694 122 694 127 692 c 0,36,37
 127 691 127 691 128 691 c 0,38,39
 130 690 130 690 132 690 c 0,40,41
 133 690 133 690 134.5 691 c 128,-1,42
 136 692 136 692 136 692 c 1,43,44
 137 700 137 700 138 708.5 c 128,-1,45
 139 717 139 717 142.5 724 c 128,-1,46
 146 731 146 731 151 736 c 128,-1,47
 156 741 156 741 166 741 c 0,48,49
 180 741 180 741 184 731.5 c 128,-1,50
 188 722 188 722 189 710.5 c 128,-1,51
 190 699 190 699 192 688 c 128,-1,52
 194 677 194 677 205 672 c 1,53,54
 218 682 218 682 230 700 c 128,-1,55
 242 718 242 718 256 736 c 128,-1,56
 270 754 270 754 286.5 767.5 c 128,-1,57
 303 781 303 781 322 781 c 0,58,59
 323 781 323 781 326.5 780 c 128,-1,60
 330 779 330 779 331 779 c 1,61,62
 327 762 327 762 318.5 745 c 128,-1,63
 310 728 310 728 299 711 c 128,-1,64
 288 694 288 694 275.5 679.5 c 128,-1,65
 263 665 263 665 253 653 c 1,66,67
 262 649 262 649 268.5 647.5 c 128,-1,68
 275 646 275 646 281 644.5 c 128,-1,69
 287 643 287 643 293 643 c 128,-1,70
 299 643 299 643 307 643 c 256,71,72
 315 643 315 643 322.5 643 c 128,-1,73
 330 643 330 643 337 644.5 c 128,-1,74
 344 646 344 646 352 647.5 c 128,-1,75
 360 649 360 649 371 653 c 1,76,77
 380 651 380 651 380.5 642 c 128,-1,78
 381 633 381 633 381 626 c 0,79,80
 381 610 381 610 374 602.5 c 128,-1,81
 367 595 367 595 342 595 c 1,82,-1
 342 585 l 2,83,84
 342 584 342 584 343.5 579.5 c 128,-1,85
 345 575 345 575 346.5 570 c 128,-1,86
 348 565 348 565 349 561 c 128,-1,87
 350 557 350 557 350 555 c 2,88,-1
 350 551 l 2,89,90
 350 541 350 541 344 538 c 128,-1,91
 338 535 338 535 331 535 c 0,92,93
 329 535 329 535 325.5 535.5 c 128,-1,94
 322 536 322 536 322 536 c 1,95,-1
 224 585 l 1,96,-1
 220 585 l 1,97,-1
 219 586 l 2,98,99
 218 586 218 586 218 585.5 c 128,-1,100
 218 585 218 585 217 585 c 2,101,-1
 215 585 l 1,102,-1
 210 580 l 2,103,104
 206 576 206 576 205 575 c 1,105,-1
 205 569 l 2,106,107
 205 558 205 558 208 546.5 c 128,-1,108
 211 535 211 535 214.5 523.5 c 128,-1,109
 218 512 218 512 221 500.5 c 128,-1,110
 224 489 224 489 224 478 c 0,111,112
 224 451 224 451 214.5 438 c 128,-1,113
 205 425 205 425 180 425 c 1,114,115
 180 455 180 455 174.5 481.5 c 128,-1,116
 169 508 169 508 156 536 c 0,0,1
EndSplineSet
EndChar

StartChar: plus
Encoding: 43 43 14
Width: 487
Flags: W
LayerCount: 2
Fore
SplineSet
175 20 m 0,0,1
 174 29 174 29 171.5 52.5 c 128,-1,2
 169 76 169 76 166 102.5 c 128,-1,3
 163 129 163 129 160 152.5 c 128,-1,4
 157 176 157 176 156 185 c 0,5,6
 156 190 156 190 154 197.5 c 128,-1,7
 152 205 152 205 150.5 211.5 c 128,-1,8
 149 218 149 218 147 224 c 2,9,-1
 146 229 l 1,10,-1
 20 229 l 2,11,12
 14 229 14 229 12 234 c 128,-1,13
 10 239 10 239 9 245 c 128,-1,14
 8 251 8 251 8 256 c 2,15,-1
 8 263 l 2,16,17
 8 264 8 264 8 269 c 128,-1,18
 8 274 8 274 8.5 279 c 128,-1,19
 9 284 9 284 11.5 288 c 128,-1,20
 14 292 14 292 20 292 c 2,21,-1
 148 292 l 1,22,23
 148 300 148 300 147 315.5 c 128,-1,24
 146 331 146 331 146.5 349.5 c 128,-1,25
 147 368 147 368 149 387 c 128,-1,26
 151 406 151 406 155.5 422.5 c 128,-1,27
 160 439 160 439 168.5 449 c 128,-1,28
 177 459 177 459 190 459 c 0,29,30
 207 459 207 459 211 451.5 c 128,-1,31
 215 444 215 444 215 426 c 0,32,33
 215 399 215 399 209 373.5 c 128,-1,34
 203 348 203 348 203 320 c 0,35,36
 203 308 203 308 206 300 c 128,-1,37
 209 292 209 292 222 292 c 0,38,39
 271 292 271 292 318 297.5 c 128,-1,40
 365 303 365 303 414 303 c 2,41,-1
 430 303 l 2,42,43
 441 303 441 303 451.5 301 c 128,-1,44
 462 299 462 299 470.5 293.5 c 128,-1,45
 479 288 479 288 479 277 c 1,46,-1
 478 276 l 1,47,48
 478 276 478 276 478 275 c 256,49,50
 478 274 478 274 478 273 c 0,51,52
 475 271 475 271 472.5 267 c 128,-1,53
 470 263 470 263 467 260.5 c 128,-1,54
 464 258 464 258 461.5 255.5 c 128,-1,55
 459 253 459 253 458 253 c 2,56,-1
 224 234 l 2,57,58
 219 234 219 234 217 231 c 128,-1,59
 215 228 215 228 214 224 c 128,-1,60
 213 220 213 220 213 217 c 2,61,-1
 213 210 l 2,62,63
 213 179 213 179 219 150.5 c 128,-1,64
 225 122 225 122 225 91 c 0,65,66
 225 88 225 88 225.5 72.5 c 128,-1,67
 226 57 226 57 224.5 41 c 128,-1,68
 223 25 223 25 217.5 12 c 128,-1,69
 212 -1 212 -1 200 -1 c 2,70,-1
 197 -1 l 2,71,72
 195 -1 195 -1 195 0 c 0,73,74
 194 1 194 1 191 3.5 c 128,-1,75
 188 6 188 6 185 9 c 128,-1,76
 182 12 182 12 179 15.5 c 128,-1,77
 176 19 176 19 175 20 c 0,0,1
EndSplineSet
EndChar

StartChar: comma
Encoding: 44 44 15
Width: 214
Flags: W
LayerCount: 2
Fore
SplineSet
69 -107 m 1,0,1
 85 -90 85 -90 95 -76.5 c 128,-1,2
 105 -63 105 -63 111 -49 c 128,-1,3
 117 -35 117 -35 119.5 -19 c 128,-1,4
 122 -3 122 -3 122 19 c 1,5,6
 121 19 121 19 119.5 19.5 c 128,-1,7
 118 20 118 20 116 20 c 1,8,9
 115 19 115 19 107.5 17.5 c 128,-1,10
 100 16 100 16 92.5 14.5 c 128,-1,11
 85 13 85 13 78 11 c 128,-1,12
 71 9 71 9 69 9 c 2,13,-1
 62 9 l 2,14,15
 53 9 53 9 43.5 15 c 128,-1,16
 34 21 34 21 26.5 30 c 128,-1,17
 19 39 19 39 13.5 49 c 128,-1,18
 8 59 8 59 8 67 c 0,19,20
 8 88 8 88 18 100.5 c 128,-1,21
 28 113 28 113 42.5 121.5 c 128,-1,22
 57 130 57 130 74 133.5 c 128,-1,23
 91 137 91 137 106 137 c 0,24,25
 127 137 127 137 143.5 126.5 c 128,-1,26
 160 116 160 116 171.5 100 c 128,-1,27
 183 84 183 84 189 64 c 128,-1,28
 195 44 195 44 195 24 c 0,29,30
 195 6 195 6 189 -22 c 128,-1,31
 183 -50 183 -50 170.5 -75.5 c 128,-1,32
 158 -101 158 -101 140 -119 c 128,-1,33
 122 -137 122 -137 97 -137 c 0,34,35
 84 -137 84 -137 78.5 -130.5 c 128,-1,36
 73 -124 73 -124 69 -107 c 1,0,1
EndSplineSet
EndChar

StartChar: hyphen
Encoding: 45 45 16
Width: 301
Flags: W
LayerCount: 2
Fore
SplineSet
29 234 m 1,0,1
 18 245 18 245 21 253 c 128,-1,2
 24 261 24 261 37.5 266 c 128,-1,3
 51 271 51 271 72 274 c 128,-1,4
 93 277 93 277 117.5 278.5 c 128,-1,5
 142 280 142 280 167 279.5 c 128,-1,6
 192 279 192 279 213.5 278 c 128,-1,7
 235 277 235 277 250.5 275 c 128,-1,8
 266 273 266 273 271 271 c 1,9,10
 271 266 271 266 272.5 259 c 128,-1,11
 274 252 274 252 274 246.5 c 128,-1,12
 274 241 274 241 271.5 237 c 128,-1,13
 269 233 269 233 261 233 c 2,14,-1
 29 234 l 1,0,1
EndSplineSet
EndChar

StartChar: period
Encoding: 46 46 17
Width: 234
Flags: W
LayerCount: 2
Fore
SplineSet
19 103 m 0,0,1
 19 118 19 118 33.5 128.5 c 128,-1,2
 48 139 48 139 67.5 145 c 128,-1,3
 87 151 87 151 106.5 153.5 c 128,-1,4
 126 156 126 156 136 156 c 0,5,6
 151 156 151 156 165 146 c 128,-1,7
 179 136 179 136 190.5 121.5 c 128,-1,8
 202 107 202 107 209 91 c 128,-1,9
 216 75 216 75 216 63 c 0,10,11
 216 54 216 54 215.5 44 c 128,-1,12
 215 34 215 34 212.5 25.5 c 128,-1,13
 210 17 210 17 203.5 10 c 128,-1,14
 197 3 197 3 185 0 c 0,15,16
 184 0 184 0 178 -0.5 c 128,-1,17
 172 -1 172 -1 166 -1.5 c 128,-1,18
 160 -2 160 -2 154.5 -2 c 128,-1,19
 149 -2 149 -2 146 -2 c 0,20,21
 123 -2 123 -2 100 3.5 c 128,-1,22
 77 9 77 9 59.5 22 c 128,-1,23
 42 35 42 35 30.5 55 c 128,-1,24
 19 75 19 75 19 103 c 0,0,1
EndSplineSet
EndChar

StartChar: slash
Encoding: 47 47 18
Width: 302
Flags: W
LayerCount: 2
Fore
SplineSet
-1 29 m 0,0,1
 -1 53 -1 53 5.5 74 c 128,-1,2
 12 95 12 95 21.5 115 c 128,-1,3
 31 135 31 135 41 154.5 c 128,-1,4
 51 174 51 174 59 195 c 1,5,6
 59 199 59 199 63 213 c 128,-1,7
 67 227 67 227 72 243.5 c 128,-1,8
 77 260 77 260 81.5 274.5 c 128,-1,9
 86 289 86 289 88 292 c 0,10,11
 92 303 92 303 102.5 326 c 128,-1,12
 113 349 113 349 126 378 c 128,-1,13
 139 407 139 407 154 439 c 128,-1,14
 169 471 169 471 182.5 500 c 128,-1,15
 196 529 196 529 207 552 c 128,-1,16
 218 575 218 575 224 585 c 1,17,18
 225 590 225 590 228.5 592 c 128,-1,19
 232 594 232 594 236.5 595 c 128,-1,20
 241 596 241 596 245.5 595.5 c 128,-1,21
 250 595 250 595 253 595 c 0,22,23
 272 595 272 595 277.5 589.5 c 128,-1,24
 283 584 283 584 283 565 c 0,25,26
 283 563 283 563 282.5 555 c 128,-1,27
 282 547 282 547 282 546 c 0,28,29
 246 491 246 491 215 424.5 c 128,-1,30
 184 358 184 358 157 289 c 128,-1,31
 130 220 130 220 107.5 152.5 c 128,-1,32
 85 85 85 85 67 29 c 0,33,34
 61 11 61 11 54 5 c 128,-1,35
 47 -1 47 -1 28 -1 c 0,36,37
 11 -1 11 -1 5 6 c 128,-1,38
 -1 13 -1 13 -1 29 c 0,0,1
EndSplineSet
EndChar

StartChar: zero
Encoding: 48 48 19
Width: 399
Flags: W
LayerCount: 2
Fore
SplineSet
18 248 m 0,0,1
 18 297 18 297 29 348.5 c 128,-1,2
 40 400 40 400 61 449 c 128,-1,3
 82 498 82 498 113.5 540.5 c 128,-1,4
 145 583 145 583 185 614 c 0,5,6
 186 614 186 614 190 614.5 c 128,-1,7
 194 615 194 615 195 615 c 0,8,9
 207 615 207 615 213.5 605.5 c 128,-1,10
 220 596 220 596 224 585 c 1,11,12
 271 581 271 581 303 565.5 c 128,-1,13
 335 550 335 550 354 523.5 c 128,-1,14
 373 497 373 497 381 460 c 128,-1,15
 389 423 389 423 389 376 c 0,16,17
 389 343 389 343 386.5 302 c 128,-1,18
 384 261 384 261 376 219.5 c 128,-1,19
 368 178 368 178 353.5 138.5 c 128,-1,20
 339 99 339 99 315.5 68 c 128,-1,21
 292 37 292 37 257.5 18.5 c 128,-1,22
 223 0 223 0 175 0 c 0,23,24
 122 0 122 0 90.5 23 c 128,-1,25
 59 46 59 46 43 82 c 128,-1,26
 27 118 27 118 22.5 162.5 c 128,-1,27
 18 207 18 207 18 248 c 0,0,1
107 88 m 1,28,29
 117 72 117 72 133 69.5 c 128,-1,30
 149 67 149 67 166 67 c 0,31,32
 207 67 207 67 235 82.5 c 128,-1,33
 263 98 263 98 281.5 123 c 128,-1,34
 300 148 300 148 310 180 c 128,-1,35
 320 212 320 212 325 247.5 c 128,-1,36
 330 283 330 283 331 318 c 128,-1,37
 332 353 332 353 332 383 c 0,38,39
 332 406 332 406 329.5 431.5 c 128,-1,40
 327 457 327 457 318.5 478 c 128,-1,41
 310 499 310 499 293 512.5 c 128,-1,42
 276 526 276 526 246 526 c 0,43,44
 233 526 233 526 222.5 525 c 128,-1,45
 212 524 212 524 202.5 521 c 128,-1,46
 193 518 193 518 182 512 c 128,-1,47
 171 506 171 506 156 496 c 1,48,49
 118 433 118 433 97.5 366.5 c 128,-1,50
 77 300 77 300 77 225 c 0,51,52
 77 205 77 205 78 190.5 c 128,-1,53
 79 176 79 176 82 161.5 c 128,-1,54
 85 147 85 147 91.5 130 c 128,-1,55
 98 113 98 113 107 88 c 1,28,29
EndSplineSet
EndChar

StartChar: one
Encoding: 49 49 20
Width: 127
Flags: W
LayerCount: 2
Fore
SplineSet
110 520 m 1,0,1
 110 457 110 457 104 396.5 c 128,-1,2
 98 336 98 336 90 275 c 128,-1,3
 82 214 82 214 78 153 c 128,-1,4
 74 92 74 92 78 29 c 1,5,6
 55 -2 55 -2 16 -2 c 1,7,8
 16 6 16 6 16.5 25.5 c 128,-1,9
 17 45 17 45 18 67 c 128,-1,10
 19 89 19 89 19.5 108.5 c 128,-1,11
 20 128 20 128 20 136 c 0,12,13
 21 169 21 169 23.5 210 c 128,-1,14
 26 251 26 251 29.5 293 c 128,-1,15
 33 335 33 335 37.5 377.5 c 128,-1,16
 42 420 42 420 49 457 c 0,17,18
 54 488 54 488 67 504 c 128,-1,19
 80 520 80 520 110 520 c 1,0,1
EndSplineSet
EndChar

StartChar: two
Encoding: 50 50 21
Width: 603
Flags: W
LayerCount: 2
Fore
SplineSet
19 30 m 0,0,1
 19 38 19 38 19.5 44 c 128,-1,2
 20 50 20 50 22 55 c 128,-1,3
 24 60 24 60 27.5 65.5 c 128,-1,4
 31 71 31 71 39 77 c 1,5,-1
 253 282 l 2,6,7
 261 290 261 290 276 310 c 128,-1,8
 291 330 291 330 305.5 354.5 c 128,-1,9
 320 379 320 379 331.5 403.5 c 128,-1,10
 343 428 343 428 343 443 c 0,11,12
 343 454 343 454 337 462.5 c 128,-1,13
 331 471 331 471 322.5 477 c 128,-1,14
 314 483 314 483 303 485.5 c 128,-1,15
 292 488 292 488 282 488 c 0,16,17
 256 488 256 488 232.5 477.5 c 128,-1,18
 209 467 209 467 188.5 452 c 128,-1,19
 168 437 168 437 150.5 419 c 128,-1,20
 133 401 133 401 119 386 c 128,-1,21
 105 371 105 371 92 360.5 c 128,-1,22
 79 350 79 350 69 350 c 0,23,24
 53 350 53 350 50.5 359 c 128,-1,25
 48 368 48 368 48 382 c 0,26,27
 48 403 48 403 60 422.5 c 128,-1,28
 72 442 72 442 92.5 460 c 128,-1,29
 113 478 113 478 137.5 493 c 128,-1,30
 162 508 162 508 187 520 c 128,-1,31
 212 532 212 532 235 541 c 128,-1,32
 258 550 258 550 273 555 c 0,33,34
 274 555 274 555 280 555.5 c 128,-1,35
 286 556 286 556 287 556 c 0,36,37
 309 556 309 556 329 544.5 c 128,-1,38
 349 533 349 533 365 515 c 128,-1,39
 381 497 381 497 391 476 c 128,-1,40
 401 455 401 455 401 434 c 0,41,42
 401 407 401 407 390 378 c 128,-1,43
 379 349 379 349 361 320.5 c 128,-1,44
 343 292 343 292 321 264.5 c 128,-1,45
 299 237 299 237 276 212 c 128,-1,46
 253 187 253 187 231.5 165.5 c 128,-1,47
 210 144 210 144 195 127 c 1,48,-1
 205 116 l 1,49,50
 207 116 207 116 229 109.5 c 128,-1,51
 251 103 251 103 280 95.5 c 128,-1,52
 309 88 309 88 340 80 c 128,-1,53
 371 72 371 72 389 67 c 0,54,55
 391 67 391 67 401 67 c 128,-1,56
 411 67 411 67 416 67 c 0,57,58
 439 67 439 67 461 73.5 c 128,-1,59
 483 80 483 80 504.5 87.5 c 128,-1,60
 526 95 526 95 547 102 c 128,-1,61
 568 109 568 109 589 109 c 1,62,63
 589 72 589 72 571 50.5 c 128,-1,64
 553 29 553 29 525 18 c 128,-1,65
 497 7 497 7 462.5 3.5 c 128,-1,66
 428 0 428 0 395 0 c 2,67,-1
 389 0 l 1,68,-1
 166 59 l 2,69,70
 164 59 164 59 159 59 c 128,-1,71
 154 59 154 59 151 59 c 0,72,73
 133 59 133 59 118 50 c 128,-1,74
 103 41 103 41 90 29.5 c 128,-1,75
 77 18 77 18 65 8.5 c 128,-1,76
 53 -1 53 -1 39 -1 c 256,77,78
 25 -1 25 -1 22 7.5 c 128,-1,79
 19 16 19 16 19 30 c 0,0,1
EndSplineSet
EndChar

StartChar: three
Encoding: 51 51 22
Width: 409
Flags: W
LayerCount: 2
Fore
SplineSet
39 82 m 1,0,1
 58 82 58 82 75.5 78 c 128,-1,2
 93 74 93 74 109.5 69.5 c 128,-1,3
 126 65 126 65 143 61 c 128,-1,4
 160 57 160 57 178 57 c 0,5,6
 195 57 195 57 220.5 60.5 c 128,-1,7
 246 64 246 64 269 72.5 c 128,-1,8
 292 81 292 81 308 96 c 128,-1,9
 324 111 324 111 324 135 c 0,10,11
 324 165 324 165 311 186 c 128,-1,12
 298 207 298 207 277 221 c 128,-1,13
 256 235 256 235 229.5 243 c 128,-1,14
 203 251 203 251 176 253.5 c 128,-1,15
 149 256 149 256 123.5 255.5 c 128,-1,16
 98 255 98 255 78 253 c 1,17,18
 66 259 66 259 61.5 265.5 c 128,-1,19
 57 272 57 272 57 282 c 0,20,21
 57 297 57 297 75 306 c 128,-1,22
 93 315 93 315 118.5 323 c 128,-1,23
 144 331 144 331 175 339 c 128,-1,24
 206 347 206 347 232 358.5 c 128,-1,25
 258 370 258 370 275.5 387 c 128,-1,26
 293 404 293 404 293 429 c 0,27,28
 293 459 293 459 279.5 469 c 128,-1,29
 266 479 266 479 239 479 c 256,30,31
 212 479 212 479 184 469.5 c 128,-1,32
 156 460 156 460 128.5 448.5 c 128,-1,33
 101 437 101 437 77 427 c 128,-1,34
 53 417 53 417 34 417 c 0,35,36
 29 417 29 417 25.5 419.5 c 128,-1,37
 22 422 22 422 21 426.5 c 128,-1,38
 20 431 20 431 19.5 435.5 c 128,-1,39
 19 440 19 440 19 445 c 0,40,41
 19 456 19 456 21.5 463.5 c 128,-1,42
 24 471 24 471 39 478 c 1,43,44
 62 487 62 487 87.5 497 c 128,-1,45
 113 507 113 507 140 516 c 128,-1,46
 167 525 167 525 194.5 530.5 c 128,-1,47
 222 536 222 536 247 536 c 0,48,49
 275 536 275 536 294.5 528 c 128,-1,50
 314 520 314 520 327 504.5 c 128,-1,51
 340 489 340 489 346 467 c 128,-1,52
 352 445 352 445 352 417 c 0,53,54
 352 391 352 391 342 377.5 c 128,-1,55
 332 364 332 364 318.5 355.5 c 128,-1,56
 305 347 305 347 290 338 c 128,-1,57
 275 329 275 329 263 312 c 1,58,59
 276 296 276 296 290.5 282.5 c 128,-1,60
 305 269 305 269 319 256 c 128,-1,61
 333 243 333 243 346 230 c 128,-1,62
 359 217 359 217 368.5 201 c 128,-1,63
 378 185 378 185 383.5 165.5 c 128,-1,64
 389 146 389 146 389 122 c 0,65,66
 389 85 389 85 366.5 61 c 128,-1,67
 344 37 344 37 311.5 23.5 c 128,-1,68
 279 10 279 10 243 4.5 c 128,-1,69
 207 -1 207 -1 179 -1 c 0,70,71
 159 -1 159 -1 134.5 2 c 128,-1,72
 110 5 110 5 88.5 13.5 c 128,-1,73
 67 22 67 22 53 38 c 128,-1,74
 39 54 39 54 39 82 c 1,0,1
EndSplineSet
EndChar

StartChar: four
Encoding: 52 52 23
Width: 487
Flags: W
LayerCount: 2
Fore
SplineSet
59 185 m 2,0,1
 42 185 42 185 34 191 c 128,-1,2
 26 197 26 197 23 207 c 128,-1,3
 20 217 20 217 19.5 229 c 128,-1,4
 19 241 19 241 19 252 c 0,5,6
 19 292 19 292 25.5 326.5 c 128,-1,7
 32 361 32 361 44 394.5 c 128,-1,8
 56 428 56 428 72 462 c 128,-1,9
 88 496 88 496 107 536 c 1,10,11
 110 545 110 545 118 546 c 128,-1,12
 126 547 126 547 133 547 c 0,13,14
 145 547 145 547 150.5 541 c 128,-1,15
 156 535 156 535 156 521 c 2,16,-1
 156 516 l 1,17,18
 154 509 154 509 148.5 494.5 c 128,-1,19
 143 480 143 480 135.5 462.5 c 128,-1,20
 128 445 128 445 121 424.5 c 128,-1,21
 114 404 114 404 107 385.5 c 128,-1,22
 100 367 100 367 95 352 c 128,-1,23
 90 337 90 337 88 331 c 0,24,25
 84 321 84 321 82 314 c 128,-1,26
 80 307 80 307 78.5 300.5 c 128,-1,27
 77 294 77 294 77 287.5 c 128,-1,28
 77 281 77 281 77 271 c 0,29,30
 77 269 77 269 76.5 264.5 c 128,-1,31
 76 260 76 260 77 256 c 128,-1,32
 78 252 78 252 80 248.5 c 128,-1,33
 82 245 82 245 88 243 c 1,34,-1
 96 243 l 2,35,36
 103 243 103 243 109.5 243 c 128,-1,37
 116 243 116 243 123 243 c 2,38,-1
 144 243 l 2,39,40
 158 243 158 243 173.5 243.5 c 128,-1,41
 189 244 189 244 201.5 246 c 128,-1,42
 214 248 214 248 215 253 c 2,43,-1
 234 419 l 2,44,45
 235 432 235 432 239.5 435.5 c 128,-1,46
 244 439 244 439 253 439 c 0,47,48
 258 439 258 439 263 438 c 128,-1,49
 268 437 268 437 272 435 c 128,-1,50
 276 433 276 433 279 428.5 c 128,-1,51
 282 424 282 424 282 419 c 2,52,-1
 282 253 l 1,53,-1
 448 253 l 2,54,55
 462 253 462 253 470.5 242 c 128,-1,56
 479 231 479 231 479 219 c 0,57,58
 479 212 479 212 478 204.5 c 128,-1,59
 477 197 477 197 467 195 c 0,60,61
 462 195 462 195 447 195 c 128,-1,62
 432 195 432 195 415 195 c 128,-1,63
 398 195 398 195 382 195 c 128,-1,64
 366 195 366 195 360 195 c 0,65,66
 353 195 353 195 339.5 193.5 c 128,-1,67
 326 192 326 192 314 191 c 128,-1,68
 302 190 302 190 292.5 188 c 128,-1,69
 283 186 283 186 282 185 c 2,70,-1
 273 175 l 1,71,-1
 273 -6 l 1,72,73
 269 -6 269 -6 260.5 -4.5 c 128,-1,74
 252 -3 252 -3 244 0 c 128,-1,75
 236 3 236 3 230 7.5 c 128,-1,76
 224 12 224 12 224 20 c 2,77,-1
 205 185 l 1,78,-1
 59 185 l 2,0,1
EndSplineSet
EndChar

StartChar: five
Encoding: 53 53 24
Width: 682
Flags: W
LayerCount: 2
Fore
SplineSet
59 118 m 1,0,1
 71 118 71 118 88 107 c 128,-1,2
 105 96 105 96 129.5 83 c 128,-1,3
 154 70 154 70 186 59 c 128,-1,4
 218 48 218 48 257 48 c 0,5,6
 271 48 271 48 291.5 48 c 128,-1,7
 312 48 312 48 334 50 c 128,-1,8
 356 52 356 52 378.5 57 c 128,-1,9
 401 62 401 62 419 70 c 128,-1,10
 437 78 437 78 448 91.5 c 128,-1,11
 459 105 459 105 459 124 c 0,12,13
 459 161 459 161 443 190 c 128,-1,14
 427 219 427 219 400 239.5 c 128,-1,15
 373 260 373 260 340 271 c 128,-1,16
 307 282 307 282 273 282 c 0,17,18
 242 282 242 282 213.5 274.5 c 128,-1,19
 185 267 185 267 157 257.5 c 128,-1,20
 129 248 129 248 101 240.5 c 128,-1,21
 73 233 73 233 44 233 c 0,22,23
 29 233 29 233 24 238.5 c 128,-1,24
 19 244 19 244 19 258 c 0,25,26
 19 275 19 275 30.5 301 c 128,-1,27
 42 327 42 327 56.5 356.5 c 128,-1,28
 71 386 71 386 85.5 413 c 128,-1,29
 100 440 100 440 107 457 c 0,30,31
 108 459 108 459 112 463 c 128,-1,32
 116 467 116 467 116 467 c 1,33,34
 97 462 97 462 87 467.5 c 128,-1,35
 77 473 77 473 77 492 c 0,36,37
 77 498 77 498 78 506 c 128,-1,38
 79 514 79 514 88 516 c 0,39,40
 180 536 180 536 272.5 541.5 c 128,-1,41
 365 547 365 547 460 547 c 2,42,-1
 513 547 l 2,43,44
 537 547 537 547 561.5 546 c 128,-1,45
 586 545 586 545 610.5 543 c 128,-1,46
 635 541 635 541 662 536 c 0,47,48
 662 535 662 535 663 529 c 128,-1,49
 664 523 664 523 664 521 c 0,50,51
 664 511 664 511 662.5 503.5 c 128,-1,52
 661 496 661 496 653 487 c 1,53,54
 639 488 639 488 612 488 c 2,55,-1
 405 488 l 2,56,57
 371 488 371 488 342.5 487.5 c 128,-1,58
 314 487 314 487 302 487 c 0,59,60
 297 487 297 487 280 486 c 128,-1,61
 263 485 263 485 245 483.5 c 128,-1,62
 227 482 227 482 210 480.5 c 128,-1,63
 193 479 193 479 185 478 c 0,64,65
 176 476 176 476 168 466.5 c 128,-1,66
 160 457 160 457 153.5 444 c 128,-1,67
 147 431 147 431 142 415 c 128,-1,68
 137 399 137 399 133.5 383.5 c 128,-1,69
 130 368 130 368 128.5 355.5 c 128,-1,70
 127 343 127 343 127 336 c 2,71,-1
 127 331 l 1,72,-1
 131 326 l 2,73,74
 135 322 135 322 136 322 c 2,75,-1
 146 322 l 2,76,77
 149 322 149 322 156 326 c 128,-1,78
 163 330 163 330 166 331 c 0,79,80
 173 332 173 332 192.5 334.5 c 128,-1,81
 212 337 212 337 234 338.5 c 128,-1,82
 256 340 256 340 275 341 c 128,-1,83
 294 342 294 342 302 341 c 0,84,85
 346 337 346 337 385 318 c 128,-1,86
 424 299 424 299 453.5 268.5 c 128,-1,87
 483 238 483 238 500.5 198.5 c 128,-1,88
 518 159 518 159 518 115 c 0,89,90
 518 89 518 89 505.5 68 c 128,-1,91
 493 47 493 47 473 31.5 c 128,-1,92
 453 16 453 16 428.5 8 c 128,-1,93
 404 0 404 0 380 0 c 2,94,-1
 175 0 l 2,95,96
 152 0 152 0 131 10.5 c 128,-1,97
 110 21 110 21 94 38 c 128,-1,98
 78 55 78 55 68.5 76.5 c 128,-1,99
 59 98 59 98 59 118 c 1,0,1
EndSplineSet
EndChar

StartChar: six
Encoding: 54 54 25
Width: 614
Flags: W
LayerCount: 2
Fore
SplineSet
9 293 m 0,0,1
 9 325 9 325 21 357.5 c 128,-1,2
 33 390 33 390 53.5 420 c 128,-1,3
 74 450 74 450 101 477 c 128,-1,4
 128 504 128 504 159 523.5 c 128,-1,5
 190 543 190 543 223 554.5 c 128,-1,6
 256 566 256 566 289 566 c 0,7,8
 303 566 303 566 307.5 557.5 c 128,-1,9
 312 549 312 549 312 536 c 0,10,11
 312 535 312 535 312 530.5 c 128,-1,12
 312 526 312 526 312 526 c 1,13,14
 298 520 298 520 275 510 c 128,-1,15
 252 500 252 500 226.5 486 c 128,-1,16
 201 472 201 472 174.5 454.5 c 128,-1,17
 148 437 148 437 126.5 417.5 c 128,-1,18
 105 398 105 398 91 376 c 128,-1,19
 77 354 77 354 77 331 c 2,20,-1
 77 214 l 1,21,-1
 88 195 l 1,22,23
 113 227 113 227 149.5 245 c 128,-1,24
 186 263 186 263 227.5 271.5 c 128,-1,25
 269 280 269 280 311 281.5 c 128,-1,26
 353 283 353 283 389 283 c 2,27,-1
 409 283 l 2,28,29
 422 283 422 283 438 282.5 c 128,-1,30
 454 282 454 282 467 282 c 2,31,-1
 487 282 l 1,32,33
 508 275 508 275 527.5 264.5 c 128,-1,34
 547 254 547 254 562 239.5 c 128,-1,35
 577 225 577 225 586 206 c 128,-1,36
 595 187 595 187 595 164 c 0,37,38
 595 130 595 130 578.5 104.5 c 128,-1,39
 562 79 562 79 535 60.5 c 128,-1,40
 508 42 508 42 474 30.5 c 128,-1,41
 440 19 440 19 405.5 12 c 128,-1,42
 371 5 371 5 338 2 c 128,-1,43
 305 -1 305 -1 281 -1 c 0,44,45
 218 -1 218 -1 168 21.5 c 128,-1,46
 118 44 118 44 83 84 c 128,-1,47
 48 124 48 124 28.5 177.5 c 128,-1,48
 9 231 9 231 9 293 c 0,0,1
136 142 m 0,49,50
 136 117 136 117 152 100.5 c 128,-1,51
 168 84 168 84 191.5 74.5 c 128,-1,52
 215 65 215 65 240.5 61 c 128,-1,53
 266 57 266 57 285 57 c 0,54,55
 303 57 303 57 328.5 58 c 128,-1,56
 354 59 354 59 381.5 63 c 128,-1,57
 409 67 409 67 436.5 74.5 c 128,-1,58
 464 82 464 82 487 93.5 c 128,-1,59
 510 105 510 105 525.5 123 c 128,-1,60
 541 141 541 141 546 166 c 1,61,62
 548 182 548 182 538.5 193.5 c 128,-1,63
 529 205 529 205 511.5 213 c 128,-1,64
 494 221 494 221 472.5 225 c 128,-1,65
 451 229 451 229 431 231.5 c 128,-1,66
 411 234 411 234 394.5 234.5 c 128,-1,67
 378 235 378 235 371 235 c 0,68,69
 358 235 358 235 335.5 232.5 c 128,-1,70
 313 230 313 230 287 225.5 c 128,-1,71
 261 221 261 221 234 214 c 128,-1,72
 207 207 207 207 185 196.5 c 128,-1,73
 163 186 163 186 149.5 172.5 c 128,-1,74
 136 159 136 159 136 142 c 0,49,50
EndSplineSet
EndChar

StartChar: seven
Encoding: 55 55 26
Width: 809
Flags: W
LayerCount: 2
Fore
SplineSet
322 253 m 1,0,1
 309 257 309 257 300 259 c 128,-1,2
 291 261 291 261 282.5 262 c 128,-1,3
 274 263 274 263 265 263 c 128,-1,4
 256 263 256 263 245 263 c 0,5,6
 228 263 228 263 214.5 263 c 128,-1,7
 201 263 201 263 188 261.5 c 128,-1,8
 175 260 175 260 160.5 258 c 128,-1,9
 146 256 146 256 127 253 c 1,10,11
 123 255 123 255 118 258.5 c 128,-1,12
 113 262 113 262 107 265.5 c 128,-1,13
 101 269 101 269 96 273.5 c 128,-1,14
 91 278 91 278 88 282 c 1,15,16
 115 299 115 299 149.5 307.5 c 128,-1,17
 184 316 184 316 220 319 c 128,-1,18
 256 322 256 322 290 322 c 128,-1,19
 324 322 324 322 350 322 c 1,20,21
 368 333 368 333 382 352.5 c 128,-1,22
 396 372 396 372 409 394.5 c 128,-1,23
 422 417 422 417 433.5 439.5 c 128,-1,24
 445 462 445 462 458 478 c 1,25,26
 453 479 453 479 440.5 480.5 c 128,-1,27
 428 482 428 482 414 483.5 c 128,-1,28
 400 485 400 485 388 486 c 128,-1,29
 376 487 376 487 371 487 c 0,30,31
 358 488 358 488 331 488 c 2,32,-1
 136 488 l 2,33,34
 103 488 103 488 77 487.5 c 128,-1,35
 51 487 51 487 39 487 c 1,36,37
 24 493 24 493 21.5 500.5 c 128,-1,38
 19 508 19 508 19 520 c 0,39,40
 19 526 19 526 19.5 534.5 c 128,-1,41
 20 543 20 543 29 546 c 1,42,-1
 88 546 l 2,43,44
 109 546 109 546 131.5 546.5 c 128,-1,45
 154 547 154 547 173 547 c 2,46,-1
 234 547 l 2,47,48
 266 547 266 547 305.5 547 c 128,-1,49
 345 547 345 547 387 547 c 128,-1,50
 429 547 429 547 470 544 c 128,-1,51
 511 541 511 541 546 536 c 1,52,53
 552 530 552 530 557 522.5 c 128,-1,54
 562 515 562 515 565 507 c 1,55,56
 561 500 561 500 549.5 485.5 c 128,-1,57
 538 471 538 471 523.5 453 c 128,-1,58
 509 435 509 435 494 415 c 128,-1,59
 479 395 479 395 466.5 376 c 128,-1,60
 454 357 454 357 445.5 341.5 c 128,-1,61
 437 326 437 326 437 316 c 0,62,63
 437 314 437 314 438 314 c 1,64,65
 438 312 438 312 439 312 c 0,66,67
 440 310 440 310 448 306.5 c 128,-1,68
 456 303 456 303 458 302 c 0,69,70
 538 292 538 292 622.5 283.5 c 128,-1,71
 707 275 707 275 789 263 c 0,72,73
 798 261 798 261 799 253.5 c 128,-1,74
 800 246 800 246 800 239 c 256,75,76
 800 232 800 232 799 224.5 c 128,-1,77
 798 217 798 217 789 214 c 1,78,-1
 780 214 l 2,79,80
 774 214 774 214 767.5 213.5 c 128,-1,81
 761 213 761 213 754 213 c 2,82,-1
 745 213 l 2,83,84
 704 213 704 213 662 218 c 128,-1,85
 620 223 620 223 579.5 228.5 c 128,-1,86
 539 234 539 234 497.5 238.5 c 128,-1,87
 456 243 456 243 414 243 c 2,88,-1
 399 243 l 1,89,90
 386 218 386 218 379.5 190.5 c 128,-1,91
 373 163 373 163 368 135.5 c 128,-1,92
 363 108 363 108 358.5 82.5 c 128,-1,93
 354 57 354 57 344.5 38 c 128,-1,94
 335 19 335 19 318.5 7.5 c 128,-1,95
 302 -4 302 -4 273 -4 c 1,96,97
 273 31 273 31 280.5 62 c 128,-1,98
 288 93 288 93 297.5 124 c 128,-1,99
 307 155 307 155 314.5 185.5 c 128,-1,100
 322 216 322 216 322 248 c 2,101,-1
 322 253 l 1,0,1
EndSplineSet
EndChar

StartChar: eight
Encoding: 56 56 27
Width: 565
Flags: W
LayerCount: 2
Fore
SplineSet
194 116 m 0,0,1
 194 206 194 206 230.5 275 c 128,-1,2
 267 344 267 344 341 399 c 1,3,4
 338 401 338 401 331 404.5 c 128,-1,5
 324 408 324 408 322 409 c 0,6,7
 292 415 292 415 259 417.5 c 128,-1,8
 226 420 226 420 193.5 421 c 128,-1,9
 161 422 161 422 128.5 421 c 128,-1,10
 96 420 96 420 69 419 c 1,11,12
 63 422 63 422 53 425.5 c 128,-1,13
 43 429 43 429 33.5 435.5 c 128,-1,14
 24 442 24 442 16.5 449.5 c 128,-1,15
 9 457 9 457 9 467 c 0,16,17
 9 499 9 499 25.5 523 c 128,-1,18
 42 547 42 547 67.5 563 c 128,-1,19
 93 579 93 579 126 589 c 128,-1,20
 159 599 159 599 193 605 c 128,-1,21
 227 611 227 611 258 613 c 128,-1,22
 289 615 289 615 312 615 c 0,23,24
 316 615 316 615 327 615 c 128,-1,25
 338 615 338 615 350.5 615 c 128,-1,26
 363 615 363 615 374 614.5 c 128,-1,27
 385 614 385 614 389 614 c 1,28,29
 404 608 404 608 407 600 c 128,-1,30
 410 592 410 592 410 581 c 0,31,32
 410 569 410 569 407 562 c 128,-1,33
 404 555 404 555 391 555 c 0,34,35
 371 555 371 555 354 560.5 c 128,-1,36
 337 566 337 566 318 566 c 0,37,38
 293 566 293 566 258 562.5 c 128,-1,39
 223 559 223 559 188 550.5 c 128,-1,40
 153 542 153 542 123 526.5 c 128,-1,41
 93 511 93 511 77 487 c 1,42,-1
 98 478 l 1,43,-1
 108 477 l 2,44,45
 118 476 118 476 134 475 c 128,-1,46
 150 474 150 474 170 473 c 128,-1,47
 190 472 190 472 210 471 c 128,-1,48
 230 470 230 470 249.5 468.5 c 128,-1,49
 269 467 269 467 282 467 c 0,50,51
 284 467 284 467 290 467 c 128,-1,52
 296 467 296 467 302 467 c 2,53,-1
 314 467 l 2,54,55
 320 467 320 467 322 467 c 0,56,57
 326 467 326 467 337 464.5 c 128,-1,58
 348 462 348 462 360.5 459 c 128,-1,59
 373 456 373 456 384 453 c 128,-1,60
 395 450 395 450 399 448 c 1,61,62
 417 461 417 461 431.5 473 c 128,-1,63
 446 485 446 485 456.5 499.5 c 128,-1,64
 467 514 467 514 472.5 532.5 c 128,-1,65
 478 551 478 551 478 575 c 1,66,67
 479 575 479 575 482 575 c 128,-1,68
 485 575 485 575 487 575 c 0,69,70
 498 575 498 575 504 571 c 128,-1,71
 510 567 510 567 513 560 c 128,-1,72
 516 553 516 553 517 544.5 c 128,-1,73
 518 536 518 536 518 529 c 0,74,75
 518 508 518 508 509.5 493.5 c 128,-1,76
 501 479 501 479 491.5 466.5 c 128,-1,77
 482 454 482 454 474 441.5 c 128,-1,78
 466 429 466 429 466 414 c 0,79,80
 466 393 466 393 478 371.5 c 128,-1,81
 490 350 490 350 505.5 327 c 128,-1,82
 521 304 521 304 534 277.5 c 128,-1,83
 547 251 547 251 547 219 c 0,84,85
 547 192 547 192 534 165 c 128,-1,86
 521 138 521 138 499.5 113 c 128,-1,87
 478 88 478 88 450 67.5 c 128,-1,88
 422 47 422 47 392.5 31.5 c 128,-1,89
 363 16 363 16 333 7.5 c 128,-1,90
 303 -1 303 -1 277 -1 c 0,91,92
 253 -1 253 -1 236.5 9.5 c 128,-1,93
 220 20 220 20 210.5 37 c 128,-1,94
 201 54 201 54 197.5 74.5 c 128,-1,95
 194 95 194 95 194 116 c 0,0,1
243 77 m 1,96,97
 253 63 253 63 267.5 60 c 128,-1,98
 282 57 282 57 298 57 c 0,99,100
 327 57 327 57 357.5 70.5 c 128,-1,101
 388 84 388 84 415 105.5 c 128,-1,102
 442 127 442 127 463.5 153 c 128,-1,103
 485 179 485 179 496 205 c 0,104,105
 496 206 496 206 497 209 c 128,-1,106
 498 212 498 212 498 214 c 0,107,108
 498 224 498 224 494 239.5 c 128,-1,109
 490 255 490 255 483 272.5 c 128,-1,110
 476 290 476 290 466.5 307.5 c 128,-1,111
 457 325 457 325 446.5 339.5 c 128,-1,112
 436 354 436 354 423.5 362.5 c 128,-1,113
 411 371 411 371 399 371 c 0,114,115
 377 371 377 371 357 358 c 128,-1,116
 337 345 337 345 319.5 324 c 128,-1,117
 302 303 302 303 288 276.5 c 128,-1,118
 274 250 274 250 263.5 222.5 c 128,-1,119
 253 195 253 195 248 169.5 c 128,-1,120
 243 144 243 144 243 127 c 2,121,-1
 243 116 l 2,122,123
 243 110 243 110 243 102 c 128,-1,124
 243 94 243 94 243 88 c 2,125,-1
 243 77 l 1,96,97
EndSplineSet
EndChar

StartChar: nine
Encoding: 57 57 28
Width: 448
Flags: W
LayerCount: 2
Fore
SplineSet
341 14 m 0,0,1
 341 90 341 90 347 159 c 128,-1,2
 353 228 353 228 360 302 c 1,3,-1
 360 312 l 2,4,5
 360 315 360 315 356 322.5 c 128,-1,6
 352 330 352 330 350 331 c 1,7,8
 350 331 350 331 348 331 c 2,9,-1
 347 331 l 1,10,-1
 346 332 l 2,11,12
 345 332 345 332 344 331.5 c 128,-1,13
 343 331 343 331 341 331 c 0,14,15
 331 327 331 327 306.5 320 c 128,-1,16
 282 313 282 313 254 305 c 128,-1,17
 226 297 226 297 201 290.5 c 128,-1,18
 176 284 176 284 166 282 c 0,19,20
 165 282 165 282 160.5 281.5 c 128,-1,21
 156 281 156 281 149.5 281 c 128,-1,22
 143 281 143 281 136.5 281 c 128,-1,23
 130 281 130 281 126 281 c 0,24,25
 103 281 103 281 80 285.5 c 128,-1,26
 57 290 57 290 39 301.5 c 128,-1,27
 21 313 21 313 10 331.5 c 128,-1,28
 -1 350 -1 350 -1 379 c 0,29,30
 -1 407 -1 407 12.5 429 c 128,-1,31
 26 451 26 451 48 467.5 c 128,-1,32
 70 484 70 484 98 495.5 c 128,-1,33
 126 507 126 507 155 513.5 c 128,-1,34
 184 520 184 520 212 523 c 128,-1,35
 240 526 240 526 261 526 c 0,36,37
 286 526 286 526 315.5 522 c 128,-1,38
 345 518 345 518 370 506.5 c 128,-1,39
 395 495 395 495 412 473.5 c 128,-1,40
 429 452 429 452 429 419 c 0,41,42
 429 368 429 368 425.5 318.5 c 128,-1,43
 422 269 422 269 417.5 220 c 128,-1,44
 413 171 413 171 410 121 c 128,-1,45
 407 71 407 71 409 20 c 1,46,47
 402 9 402 9 391.5 4 c 128,-1,48
 381 -1 381 -1 371 -1 c 0,49,50
 366 -1 366 -1 361 -0.5 c 128,-1,51
 356 0 356 0 352 1.5 c 128,-1,52
 348 3 348 3 344.5 5.5 c 128,-1,53
 341 8 341 8 341 14 c 0,0,1
59 376 m 0,54,55
 59 360 59 360 67 352.5 c 128,-1,56
 75 345 75 345 86.5 342.5 c 128,-1,57
 98 340 98 340 110.5 340 c 128,-1,58
 123 340 123 340 133 340 c 0,59,60
 144 340 144 340 165.5 341.5 c 128,-1,61
 187 343 187 343 212.5 347 c 128,-1,62
 238 351 238 351 264.5 358 c 128,-1,63
 291 365 291 365 312.5 376 c 128,-1,64
 334 387 334 387 347.5 402 c 128,-1,65
 361 417 361 417 361 439 c 0,66,67
 361 450 361 450 357.5 456 c 128,-1,68
 354 462 354 462 341 467 c 1,69,70
 337 467 337 467 327.5 467 c 128,-1,71
 318 467 318 467 307 467.5 c 128,-1,72
 296 468 296 468 286 468.5 c 128,-1,73
 276 469 276 469 273 469 c 0,74,75
 260 469 260 469 239 468 c 128,-1,76
 218 467 218 467 194.5 463.5 c 128,-1,77
 171 460 171 460 146.5 453.5 c 128,-1,78
 122 447 122 447 102.5 437 c 128,-1,79
 83 427 83 427 71 411.5 c 128,-1,80
 59 396 59 396 59 376 c 0,54,55
EndSplineSet
EndChar

StartChar: colon
Encoding: 58 58 29
Width: 218
Flags: W
LayerCount: 2
Fore
SplineSet
33 106 m 0,0,1
 33 126 33 126 40.5 142.5 c 128,-1,2
 48 159 48 159 60.5 171.5 c 128,-1,3
 73 184 73 184 90.5 190 c 128,-1,4
 108 196 108 196 127 196 c 0,5,6
 139 196 139 196 150.5 190 c 128,-1,7
 162 184 162 184 171 174 c 128,-1,8
 180 164 180 164 185 151.5 c 128,-1,9
 190 139 190 139 190 127 c 0,10,11
 190 126 190 126 190 122 c 128,-1,12
 190 118 190 118 190 117 c 0,13,14
 175 104 175 104 164 96 c 128,-1,15
 153 88 153 88 143 84 c 128,-1,16
 133 80 133 80 121.5 78.5 c 128,-1,17
 110 77 110 77 95 77 c 0,18,19
 88 77 88 77 77 77.5 c 128,-1,20
 66 78 66 78 56.5 81 c 128,-1,21
 47 84 47 84 40 89.5 c 128,-1,22
 33 95 33 95 33 106 c 0,0,1
65 400 m 0,23,24
 65 417 65 417 71 428 c 128,-1,25
 77 439 77 439 87 445.5 c 128,-1,26
 97 452 97 452 110.5 454.5 c 128,-1,27
 124 457 124 457 141 457 c 0,28,29
 165 457 165 457 180 439.5 c 128,-1,30
 195 422 195 422 195 397 c 0,31,32
 195 383 195 383 187 374 c 128,-1,33
 179 365 179 365 167.5 359 c 128,-1,34
 156 353 156 353 143.5 350.5 c 128,-1,35
 131 348 131 348 121 348 c 0,36,37
 90 348 90 348 77.5 358.5 c 128,-1,38
 65 369 65 369 65 400 c 0,23,24
EndSplineSet
EndChar

StartChar: semicolon
Encoding: 59 59 30
Width: 166
Flags: W
LayerCount: 2
Fore
SplineSet
29 -360 m 0,0,1
 29 -338 29 -338 38.5 -317.5 c 128,-1,2
 48 -297 48 -297 61.5 -276 c 128,-1,3
 75 -255 75 -255 87.5 -235 c 128,-1,4
 100 -215 100 -215 107 -195 c 0,5,6
 107 -193 107 -193 106 -188.5 c 128,-1,7
 105 -184 105 -184 103 -179.5 c 128,-1,8
 101 -175 101 -175 99.5 -171 c 128,-1,9
 98 -167 98 -167 98 -166 c 0,10,11
 97 -163 97 -163 92.5 -159.5 c 128,-1,12
 88 -156 88 -156 88 -156 c 1,13,14
 86 -156 86 -156 80.5 -157.5 c 128,-1,15
 75 -159 75 -159 68.5 -160.5 c 128,-1,16
 62 -162 62 -162 56 -163.5 c 128,-1,17
 50 -165 50 -165 49 -166 c 1,18,-1
 37 -166 l 2,19,20
 17 -166 17 -166 2.5 -158 c 128,-1,21
 -12 -150 -12 -150 -12 -128 c 0,22,23
 -12 -109 -12 -109 -3 -98.5 c 128,-1,24
 6 -88 6 -88 18.5 -83.5 c 128,-1,25
 31 -79 31 -79 47 -78 c 128,-1,26
 63 -77 63 -77 77 -77 c 2,27,-1
 85 -77 l 2,28,29
 91 -77 91 -77 97 -77.5 c 128,-1,30
 103 -78 103 -78 109 -78 c 2,31,-1
 116 -78 l 1,32,33
 129 -87 129 -87 138.5 -99 c 128,-1,34
 148 -111 148 -111 154 -125 c 128,-1,35
 160 -139 160 -139 163 -154.5 c 128,-1,36
 166 -170 166 -170 166 -185 c 0,37,38
 166 -214 166 -214 156.5 -240 c 128,-1,39
 147 -266 147 -266 132 -289 c 128,-1,40
 117 -312 117 -312 97.5 -332 c 128,-1,41
 78 -352 78 -352 58 -371 c 0,42,43
 57 -371 57 -371 53.5 -371 c 128,-1,44
 50 -371 50 -371 49 -371 c 0,45,46
 44 -371 44 -371 36.5 -370 c 128,-1,47
 29 -369 29 -369 29 -360 c 0,0,1
8 239 m 0,48,49
 8 255 8 255 13.5 268 c 128,-1,50
 19 281 19 281 29 291.5 c 128,-1,51
 39 302 39 302 52.5 307 c 128,-1,52
 66 312 66 312 82 312 c 0,53,54
 93 312 93 312 105.5 305.5 c 128,-1,55
 118 299 118 299 129.5 289 c 128,-1,56
 141 279 141 279 148.5 267 c 128,-1,57
 156 255 156 255 156 243 c 0,58,59
 156 230 156 230 146.5 221 c 128,-1,60
 137 212 137 212 123.5 206 c 128,-1,61
 110 200 110 200 95.5 197 c 128,-1,62
 81 194 81 194 71 194 c 256,63,64
 61 194 61 194 50 196.5 c 128,-1,65
 39 199 39 199 29.5 204.5 c 128,-1,66
 20 210 20 210 14 219 c 128,-1,67
 8 228 8 228 8 239 c 0,48,49
EndSplineSet
EndChar

StartChar: less
Encoding: 60 60 31
Width: 467
Flags: W
LayerCount: 2
Fore
SplineSet
-1 312 m 0,0,1
 -1 322 -1 322 3.5 328.5 c 128,-1,2
 8 335 8 335 20 342 c 1,3,4
 72 366 72 366 113.5 387 c 128,-1,5
 155 408 155 408 195 427.5 c 128,-1,6
 235 447 235 447 278.5 466 c 128,-1,7
 322 485 322 485 380 507 c 0,8,9
 381 507 381 507 382 507.5 c 128,-1,10
 383 508 383 508 385 508 c 0,11,12
 396 508 396 508 403 498 c 128,-1,13
 410 488 410 488 410 478 c 0,14,15
 410 467 410 467 405.5 460 c 128,-1,16
 401 453 401 453 389 448 c 2,17,-1
 133 335 l 1,18,-1
 146 322 l 2,19,20
 146 321 146 321 156.5 316.5 c 128,-1,21
 167 312 167 312 184 304 c 128,-1,22
 201 296 201 296 222.5 286.5 c 128,-1,23
 244 277 244 277 265.5 267.5 c 128,-1,24
 287 258 287 258 307 249.5 c 128,-1,25
 327 241 327 241 341 234 c 0,26,27
 351 229 351 229 369.5 226.5 c 128,-1,28
 388 224 388 224 405.5 220 c 128,-1,29
 423 216 423 216 436.5 208.5 c 128,-1,30
 450 201 450 201 450 185 c 0,31,32
 450 171 450 171 439.5 163.5 c 128,-1,33
 429 156 429 156 416 156 c 256,34,35
 403 156 403 156 378.5 161.5 c 128,-1,36
 354 167 354 167 322.5 176.5 c 128,-1,37
 291 186 291 186 254.5 199 c 128,-1,38
 218 212 218 212 182 225 c 128,-1,39
 146 238 146 238 113 252 c 128,-1,40
 80 266 80 266 54.5 277.5 c 128,-1,41
 29 289 29 289 14 298 c 128,-1,42
 -1 307 -1 307 -1 312 c 0,0,1
EndSplineSet
EndChar

StartChar: equal
Encoding: 61 61 32
Width: 467
Flags: W
LayerCount: 2
Fore
SplineSet
29 331 m 0,0,1
 36 332 36 332 49.5 333.5 c 128,-1,2
 63 335 63 335 80.5 337 c 128,-1,3
 98 339 98 339 117 341 c 128,-1,4
 136 343 136 343 153.5 345.5 c 128,-1,5
 171 348 171 348 184.5 349 c 128,-1,6
 198 350 198 350 205 351 c 1,7,-1
 224 351 l 2,8,9
 230 351 230 351 245.5 350 c 128,-1,10
 261 349 261 349 280.5 348.5 c 128,-1,11
 300 348 300 348 321.5 346.5 c 128,-1,12
 343 345 343 345 362 344 c 128,-1,13
 381 343 381 343 396 343 c 128,-1,14
 411 343 411 343 419 342 c 1,15,16
 425 337 425 337 432 327.5 c 128,-1,17
 439 318 439 318 439 312 c 0,18,19
 439 310 439 310 437.5 307 c 128,-1,20
 436 304 436 304 434.5 301 c 128,-1,21
 433 298 433 298 431 295.5 c 128,-1,22
 429 293 429 293 429 292 c 1,23,24
 371 294 371 294 319.5 292.5 c 128,-1,25
 268 291 268 291 218 288 c 128,-1,26
 168 285 168 285 119 282.5 c 128,-1,27
 70 280 70 280 16 280 c 1,28,29
 16 282 16 282 16.5 288 c 128,-1,30
 17 294 17 294 18 301 c 128,-1,31
 19 308 19 308 19.5 314 c 128,-1,32
 20 320 20 320 20 322 c 256,33,34
 20 324 20 324 24 327.5 c 128,-1,35
 28 331 28 331 29 331 c 0,0,1
48 195 m 0,36,37
 48 212 48 212 68 221.5 c 128,-1,38
 88 231 88 231 118.5 237 c 128,-1,39
 149 243 149 243 186 244.5 c 128,-1,40
 223 246 223 246 258.5 246 c 128,-1,41
 294 246 294 246 322.5 245.5 c 128,-1,42
 351 245 351 245 365 245 c 0,43,44
 383 245 383 245 397 244 c 128,-1,45
 411 243 411 243 421.5 237.5 c 128,-1,46
 432 232 432 232 437 221 c 128,-1,47
 442 210 442 210 442 190 c 1,48,49
 394 190 394 190 347 187 c 128,-1,50
 300 184 300 184 253.5 181.5 c 128,-1,51
 207 179 207 179 160 177 c 128,-1,52
 113 175 113 175 67 175 c 0,53,54
 48 175 48 175 48 195 c 0,36,37
EndSplineSet
EndChar

StartChar: greater
Encoding: 62 62 33
Width: 546
Flags: W
LayerCount: 2
Fore
SplineSet
106 118 m 2,0,-1
 106 148 l 2,1,2
 106 154 106 154 108 157.5 c 128,-1,3
 110 161 110 161 114 165 c 128,-1,4
 118 169 118 169 127 174 c 1,5,-1
 380 350 l 1,6,7
 392 352 392 352 400 360 c 128,-1,8
 408 368 408 368 409 380 c 1,9,10
 402 382 402 382 387.5 386 c 128,-1,11
 373 390 373 390 355 395.5 c 128,-1,12
 337 401 337 401 316.5 407.5 c 128,-1,13
 296 414 296 414 277 419 c 1,14,-1
 245 430 l 2,15,16
 230 435 230 435 224 438 c 0,17,18
 220 439 220 439 209.5 444.5 c 128,-1,19
 199 450 199 450 183.5 456.5 c 128,-1,20
 168 463 168 463 150.5 471.5 c 128,-1,21
 133 480 133 480 115.5 488.5 c 128,-1,22
 98 497 98 497 82.5 504 c 128,-1,23
 67 511 67 511 59 516 c 0,24,25
 51 520 51 520 42 525 c 128,-1,26
 33 530 33 530 26 537 c 128,-1,27
 19 544 19 544 13.5 552 c 128,-1,28
 8 560 8 560 8 569 c 0,29,30
 8 575 8 575 9.5 581 c 128,-1,31
 11 587 11 587 14.5 592.5 c 128,-1,32
 18 598 18 598 22 601.5 c 128,-1,33
 26 605 26 605 34 605 c 1,34,35
 34 605 34 605 35 604.5 c 128,-1,36
 36 604 36 604 37 604 c 0,37,38
 38 603 38 603 39 603 c 0,39,40
 41 603 41 603 44 600.5 c 128,-1,41
 47 598 47 598 50 595 c 128,-1,42
 53 592 53 592 55.5 589 c 128,-1,43
 58 586 58 586 59 584 c 1,44,45
 113 553 113 553 165.5 532 c 128,-1,46
 218 511 218 511 271 494.5 c 128,-1,47
 324 478 324 478 377 462.5 c 128,-1,48
 430 447 430 447 487 428 c 0,49,50
 504 422 504 422 515.5 409.5 c 128,-1,51
 527 397 527 397 527 378 c 0,52,53
 527 371 527 371 524 365 c 128,-1,54
 521 359 521 359 507 360 c 1,55,-1
 136 98 l 2,56,57
 135 97 135 97 133 97 c 2,58,-1
 128 97 l 2,59,60
 119 97 119 97 114.5 100 c 128,-1,61
 110 103 110 103 108 107.5 c 128,-1,62
 106 112 106 112 106 118 c 2,0,-1
EndSplineSet
EndChar

StartChar: question
Encoding: 63 63 34
Width: 409
Flags: W
LayerCount: 2
Fore
SplineSet
37 269 m 0,0,1
 37 302 37 302 58.5 328.5 c 128,-1,2
 80 355 80 355 111.5 379.5 c 128,-1,3
 143 404 143 404 180 425.5 c 128,-1,4
 217 447 217 447 248.5 469 c 128,-1,5
 280 491 280 491 301 513.5 c 128,-1,6
 322 536 322 536 322 562 c 0,7,8
 322 583 322 583 308.5 597 c 128,-1,9
 295 611 295 611 275.5 619.5 c 128,-1,10
 256 628 256 628 234.5 632 c 128,-1,11
 213 636 213 636 198 636 c 0,12,13
 167 636 167 636 137 622 c 128,-1,14
 107 608 107 608 82 591.5 c 128,-1,15
 57 575 57 575 39 561 c 128,-1,16
 21 547 21 547 14 547 c 0,17,18
 8 547 8 547 5 550 c 128,-1,19
 2 553 2 553 0.5 558 c 128,-1,20
 -1 563 -1 563 -1 568 c 2,21,-1
 -1 578 l 2,22,23
 -1 596 -1 596 10 612 c 128,-1,24
 21 628 21 628 39.5 642 c 128,-1,25
 58 656 58 656 81 667.5 c 128,-1,26
 104 679 104 679 126.5 686.5 c 128,-1,27
 149 694 149 694 169.5 698.5 c 128,-1,28
 190 703 190 703 205 703 c 0,29,30
 231 703 231 703 262.5 692 c 128,-1,31
 294 681 294 681 320 662 c 128,-1,32
 346 643 346 643 363.5 616.5 c 128,-1,33
 381 590 381 590 381 561 c 0,34,35
 381 526 381 526 360 497.5 c 128,-1,36
 339 469 339 469 307.5 444 c 128,-1,37
 276 419 276 419 239 397.5 c 128,-1,38
 202 376 202 376 170.5 354 c 128,-1,39
 139 332 139 332 118 310.5 c 128,-1,40
 97 289 97 289 97 263 c 0,41,42
 97 253 97 253 101.5 244.5 c 128,-1,43
 106 236 106 236 111.5 228.5 c 128,-1,44
 117 221 117 221 122 213.5 c 128,-1,45
 127 206 127 206 127 196 c 0,46,47
 127 188 127 188 119 186.5 c 128,-1,48
 111 185 111 185 107 185 c 0,49,50
 91 185 91 185 78 193 c 128,-1,51
 65 201 65 201 56 213.5 c 128,-1,52
 47 226 47 226 42 241 c 128,-1,53
 37 256 37 256 37 269 c 0,0,1
28 44 m 0,54,55
 28 56 28 56 34.5 64.5 c 128,-1,56
 41 73 41 73 50 78.5 c 128,-1,57
 59 84 59 84 70.5 86 c 128,-1,58
 82 88 82 88 93 88 c 0,59,60
 118 88 118 88 128 73.5 c 128,-1,61
 138 59 138 59 138 37 c 0,62,63
 138 14 138 14 125.5 6 c 128,-1,64
 113 -2 113 -2 91 -2 c 0,65,66
 82 -2 82 -2 70.5 0.5 c 128,-1,67
 59 3 59 3 50 8 c 128,-1,68
 41 13 41 13 34.5 22 c 128,-1,69
 28 31 28 31 28 44 c 0,54,55
EndSplineSet
EndChar

StartChar: at
Encoding: 64 64 35
Width: 1003
Flags: W
LayerCount: 2
Fore
SplineSet
19 336 m 0,0,1
 19 406 19 406 44.5 461 c 128,-1,2
 70 516 70 516 113 556.5 c 128,-1,3
 156 597 156 597 212.5 625 c 128,-1,4
 269 653 269 653 331 670 c 128,-1,5
 393 687 393 687 457.5 694.5 c 128,-1,6
 522 702 522 702 581 702 c 0,7,8
 621 702 621 702 668 697 c 128,-1,9
 715 692 715 692 761 680.5 c 128,-1,10
 807 669 807 669 849 649.5 c 128,-1,11
 891 630 891 630 923.5 601 c 128,-1,12
 956 572 956 572 975.5 533 c 128,-1,13
 995 494 995 494 995 443 c 0,14,15
 995 394 995 394 980.5 363 c 128,-1,16
 966 332 966 332 941 310.5 c 128,-1,17
 916 289 916 289 884.5 272 c 128,-1,18
 853 255 853 255 819 234 c 1,19,-1
 807 234 l 2,20,21
 799 234 799 234 789 233.5 c 128,-1,22
 779 233 779 233 771 233 c 2,23,-1
 760 233 l 2,24,25
 738 233 738 233 718 239.5 c 128,-1,26
 698 246 698 246 681 253.5 c 128,-1,27
 664 261 664 261 650 267.5 c 128,-1,28
 636 274 636 274 625 274 c 0,29,30
 608 274 608 274 591.5 268.5 c 128,-1,31
 575 263 575 263 557.5 257.5 c 128,-1,32
 540 252 540 252 522.5 247.5 c 128,-1,33
 505 243 505 243 486 243 c 0,34,35
 462 243 462 243 440.5 249.5 c 128,-1,36
 419 256 419 256 403.5 268.5 c 128,-1,37
 388 281 388 281 379 300.5 c 128,-1,38
 370 320 370 320 370 346 c 0,39,40
 370 368 370 368 379.5 387 c 128,-1,41
 389 406 389 406 405.5 420.5 c 128,-1,42
 422 435 422 435 443 446 c 128,-1,43
 464 457 464 457 486 464.5 c 128,-1,44
 508 472 508 472 530 475.5 c 128,-1,45
 552 479 552 479 569 479 c 0,46,47
 573 479 573 479 582.5 478.5 c 128,-1,48
 592 478 592 478 595 478 c 1,49,50
 623 463 623 463 636 443.5 c 128,-1,51
 649 424 649 424 655 403.5 c 128,-1,52
 661 383 661 383 665 363 c 128,-1,53
 669 343 669 343 678 327 c 128,-1,54
 687 311 687 311 705.5 301.5 c 128,-1,55
 724 292 724 292 761 292 c 256,56,57
 798 292 798 292 830 300.5 c 128,-1,58
 862 309 862 309 885.5 327 c 128,-1,59
 909 345 909 345 922.5 373 c 128,-1,60
 936 401 936 401 936 439 c 0,61,62
 936 481 936 481 918.5 514 c 128,-1,63
 901 547 901 547 871 570.5 c 128,-1,64
 841 594 841 594 803.5 610 c 128,-1,65
 766 626 766 626 725 635.5 c 128,-1,66
 684 645 684 645 643.5 649.5 c 128,-1,67
 603 654 603 654 569 654 c 0,68,69
 520 654 520 654 464.5 646.5 c 128,-1,70
 409 639 409 639 354.5 623.5 c 128,-1,71
 300 608 300 608 250 582.5 c 128,-1,72
 200 557 200 557 161.5 521 c 128,-1,73
 123 485 123 485 100 437 c 128,-1,74
 77 389 77 389 77 329 c 0,75,76
 77 270 77 270 104 226 c 128,-1,77
 131 182 131 182 174.5 151 c 128,-1,78
 218 120 218 120 273.5 100 c 128,-1,79
 329 80 329 80 385.5 68.5 c 128,-1,80
 442 57 442 57 495 52.5 c 128,-1,81
 548 48 548 48 587 48 c 0,82,83
 641 48 641 48 694.5 53.5 c 128,-1,84
 748 59 748 59 802 59 c 0,85,86
 806 59 806 59 811.5 59 c 128,-1,87
 817 59 817 59 821.5 57.5 c 128,-1,88
 826 56 826 56 828 52 c 128,-1,89
 830 48 830 48 828 39 c 0,90,91
 825 29 825 29 805.5 21.5 c 128,-1,92
 786 14 786 14 757 10 c 128,-1,93
 728 6 728 6 694.5 3.5 c 128,-1,94
 661 1 661 1 630.5 0 c 128,-1,95
 600 -1 600 -1 576 -1 c 2,96,-1
 544 -1 l 2,97,98
 492 -1 492 -1 432.5 5.5 c 128,-1,99
 373 12 373 12 314.5 27 c 128,-1,100
 256 42 256 42 202.5 67.5 c 128,-1,101
 149 93 149 93 108 130 c 128,-1,102
 67 167 67 167 43 218 c 128,-1,103
 19 269 19 269 19 336 c 0,0,1
428 341 m 0,104,105
 428 327 428 327 433.5 319.5 c 128,-1,106
 439 312 439 312 447.5 307.5 c 128,-1,107
 456 303 456 303 467 302 c 128,-1,108
 478 301 478 301 488 301 c 0,109,110
 499 301 499 301 517 302.5 c 128,-1,111
 535 304 535 304 552 309 c 128,-1,112
 569 314 569 314 582 322.5 c 128,-1,113
 595 331 595 331 595 344 c 0,114,115
 595 355 595 355 593.5 368 c 128,-1,116
 592 381 592 381 588.5 392.5 c 128,-1,117
 585 404 585 404 577 411.5 c 128,-1,118
 569 419 569 419 557 419 c 0,119,120
 541 419 541 419 519.5 414 c 128,-1,121
 498 409 498 409 477 398.5 c 128,-1,122
 456 388 456 388 442 374 c 128,-1,123
 428 360 428 360 428 341 c 0,104,105
EndSplineSet
EndChar

StartChar: A
Encoding: 65 65 36
Width: 448
Flags: W
LayerCount: 2
Fore
SplineSet
360 9 m 0,0,1
 356 22 356 22 353 43.5 c 128,-1,2
 350 65 350 65 347 90.5 c 128,-1,3
 344 116 344 116 340.5 142.5 c 128,-1,4
 337 169 337 169 333.5 193 c 128,-1,5
 330 217 330 217 324.5 235.5 c 128,-1,6
 319 254 319 254 312 263 c 1,7,-1
 302 263 l 2,8,9
 295 263 295 263 287.5 263 c 128,-1,10
 280 263 280 263 273 263 c 2,11,-1
 263 263 l 2,12,13
 242 263 242 263 225 263 c 128,-1,14
 208 263 208 263 192 260.5 c 128,-1,15
 176 258 176 258 158 254.5 c 128,-1,16
 140 251 140 251 116 243 c 0,17,18
 110 241 110 241 105 232 c 128,-1,19
 100 223 100 223 96.5 212.5 c 128,-1,20
 93 202 93 202 90.5 192 c 128,-1,21
 88 182 88 182 88 175 c 256,22,23
 88 168 88 168 86.5 150 c 128,-1,24
 85 132 85 132 83.5 112 c 128,-1,25
 82 92 82 92 80 73.5 c 128,-1,26
 78 55 78 55 77 49 c 1,27,28
 70 37 70 37 57 28 c 128,-1,29
 44 19 44 19 29 19 c 0,30,31
 16 19 16 19 12 25 c 128,-1,32
 8 31 8 31 8 44 c 0,33,34
 8 45 8 45 8.5 51 c 128,-1,35
 9 57 9 57 9 59 c 0,36,37
 24 195 24 195 62 327 c 128,-1,38
 100 459 100 459 156 585 c 0,39,40
 156 586 156 586 158.5 589 c 128,-1,41
 161 592 161 592 164.5 595 c 128,-1,42
 168 598 168 598 171 600.5 c 128,-1,43
 174 603 174 603 175 603 c 0,44,45
 177 603 177 603 178 604 c 0,46,47
 179 604 179 604 179 604 c 1,48,-1
 180 605 l 1,49,50
 203 605 203 605 224.5 588.5 c 128,-1,51
 246 572 246 572 266 547 c 128,-1,52
 286 522 286 522 302 490.5 c 128,-1,53
 318 459 318 459 330.5 429 c 128,-1,54
 343 399 343 399 350.5 372.5 c 128,-1,55
 358 346 358 346 360 331 c 1,56,57
 371 325 371 325 382.5 321.5 c 128,-1,58
 394 318 394 318 405 313.5 c 128,-1,59
 416 309 416 309 424.5 302.5 c 128,-1,60
 433 296 433 296 439 282 c 0,61,62
 439 281 439 281 438.5 278 c 128,-1,63
 438 275 438 275 436 272 c 128,-1,64
 434 269 434 269 432.5 266 c 128,-1,65
 431 263 431 263 429 263 c 0,66,67
 427 262 427 262 419.5 260 c 128,-1,68
 412 258 412 258 404.5 256.5 c 128,-1,69
 397 255 397 255 389.5 254 c 128,-1,70
 382 253 382 253 380 253 c 1,71,-1
 380 248 l 2,72,73
 380 202 380 202 388 152.5 c 128,-1,74
 396 103 396 103 409 59 c 0,75,76
 409 58 409 58 410.5 55 c 128,-1,77
 412 52 412 52 414 49 c 128,-1,78
 416 46 416 46 417 42.5 c 128,-1,79
 418 39 418 39 419 39 c 1,80,-1
 419 34 l 2,81,82
 419 17 419 17 406.5 8 c 128,-1,83
 394 -1 394 -1 380 -1 c 0,84,85
 373 -1 373 -1 368 0.5 c 128,-1,86
 363 2 363 2 360 9 c 0,0,1
127 309 m 1,87,88
 146 309 146 309 171.5 311.5 c 128,-1,89
 197 314 197 314 222.5 318 c 128,-1,90
 248 322 248 322 270 325.5 c 128,-1,91
 292 329 292 329 302 331 c 1,92,93
 301 337 301 337 295.5 354 c 128,-1,94
 290 371 290 371 284 390 c 128,-1,95
 278 409 278 409 272 425.5 c 128,-1,96
 266 442 266 442 263 448 c 0,97,98
 261 452 261 452 254.5 462.5 c 128,-1,99
 248 473 248 473 239.5 483 c 128,-1,100
 231 493 231 493 221.5 500.5 c 128,-1,101
 212 508 212 508 205 508 c 0,102,103
 199 508 199 508 194 507 c 128,-1,104
 189 506 189 506 185 496 c 2,105,-1
 127 331 l 1,106,-1
 127 309 l 1,87,88
EndSplineSet
EndChar

StartChar: B
Encoding: 66 66 37
Width: 478
Flags: W
LayerCount: 2
Fore
SplineSet
20 429 m 1,0,1
 11 432 11 432 9.5 436.5 c 128,-1,2
 8 441 8 441 8 448 c 0,3,4
 8 470 8 470 22.5 484.5 c 128,-1,5
 37 499 37 499 58 508 c 128,-1,6
 79 517 79 517 106 521 c 128,-1,7
 133 525 133 525 158.5 527 c 128,-1,8
 184 529 184 529 207 528.5 c 128,-1,9
 230 528 230 528 243 528 c 0,10,11
 248 528 248 528 261 527.5 c 128,-1,12
 274 527 274 527 288 526.5 c 128,-1,13
 302 526 302 526 314 526 c 128,-1,14
 326 526 326 526 331 526 c 1,15,16
 344 520 344 520 362.5 514.5 c 128,-1,17
 381 509 381 509 398 501 c 128,-1,18
 415 493 415 493 427 480 c 128,-1,19
 439 467 439 467 439 448 c 0,20,21
 439 428 439 428 428.5 413.5 c 128,-1,22
 418 399 418 399 402 388 c 128,-1,23
 386 377 386 377 366.5 368.5 c 128,-1,24
 347 360 347 360 328 351.5 c 128,-1,25
 309 343 309 343 294.5 334 c 128,-1,26
 280 325 280 325 273 312 c 1,27,28
 300 305 300 305 331 293 c 128,-1,29
 362 281 362 281 388.5 263.5 c 128,-1,30
 415 246 415 246 432.5 220.5 c 128,-1,31
 450 195 450 195 450 161 c 0,32,33
 450 119 450 119 431.5 88.5 c 128,-1,34
 413 58 413 58 383.5 38.5 c 128,-1,35
 354 19 354 19 316.5 9.5 c 128,-1,36
 279 0 279 0 239 0 c 2,37,-1
 234 0 l 1,38,39
 230 1 230 1 224 2 c 128,-1,40
 218 3 218 3 211.5 4.5 c 128,-1,41
 205 6 205 6 200 7 c 128,-1,42
 195 8 195 8 195 9 c 2,43,-1
 39 98 l 2,44,45
 37 99 37 99 33.5 106 c 128,-1,46
 30 113 30 113 29 116 c 0,47,48
 24 152 24 152 21.5 193 c 128,-1,49
 19 234 19 234 18 275.5 c 128,-1,50
 17 317 17 317 18 356.5 c 128,-1,51
 19 396 19 396 20 429 c 1,0,1
76 267 m 1,52,53
 76 220 76 220 89.5 181 c 128,-1,54
 103 142 103 142 129 115 c 128,-1,55
 155 88 155 88 193.5 72.5 c 128,-1,56
 232 57 232 57 282 57 c 0,57,58
 299 57 299 57 318 63.5 c 128,-1,59
 337 70 337 70 353.5 81.5 c 128,-1,60
 370 93 370 93 380.5 109 c 128,-1,61
 391 125 391 125 391 144 c 0,62,63
 391 179 391 179 373.5 202 c 128,-1,64
 356 225 356 225 328.5 238.5 c 128,-1,65
 301 252 301 252 266 258 c 128,-1,66
 231 264 231 264 196 266.5 c 128,-1,67
 161 269 161 269 129.5 268 c 128,-1,68
 98 267 98 267 76 267 c 1,52,53
224 479 m 0,69,70
 174 479 174 479 145 472 c 128,-1,71
 116 465 116 465 100.5 446.5 c 128,-1,72
 85 428 85 428 80 396.5 c 128,-1,73
 75 365 75 365 75 318 c 1,74,75
 89 318 89 318 116.5 323.5 c 128,-1,76
 144 329 144 329 177 338.5 c 128,-1,77
 210 348 210 348 244.5 360.5 c 128,-1,78
 279 373 279 373 307 386.5 c 128,-1,79
 335 400 335 400 353 414.5 c 128,-1,80
 371 429 371 429 371 443 c 0,81,82
 371 450 371 450 362 456 c 128,-1,83
 353 462 353 462 338 466 c 128,-1,84
 323 470 323 470 305 472.5 c 128,-1,85
 287 475 287 475 270.5 476.5 c 128,-1,86
 254 478 254 478 241.5 478.5 c 128,-1,87
 229 479 229 479 224 479 c 0,69,70
EndSplineSet
EndChar

StartChar: C
Encoding: 67 67 38
Width: 526
Flags: W
LayerCount: 2
Fore
SplineSet
8 200 m 256,0,1
 8 239 8 239 28 269 c 128,-1,2
 48 299 48 299 79 321.5 c 128,-1,3
 110 344 110 344 150 359 c 128,-1,4
 190 374 190 374 230 383 c 128,-1,5
 270 392 270 392 307.5 395.5 c 128,-1,6
 345 399 345 399 372 399 c 0,7,8
 383 399 383 399 392 391 c 128,-1,9
 401 383 401 383 401 371 c 0,10,11
 401 360 401 360 398.5 351.5 c 128,-1,12
 396 343 396 343 389 331 c 1,13,14
 368 334 368 334 336 334 c 128,-1,15
 304 334 304 334 269.5 330 c 128,-1,16
 235 326 235 326 201 316.5 c 128,-1,17
 167 307 167 307 139 290.5 c 128,-1,18
 111 274 111 274 94 251 c 128,-1,19
 77 228 77 228 77 195 c 0,20,21
 77 165 77 165 87 143.5 c 128,-1,22
 97 122 97 122 114 106.5 c 128,-1,23
 131 91 131 91 153 81.5 c 128,-1,24
 175 72 175 72 199.5 66.5 c 128,-1,25
 224 61 224 61 249 59 c 128,-1,26
 274 57 274 57 297 57 c 0,27,28
 323 57 323 57 348.5 58 c 128,-1,29
 374 59 374 59 398 62 c 128,-1,30
 422 65 422 65 447 70.5 c 128,-1,31
 472 76 472 76 496 88 c 1,32,33
 507 85 507 85 507.5 77.5 c 128,-1,34
 508 70 508 70 508 62 c 0,35,36
 508 43 508 43 495.5 31 c 128,-1,37
 483 19 483 19 462.5 12 c 128,-1,38
 442 5 442 5 417 2 c 128,-1,39
 392 -1 392 -1 368 -1.5 c 128,-1,40
 344 -2 344 -2 323.5 -1.5 c 128,-1,41
 303 -1 303 -1 292 -1 c 0,42,43
 262 -1 262 -1 228.5 3.5 c 128,-1,44
 195 8 195 8 164 17 c 128,-1,45
 133 26 133 26 104.5 41.5 c 128,-1,46
 76 57 76 57 55 79 c 128,-1,47
 34 101 34 101 21 131 c 128,-1,48
 8 161 8 161 8 200 c 256,0,1
EndSplineSet
EndChar

StartChar: D
Encoding: 68 68 39
Width: 439
Flags: W
LayerCount: 2
Fore
SplineSet
20 148 m 0,0,1
 20 179 20 179 20 212.5 c 128,-1,2
 20 246 20 246 23 280 c 128,-1,3
 26 314 26 314 31.5 346 c 128,-1,4
 37 378 37 378 49 409 c 1,5,6
 37 405 37 405 31 407 c 128,-1,7
 25 409 25 409 22 414 c 128,-1,8
 19 419 19 419 18.5 425.5 c 128,-1,9
 18 432 18 432 18 437 c 0,10,11
 18 450 18 450 22 456 c 128,-1,12
 26 462 26 462 33 464.5 c 128,-1,13
 40 467 40 467 49.5 467.5 c 128,-1,14
 59 468 59 468 69 468 c 0,15,16
 105 468 105 468 144.5 462 c 128,-1,17
 184 456 184 456 223 443.5 c 128,-1,18
 262 431 262 431 297 411.5 c 128,-1,19
 332 392 332 392 359.5 364.5 c 128,-1,20
 387 337 387 337 403 303 c 128,-1,21
 419 269 419 269 419 225 c 0,22,23
 419 172 419 172 398 130 c 128,-1,24
 377 88 377 88 341.5 59.5 c 128,-1,25
 306 31 306 31 259 15 c 128,-1,26
 212 -1 212 -1 162 -1 c 0,27,28
 130 -1 130 -1 103.5 10 c 128,-1,29
 77 21 77 21 58 40.5 c 128,-1,30
 39 60 39 60 29.5 88 c 128,-1,31
 20 116 20 116 20 148 c 0,0,1
88 88 m 1,32,33
 95 76 95 76 108 70 c 128,-1,34
 121 64 121 64 135 61 c 128,-1,35
 149 58 149 58 163.5 57.5 c 128,-1,36
 178 57 178 57 190 57 c 0,37,38
 224 57 224 57 255.5 69.5 c 128,-1,39
 287 82 287 82 311 104 c 128,-1,40
 335 126 335 126 348.5 156.5 c 128,-1,41
 362 187 362 187 362 222 c 0,42,43
 362 250 362 250 350 274.5 c 128,-1,44
 338 299 338 299 318.5 320 c 128,-1,45
 299 341 299 341 273.5 357.5 c 128,-1,46
 248 374 248 374 220 385.5 c 128,-1,47
 192 397 192 397 164 403 c 128,-1,48
 136 409 136 409 110 409 c 2,49,-1
 107 409 l 1,50,51
 92 394 92 394 85.5 368.5 c 128,-1,52
 79 343 79 343 77.5 314.5 c 128,-1,53
 76 286 76 286 77 258.5 c 128,-1,54
 78 231 78 231 78 214 c 2,55,-1
 78 195 l 2,56,57
 78 189 78 189 79.5 173.5 c 128,-1,58
 81 158 81 158 82 140.5 c 128,-1,59
 83 123 83 123 85 108 c 128,-1,60
 87 93 87 93 88 88 c 1,32,33
EndSplineSet
EndChar

StartChar: E
Encoding: 69 69 40
Width: 467
Flags: W
LayerCount: 2
Fore
SplineSet
8 140 m 0,0,1
 8 195 8 195 15 255.5 c 128,-1,2
 22 316 22 316 29 371 c 0,3,4
 31 390 31 390 49 403.5 c 128,-1,5
 67 417 67 417 94 426 c 128,-1,6
 121 435 121 435 153.5 440 c 128,-1,7
 186 445 186 445 217.5 447 c 128,-1,8
 249 449 249 449 277 449.5 c 128,-1,9
 305 450 305 450 322 450 c 0,10,11
 328 450 328 450 339 450 c 128,-1,12
 350 450 350 450 363 450.5 c 128,-1,13
 376 451 376 451 390 450 c 128,-1,14
 404 449 404 449 414.5 445.5 c 128,-1,15
 425 442 425 442 432 435 c 128,-1,16
 439 428 439 428 439 417 c 0,17,18
 439 410 439 410 435.5 404.5 c 128,-1,19
 432 399 432 399 419 399 c 1,20,21
 335 409 335 409 251 396.5 c 128,-1,22
 167 384 167 384 88 360 c 1,23,24
 88 358 88 358 88 350 c 2,25,-1
 88 322 l 2,26,27
 88 314 88 314 88 312 c 256,28,29
 88 310 88 310 86 304.5 c 128,-1,30
 84 299 84 299 82.5 292.5 c 128,-1,31
 81 286 81 286 79 280 c 128,-1,32
 77 274 77 274 77 273 c 0,33,34
 77 271 77 271 81 267.5 c 128,-1,35
 85 264 85 264 88 263 c 1,36,-1
 98 263 l 2,37,38
 103 263 103 263 121 264.5 c 128,-1,39
 139 266 139 266 163 268.5 c 128,-1,40
 187 271 187 271 214 273 c 128,-1,41
 241 275 241 275 265 277 c 128,-1,42
 289 279 289 279 307.5 280 c 128,-1,43
 326 281 326 281 331 282 c 1,44,-1
 335 282 l 2,45,46
 339 282 339 282 343.5 282.5 c 128,-1,47
 348 283 348 283 351 283 c 2,48,-1
 358 283 l 2,49,50
 376 283 376 283 383.5 279.5 c 128,-1,51
 391 276 391 276 391 257 c 0,52,53
 391 241 391 241 377 234.5 c 128,-1,54
 363 228 363 228 340.5 225.5 c 128,-1,55
 318 223 318 223 289 223.5 c 128,-1,56
 260 224 260 224 230 224.5 c 128,-1,57
 200 225 200 225 170.5 223 c 128,-1,58
 141 221 141 221 118.5 214 c 128,-1,59
 96 207 96 207 82.5 192 c 128,-1,60
 69 177 69 177 69 151 c 0,61,62
 69 116 69 116 82 95 c 128,-1,63
 95 74 95 74 117 62.5 c 128,-1,64
 139 51 139 51 167 47 c 128,-1,65
 195 43 195 43 224.5 43.5 c 128,-1,66
 254 44 254 44 284 46 c 128,-1,67
 314 48 314 48 340 48 c 0,68,69
 364 48 364 48 383.5 53.5 c 128,-1,70
 403 59 403 59 424 59 c 0,71,72
 430 59 430 59 433.5 55.5 c 128,-1,73
 437 52 437 52 438 47 c 128,-1,74
 439 42 439 42 439 37 c 2,75,-1
 439 28 l 2,76,77
 439 16 439 16 437 8 c 128,-1,78
 435 0 435 0 419 0 c 2,79,-1
 136 0 l 2,80,81
 103 0 103 0 78.5 10.5 c 128,-1,82
 54 21 54 21 39 40 c 128,-1,83
 24 59 24 59 16 84.5 c 128,-1,84
 8 110 8 110 8 140 c 0,0,1
EndSplineSet
EndChar

StartChar: F
Encoding: 70 70 41
Width: 448
Flags: W
LayerCount: 2
Fore
SplineSet
49 175 m 1,0,1
 33 180 33 180 26 187.5 c 128,-1,2
 19 195 19 195 19 210 c 0,3,4
 19 219 19 219 22 223 c 128,-1,5
 25 227 25 227 29.5 229.5 c 128,-1,6
 34 232 34 232 39 234.5 c 128,-1,7
 44 237 44 237 49 243 c 1,8,9
 49 250 49 250 51 267 c 128,-1,10
 53 284 53 284 54 302 c 128,-1,11
 55 320 55 320 56.5 337 c 128,-1,12
 58 354 58 354 59 360 c 0,13,14
 59 361 59 361 58.5 364.5 c 128,-1,15
 58 368 58 368 58 372 c 128,-1,16
 58 376 58 376 57.5 379 c 128,-1,17
 57 382 57 382 57 383 c 1,18,19
 54 383 54 383 47.5 382 c 128,-1,20
 41 381 41 381 35 381 c 128,-1,21
 29 381 29 381 24.5 383.5 c 128,-1,22
 20 386 20 386 20 394 c 0,23,24
 20 404 20 404 25.5 414 c 128,-1,25
 31 424 31 424 39 429 c 1,26,27
 82 440 82 440 125.5 446 c 128,-1,28
 169 452 169 452 213.5 454.5 c 128,-1,29
 258 457 258 457 301.5 457 c 128,-1,30
 345 457 345 457 388 457 c 0,31,32
 404 457 404 457 416.5 452.5 c 128,-1,33
 429 448 429 448 429 429 c 0,34,35
 429 418 429 418 425.5 411.5 c 128,-1,36
 422 405 422 405 409 399 c 1,37,38
 397 399 397 399 367 399.5 c 128,-1,39
 337 400 337 400 302.5 400 c 128,-1,40
 268 400 268 400 237.5 399.5 c 128,-1,41
 207 399 207 399 195 399 c 0,42,43
 186 399 186 399 172.5 397.5 c 128,-1,44
 159 396 159 396 146.5 395 c 128,-1,45
 134 394 134 394 125 392 c 128,-1,46
 116 390 116 390 116 389 c 2,47,-1
 116 235 l 1,48,-1
 350 214 l 2,49,50
 357 213 357 213 361.5 207.5 c 128,-1,51
 366 202 366 202 369.5 196 c 128,-1,52
 373 190 373 190 374.5 182 c 128,-1,53
 376 174 376 174 376 170 c 1,54,-1
 107 170 l 1,55,-1
 107 -8 l 1,56,57
 86 -8 86 -8 73 1.5 c 128,-1,58
 60 11 60 11 53.5 26.5 c 128,-1,59
 47 42 47 42 45 62 c 128,-1,60
 43 82 43 82 43.5 102 c 128,-1,61
 44 122 44 122 46 141.5 c 128,-1,62
 48 161 48 161 49 175 c 1,0,1
EndSplineSet
EndChar

StartChar: G
Encoding: 71 71 42
Width: 536
Flags: W
LayerCount: 2
Fore
SplineSet
439 29 m 1,0,1
 404 16 404 16 379.5 8 c 128,-1,2
 355 0 355 0 334.5 -4 c 128,-1,3
 314 -8 314 -8 293 -9 c 128,-1,4
 272 -10 272 -10 243 -10 c 0,5,6
 200 -10 200 -10 158 2 c 128,-1,7
 116 14 116 14 82.5 38.5 c 128,-1,8
 49 63 49 63 28.5 101 c 128,-1,9
 8 139 8 139 8 190 c 0,10,11
 8 231 8 231 27.5 264 c 128,-1,12
 47 297 47 297 78.5 321 c 128,-1,13
 110 345 110 345 150 362.5 c 128,-1,14
 190 380 190 380 232 390 c 128,-1,15
 274 400 274 400 314 405 c 128,-1,16
 354 410 354 410 385 410 c 2,17,-1
 394 410 l 2,18,19
 399 410 399 410 406.5 409.5 c 128,-1,20
 414 409 414 409 420 409 c 2,21,-1
 429 409 l 2,22,23
 430 409 430 409 433 406.5 c 128,-1,24
 436 404 436 404 439 400.5 c 128,-1,25
 442 397 442 397 444.5 394 c 128,-1,26
 447 391 447 391 448 389 c 0,27,28
 448 388 448 388 449 388 c 1,29,-1
 449 386 l 1,30,-1
 450 385 l 2,31,32
 450 384 450 384 449.5 383.5 c 128,-1,33
 449 383 449 383 449 382 c 0,34,35
 448 381 448 381 448 380 c 0,36,37
 447 378 447 378 444.5 375 c 128,-1,38
 442 372 442 372 439 368.5 c 128,-1,39
 436 365 436 365 433 362.5 c 128,-1,40
 430 360 430 360 429 360 c 0,41,42
 404 359 404 359 368 356 c 128,-1,43
 332 353 332 353 293 345.5 c 128,-1,44
 254 338 254 338 215.5 326.5 c 128,-1,45
 177 315 177 315 146.5 297 c 128,-1,46
 116 279 116 279 96.5 253.5 c 128,-1,47
 77 228 77 228 77 192 c 0,48,49
 77 161 77 161 88.5 134.5 c 128,-1,50
 100 108 100 108 119.5 87.5 c 128,-1,51
 139 67 139 67 166 54.5 c 128,-1,52
 193 42 193 42 224 39 c 0,53,54
 245 37 245 37 273.5 39.5 c 128,-1,55
 302 42 302 42 331 48.5 c 128,-1,56
 360 55 360 55 385.5 65 c 128,-1,57
 411 75 411 75 429 88 c 1,58,59
 434 93 434 93 439.5 101.5 c 128,-1,60
 445 110 445 110 451 118 c 128,-1,61
 457 126 457 126 463.5 132.5 c 128,-1,62
 470 139 470 139 478 139 c 0,63,64
 491 139 491 139 499 130 c 128,-1,65
 507 121 507 121 516 107 c 1,66,-1
 516 103 l 2,67,68
 516 68 516 68 515 40.5 c 128,-1,69
 514 13 514 13 512.5 -11.5 c 128,-1,70
 511 -36 511 -36 509.5 -59 c 128,-1,71
 508 -82 508 -82 507 -107.5 c 128,-1,72
 506 -133 506 -133 506 -164 c 128,-1,73
 506 -195 506 -195 507 -234 c 1,74,75
 504 -240 504 -240 497 -243.5 c 128,-1,76
 490 -247 490 -247 482 -249.5 c 128,-1,77
 474 -252 474 -252 467 -252.5 c 128,-1,78
 460 -253 460 -253 458 -253 c 0,79,80
 454 -253 454 -253 446.5 -250 c 128,-1,81
 439 -247 439 -247 439 -244 c 2,82,-1
 439 29 l 1,0,1
EndSplineSet
EndChar

StartChar: H
Encoding: 72 72 43
Width: 478
Flags: W
LayerCount: 2
Fore
SplineSet
69 185 m 2,0,1
 69 182 69 182 70.5 170.5 c 128,-1,2
 72 159 72 159 73.5 146 c 128,-1,3
 75 133 75 133 76 121.5 c 128,-1,4
 77 110 77 110 77 107 c 2,5,-1
 77 95 l 2,6,7
 77 88 77 88 74 85 c 128,-1,8
 71 82 71 82 65.5 79.5 c 128,-1,9
 60 77 60 77 54.5 77 c 128,-1,10
 49 77 49 77 44 77 c 0,11,12
 25 77 25 77 19.5 87.5 c 128,-1,13
 14 98 14 98 9 116 c 1,14,-1
 9 133 l 2,15,16
 9 146 9 146 8.5 160 c 128,-1,17
 8 174 8 174 8 187 c 2,18,-1
 8 205 l 2,19,20
 8 238 8 238 8.5 265 c 128,-1,21
 9 292 9 292 10 318.5 c 128,-1,22
 11 345 11 345 13.5 373 c 128,-1,23
 16 401 16 401 20 439 c 1,24,25
 19 446 19 446 20.5 450.5 c 128,-1,26
 22 455 22 455 25.5 456.5 c 128,-1,27
 29 458 29 458 34 458.5 c 128,-1,28
 39 459 39 459 43 459 c 0,29,30
 49 459 49 459 57 458 c 128,-1,31
 65 457 65 457 69 448 c 1,32,33
 75 406 75 406 77.5 365.5 c 128,-1,34
 80 325 80 325 77 282 c 1,35,-1
 88 273 l 1,36,-1
 368 273 l 1,37,38
 368 294 368 294 369 307 c 128,-1,39
 370 320 370 320 370.5 328.5 c 128,-1,40
 371 337 371 337 371 344 c 128,-1,41
 371 351 371 351 370 360.5 c 128,-1,42
 369 370 369 370 367 383 c 128,-1,43
 365 396 365 396 360 419 c 1,44,45
 363 428 363 428 371 428.5 c 128,-1,46
 379 429 379 429 386 429 c 0,47,48
 396 429 396 429 404.5 414 c 128,-1,49
 413 399 413 399 420 373.5 c 128,-1,50
 427 348 427 348 433 314 c 128,-1,51
 439 280 439 280 443 243.5 c 128,-1,52
 447 207 447 207 450.5 170 c 128,-1,53
 454 133 454 133 456 100 c 128,-1,54
 458 67 458 67 459 40.5 c 128,-1,55
 460 14 460 14 460 0 c 1,56,-1
 419 0 l 2,57,58
 417 0 417 0 413.5 11 c 128,-1,59
 410 22 410 22 405.5 37.5 c 128,-1,60
 401 53 401 53 396.5 69.5 c 128,-1,61
 392 86 392 86 389 98 c 0,62,63
 388 101 388 101 387 115.5 c 128,-1,64
 386 130 386 130 384.5 146 c 128,-1,65
 383 162 383 162 382 176.5 c 128,-1,66
 381 191 381 191 380 195 c 256,67,68
 379 199 379 199 375 206.5 c 128,-1,69
 371 214 371 214 371 214 c 1,70,-1
 77 214 l 1,71,72
 77 214 77 214 73.5 206.5 c 128,-1,73
 70 199 70 199 69 195 c 1,74,-1
 69 185 l 2,0,1
EndSplineSet
EndChar

StartChar: I
Encoding: 73 73 44
Width: 127
Flags: W
LayerCount: 2
Fore
SplineSet
8 337 m 2,0,1
 8 349 8 349 8 365 c 128,-1,2
 8 381 8 381 11 395.5 c 128,-1,3
 14 410 14 410 21.5 419.5 c 128,-1,4
 29 429 29 429 46 429 c 0,5,6
 54 429 54 429 59.5 415 c 128,-1,7
 65 401 65 401 68 378.5 c 128,-1,8
 71 356 71 356 73 329 c 128,-1,9
 75 302 75 302 75.5 277 c 128,-1,10
 76 252 76 252 76.5 232 c 128,-1,11
 77 212 77 212 77 205 c 0,12,13
 79 179 79 179 84.5 152.5 c 128,-1,14
 90 126 90 126 95.5 99 c 128,-1,15
 101 72 101 72 105.5 46 c 128,-1,16
 110 20 110 20 110 -4 c 1,17,18
 75 -4 75 -4 54 11 c 128,-1,19
 33 26 33 26 22.5 51 c 128,-1,20
 12 76 12 76 9 108.5 c 128,-1,21
 6 141 6 141 7 174.5 c 128,-1,22
 8 208 8 208 9.5 241.5 c 128,-1,23
 11 275 11 275 9 302 c 1,24,-1
 9 307 l 2,25,26
 9 312 9 312 8.5 317 c 128,-1,27
 8 322 8 322 8 327 c 2,28,-1
 8 337 l 2,0,1
EndSplineSet
EndChar

StartChar: J
Encoding: 74 74 45
Width: 565
Flags: W
LayerCount: 2
Fore
SplineSet
78 136 m 0,0,1
 78 142 78 142 80 153 c 128,-1,2
 82 164 82 164 86 174 c 128,-1,3
 90 184 90 184 96.5 192 c 128,-1,4
 103 200 103 200 113 200 c 1,5,6
 113 168 113 168 119.5 140.5 c 128,-1,7
 126 113 126 113 141 92 c 128,-1,8
 156 71 156 71 181 59 c 128,-1,9
 206 47 206 47 243 47 c 0,10,11
 257 47 257 47 270.5 48.5 c 128,-1,12
 284 50 284 50 297 54.5 c 128,-1,13
 310 59 310 59 321 67 c 128,-1,14
 332 75 332 75 342 88 c 1,15,16
 342 91 342 91 342.5 99.5 c 128,-1,17
 343 108 343 108 343 117 c 128,-1,18
 343 126 343 126 343.5 134.5 c 128,-1,19
 344 143 344 143 344 146 c 0,20,21
 344 176 344 176 342 199.5 c 128,-1,22
 340 223 340 223 334.5 246 c 128,-1,23
 329 269 329 269 319 293.5 c 128,-1,24
 309 318 309 318 292 350 c 1,25,-1
 292 389 l 1,26,-1
 16 389 l 1,27,-1
 16 398 l 2,28,29
 16 404 16 404 17.5 410 c 128,-1,30
 19 416 19 416 21.5 422 c 128,-1,31
 24 428 24 428 29 429 c 1,32,33
 35 429 35 429 50 432 c 128,-1,34
 65 435 65 435 82 438 c 128,-1,35
 99 441 99 441 114.5 444 c 128,-1,36
 130 447 130 447 136 448 c 1,37,-1
 156 448 l 1,38,39
 170 447 170 447 200 446.5 c 128,-1,40
 230 446 230 446 267.5 445.5 c 128,-1,41
 305 445 305 445 346.5 443.5 c 128,-1,42
 388 442 388 442 425 441 c 128,-1,43
 462 440 462 440 492 439.5 c 128,-1,44
 522 439 522 439 536 439 c 1,45,46
 544 435 544 435 545.5 430 c 128,-1,47
 547 425 547 425 547 419 c 0,48,49
 547 409 547 409 537.5 399 c 128,-1,50
 528 389 528 389 516 389 c 2,51,-1
 371 389 l 2,52,53
 355 389 355 389 352.5 383 c 128,-1,54
 350 377 350 377 350 365 c 0,55,56
 350 337 350 337 358.5 309 c 128,-1,57
 367 281 367 281 377.5 253 c 128,-1,58
 388 225 388 225 397.5 196 c 128,-1,59
 407 167 407 167 409 136 c 0,60,61
 411 98 411 98 396 72 c 128,-1,62
 381 46 381 46 355.5 30 c 128,-1,63
 330 14 330 14 297.5 6.5 c 128,-1,64
 265 -1 265 -1 234 -1 c 0,65,66
 205 -1 205 -1 177.5 8.5 c 128,-1,67
 150 18 150 18 127.5 36 c 128,-1,68
 105 54 105 54 91.5 79.5 c 128,-1,69
 78 105 78 105 78 136 c 0,0,1
EndSplineSet
EndChar

StartChar: K
Encoding: 75 75 46
Width: 536
Flags: W
LayerCount: 2
Fore
SplineSet
9 371 m 0,0,1
 9 378 9 378 9.5 389.5 c 128,-1,2
 10 401 10 401 12.5 412 c 128,-1,3
 15 423 15 423 21 431 c 128,-1,4
 27 439 27 439 39 439 c 0,5,6
 52 439 52 439 58.5 433 c 128,-1,7
 65 427 65 427 67 418 c 128,-1,8
 69 409 69 409 68.5 398.5 c 128,-1,9
 68 388 68 388 69 380 c 0,10,11
 69 372 69 372 70 352.5 c 128,-1,12
 71 333 71 333 72.5 311.5 c 128,-1,13
 74 290 74 290 75.5 270.5 c 128,-1,14
 77 251 77 251 77 243 c 1,15,-1
 88 243 l 1,16,-1
 243 322 l 1,17,18
 253 334 253 334 266 344.5 c 128,-1,19
 279 355 279 355 291.5 365.5 c 128,-1,20
 304 376 304 376 317 386.5 c 128,-1,21
 330 397 330 397 341 409 c 1,22,-1
 371 409 l 1,23,-1
 371 371 l 2,24,25
 371 365 371 365 358 352.5 c 128,-1,26
 345 340 345 340 328.5 326 c 128,-1,27
 312 312 312 312 296 299 c 128,-1,28
 280 286 280 286 273 282 c 0,29,30
 267 279 267 279 251.5 270.5 c 128,-1,31
 236 262 236 262 219 252.5 c 128,-1,32
 202 243 202 243 187 235 c 128,-1,33
 172 227 172 227 166 224 c 1,34,-1
 439 77 l 1,35,36
 443 77 443 77 457.5 76 c 128,-1,37
 472 75 472 75 487.5 71 c 128,-1,38
 503 67 503 67 515 59.5 c 128,-1,39
 527 52 527 52 527 39 c 0,40,41
 527 33 527 33 525.5 28 c 128,-1,42
 524 23 524 23 516 20 c 1,43,44
 513 20 513 20 507 19.5 c 128,-1,45
 501 19 501 19 494.5 19 c 128,-1,46
 488 19 488 19 481.5 19 c 128,-1,47
 475 19 475 19 473 19 c 0,48,49
 438 19 438 19 406.5 29.5 c 128,-1,50
 375 40 375 40 344.5 56.5 c 128,-1,51
 314 73 314 73 285.5 92 c 128,-1,52
 257 111 257 111 227 127.5 c 128,-1,53
 197 144 197 144 165 155.5 c 128,-1,54
 133 167 133 167 98 167 c 0,55,56
 96 167 96 167 92 166.5 c 128,-1,57
 88 166 88 166 88 166 c 1,58,59
 86 157 86 157 87 141.5 c 128,-1,60
 88 126 88 126 88 107.5 c 128,-1,61
 88 89 88 89 86.5 69.5 c 128,-1,62
 85 50 85 50 80.5 34.5 c 128,-1,63
 76 19 76 19 67 8.5 c 128,-1,64
 58 -2 58 -2 43 -2 c 0,65,66
 29 -2 29 -2 25 3 c 128,-1,67
 21 8 21 8 20 29 c 0,68,69
 20 33 20 33 19.5 43.5 c 128,-1,70
 19 54 19 54 19 68 c 2,71,-1
 19 98 l 2,72,73
 19 113 19 113 19.5 127 c 128,-1,74
 20 141 20 141 20 151 c 2,75,-1
 20 166 l 2,76,77
 20 171 20 171 19 186.5 c 128,-1,78
 18 202 18 202 16.5 223 c 128,-1,79
 15 244 15 244 14 268 c 128,-1,80
 13 292 13 292 12 313 c 128,-1,81
 11 334 11 334 10 349.5 c 128,-1,82
 9 365 9 365 9 371 c 0,0,1
EndSplineSet
EndChar

StartChar: L
Encoding: 76 76 47
Width: 565
Flags: W
LayerCount: 2
Fore
SplineSet
20 49 m 1,0,-1
 20 72 l 2,1,2
 20 90 20 90 19.5 109 c 128,-1,3
 19 128 19 128 19 146 c 2,4,-1
 19 201 l 2,5,6
 19 222 19 222 19.5 241.5 c 128,-1,7
 20 261 20 261 20 275 c 2,8,-1
 20 321 l 2,9,10
 20 337 20 337 21.5 352 c 128,-1,11
 23 367 23 367 27 381.5 c 128,-1,12
 31 396 31 396 39 409 c 0,13,14
 44 416 44 416 47 417.5 c 128,-1,15
 50 419 50 419 59 419 c 0,16,17
 63 419 63 419 70.5 417.5 c 128,-1,18
 78 416 78 416 78 409 c 2,19,-1
 78 98 l 2,20,21
 78 81 78 81 89 73 c 128,-1,22
 100 65 100 65 115.5 62 c 128,-1,23
 131 59 131 59 147 59 c 2,24,-1
 174 59 l 2,25,26
 218 59 218 59 263 62 c 128,-1,27
 308 65 308 65 352 68.5 c 128,-1,28
 396 72 396 72 440.5 74.5 c 128,-1,29
 485 77 485 77 530 77 c 2,30,-1
 541 77 l 2,31,32
 547 77 547 77 549.5 75 c 128,-1,33
 552 73 552 73 553.5 67 c 128,-1,34
 555 61 555 61 555 49 c 0,35,36
 555 46 555 46 550.5 42.5 c 128,-1,37
 546 39 546 39 541 37 c 0,38,39
 534 33 534 33 526 29 c 1,40,41
 513 28 513 28 484.5 25.5 c 128,-1,42
 456 23 456 23 420.5 20 c 128,-1,43
 385 17 385 17 346 14 c 128,-1,44
 307 11 307 11 271 8 c 128,-1,45
 235 5 235 5 207 3 c 128,-1,46
 179 1 179 1 166 0 c 1,47,-1
 116 0 l 2,48,49
 95 0 95 0 76.5 4 c 128,-1,50
 58 8 58 8 43 18.5 c 128,-1,51
 28 29 28 29 20 49 c 1,0,-1
EndSplineSet
EndChar

StartChar: M
Encoding: 77 77 48
Width: 594
Flags: W
LayerCount: 2
Fore
SplineSet
507 29 m 1,0,1
 506 38 506 38 504.5 56.5 c 128,-1,2
 503 75 503 75 501.5 98 c 128,-1,3
 500 121 500 121 498 146.5 c 128,-1,4
 496 172 496 172 493.5 195 c 128,-1,5
 491 218 491 218 489.5 236 c 128,-1,6
 488 254 488 254 487 263 c 0,7,8
 487 266 487 266 486 273.5 c 128,-1,9
 485 281 485 281 482.5 289.5 c 128,-1,10
 480 298 480 298 475 305 c 128,-1,11
 470 312 470 312 462 312 c 0,12,13
 447 312 447 312 426 306 c 128,-1,14
 405 300 405 300 382.5 293 c 128,-1,15
 360 286 360 286 338.5 281 c 128,-1,16
 317 276 317 276 299 276 c 0,17,18
 263 276 263 276 235 289 c 128,-1,19
 207 302 207 302 181.5 317 c 128,-1,20
 156 332 156 332 129.5 345 c 128,-1,21
 103 358 103 358 70 358 c 1,22,23
 70 299 70 299 74.5 243 c 128,-1,24
 79 187 79 187 79 130 c 0,25,26
 79 125 79 125 78.5 117.5 c 128,-1,27
 78 110 78 110 78 104 c 0,28,29
 77 96 77 96 77 88 c 1,30,-1
 29 59 l 1,31,-1
 20 67 l 2,32,33
 19 68 19 68 18.5 79 c 128,-1,34
 18 90 18 90 17 108 c 128,-1,35
 16 126 16 126 15 148 c 128,-1,36
 14 170 14 170 12.5 192.5 c 128,-1,37
 11 215 11 215 10.5 236.5 c 128,-1,38
 10 258 10 258 9 273 c 1,39,-1
 9 285 l 2,40,41
 9 296 9 296 8.5 309.5 c 128,-1,42
 8 323 8 323 8 337 c 2,43,-1
 8 378 l 2,44,45
 8 391 8 391 8.5 405 c 128,-1,46
 9 419 9 419 9 431 c 2,47,-1
 9 448 l 1,48,49
 11 457 11 457 19 458 c 128,-1,50
 27 459 27 459 34 459 c 0,51,52
 35 459 35 459 41.5 458 c 128,-1,53
 48 457 48 457 49 457 c 0,54,55
 83 433 83 433 113.5 411 c 128,-1,56
 144 389 144 389 175.5 372.5 c 128,-1,57
 207 356 207 356 241 346 c 128,-1,58
 275 336 275 336 317 336 c 1,59,60
 338 329 338 329 362 336.5 c 128,-1,61
 386 344 386 344 409 357.5 c 128,-1,62
 432 371 432 371 452.5 386 c 128,-1,63
 473 401 473 401 487 410 c 1,64,65
 497 410 497 410 505.5 404 c 128,-1,66
 514 398 514 398 521 389 c 128,-1,67
 528 380 528 380 531.5 370 c 128,-1,68
 535 360 535 360 536 350 c 0,69,70
 536 340 536 340 538.5 319.5 c 128,-1,71
 541 299 541 299 544 273 c 2,72,-1
 556 164 l 2,73,74
 559 139 559 139 561.5 118 c 128,-1,75
 564 97 564 97 565 88 c 0,76,77
 566 78 566 78 569 70 c 2,78,-1
 576 52 l 2,79,80
 580 44 580 44 583 35 c 128,-1,81
 586 26 586 26 586 19 c 0,82,83
 586 11 586 11 580.5 7 c 128,-1,84
 575 3 575 3 568.5 1 c 128,-1,85
 562 -1 562 -1 553 -1 c 2,86,-1
 540 -1 l 2,87,88
 525 -1 525 -1 518.5 6.5 c 128,-1,89
 512 14 512 14 507 29 c 1,0,1
EndSplineSet
EndChar

StartChar: N
Encoding: 78 78 49
Width: 623
Flags: W
LayerCount: 2
Fore
SplineSet
9 195 m 1,0,1
 14 204 14 204 19 221 c 128,-1,2
 24 238 24 238 27.5 259 c 128,-1,3
 31 280 31 280 36 301.5 c 128,-1,4
 41 323 41 323 46.5 341 c 128,-1,5
 52 359 52 359 59.5 370 c 128,-1,6
 67 381 67 381 77 381 c 0,7,8
 79 381 79 381 83 380.5 c 128,-1,9
 87 380 87 380 88 380 c 0,10,11
 184 298 184 298 292.5 232.5 c 128,-1,12
 401 167 401 167 516 116 c 0,13,14
 518 116 518 116 521 116 c 128,-1,15
 524 116 524 116 526 116 c 0,16,17
 532 116 532 116 537 117 c 128,-1,18
 542 118 542 118 546 127 c 1,19,20
 533 156 533 156 522.5 193 c 128,-1,21
 512 230 512 230 504 268 c 128,-1,22
 496 306 496 306 491 341.5 c 128,-1,23
 486 377 486 377 486 404 c 0,24,25
 486 408 486 408 487.5 415 c 128,-1,26
 489 422 489 422 491 429.5 c 128,-1,27
 493 437 493 437 497 442.5 c 128,-1,28
 501 448 501 448 507 448 c 0,29,30
 511 448 511 448 519 446.5 c 128,-1,31
 527 445 527 445 535.5 441 c 128,-1,32
 544 437 544 437 550 431.5 c 128,-1,33
 556 426 556 426 556 419 c 0,34,35
 556 408 556 408 551 397.5 c 128,-1,36
 546 387 546 387 546 376 c 2,37,-1
 546 371 l 2,38,39
 546 368 546 368 547.5 359 c 128,-1,40
 549 350 549 350 550.5 340.5 c 128,-1,41
 552 331 552 331 553 322.5 c 128,-1,42
 554 314 554 314 555 312 c 1,43,-1
 555 302 l 1,44,45
 562 278 562 278 571 249 c 128,-1,46
 580 220 580 220 587.5 189.5 c 128,-1,47
 595 159 595 159 600 127.5 c 128,-1,48
 605 96 605 96 605 67 c 0,49,50
 605 57 605 57 604 48.5 c 128,-1,51
 603 40 603 40 599.5 33 c 128,-1,52
 596 26 596 26 589 22.5 c 128,-1,53
 582 19 582 19 571 19 c 0,54,55
 559 19 559 19 547 23 c 128,-1,56
 535 27 535 27 524 34.5 c 128,-1,57
 513 42 513 42 504 50.5 c 128,-1,58
 495 59 495 59 487 67 c 1,59,-1
 107 273 l 1,60,-1
 103 273 l 1,61,-1
 103 274 l 1,62,63
 97 274 97 274 92.5 264.5 c 128,-1,64
 88 255 88 255 84.5 244 c 128,-1,65
 81 233 81 233 79 224 c 128,-1,66
 77 215 77 215 77 214 c 0,67,68
 77 210 77 210 78 200 c 128,-1,69
 79 190 79 190 80 175.5 c 128,-1,70
 81 161 81 161 82 145.5 c 128,-1,71
 83 130 83 130 84 116 c 128,-1,72
 85 102 85 102 86.5 91.5 c 128,-1,73
 88 81 88 81 88 77 c 2,74,-1
 88 9 l 1,75,76
 86 4 86 4 81.5 2 c 128,-1,77
 77 0 77 0 71.5 -1 c 128,-1,78
 66 -2 66 -2 60.5 -1.5 c 128,-1,79
 55 -1 55 -1 54 -1 c 0,80,81
 50 -1 50 -1 41 -0.5 c 128,-1,82
 32 0 32 0 29 0 c 1,83,-1
 9 195 l 1,0,1
EndSplineSet
EndChar

StartChar: O
Encoding: 79 79 50
Width: 496
Flags: W
LayerCount: 2
Fore
SplineSet
9 205 m 0,0,1
 9 233 9 233 20.5 259.5 c 128,-1,2
 32 286 32 286 51.5 309 c 128,-1,3
 71 332 71 332 96.5 350.5 c 128,-1,4
 122 369 122 369 150 382 c 128,-1,5
 178 395 178 395 206 402.5 c 128,-1,6
 234 410 234 410 259 410 c 0,7,8
 313 410 313 410 353.5 391.5 c 128,-1,9
 394 373 394 373 422 341 c 128,-1,10
 450 309 450 309 464.5 265 c 128,-1,11
 479 221 479 221 479 169 c 0,12,13
 479 83 479 83 429.5 41 c 128,-1,14
 380 -1 380 -1 289 -1 c 0,15,16
 263 -1 263 -1 232 5.5 c 128,-1,17
 201 12 201 12 170 24 c 128,-1,18
 139 36 139 36 110 53.5 c 128,-1,19
 81 71 81 71 59 93.5 c 128,-1,20
 37 116 37 116 23 144 c 128,-1,21
 9 172 9 172 9 205 c 0,0,1
77 203 m 0,22,23
 77 169 77 169 99.5 142 c 128,-1,24
 122 115 122 115 154.5 96 c 128,-1,25
 187 77 187 77 222.5 67 c 128,-1,26
 258 57 258 57 285 57 c 0,27,28
 317 57 317 57 344 62.5 c 128,-1,29
 371 68 371 68 391 81.5 c 128,-1,30
 411 95 411 95 423 118 c 128,-1,31
 435 141 435 141 439 175 c 1,32,33
 442 215 442 215 428.5 247.5 c 128,-1,34
 415 280 415 280 390 303 c 128,-1,35
 365 326 365 326 332 338 c 128,-1,36
 299 350 299 350 263 350 c 0,37,38
 235 350 235 350 202 339 c 128,-1,39
 169 328 169 328 141.5 308.5 c 128,-1,40
 114 289 114 289 95.5 262 c 128,-1,41
 77 235 77 235 77 203 c 0,22,23
EndSplineSet
EndChar

StartChar: P
Encoding: 80 80 51
Width: 399
Flags: W
LayerCount: 2
Fore
SplineSet
8 168 m 0,0,1
 8 178 8 178 8.5 198 c 128,-1,2
 9 218 9 218 11.5 241.5 c 128,-1,3
 14 265 14 265 17 289.5 c 128,-1,4
 20 314 20 314 25.5 334.5 c 128,-1,5
 31 355 31 355 40.5 368 c 128,-1,6
 50 381 50 381 63 381 c 0,7,8
 64 381 64 381 64.5 381 c 128,-1,9
 65 381 65 381 66 381 c 0,10,11
 67 380 67 380 69 380 c 1,12,13
 70 379 70 379 73 376.5 c 128,-1,14
 76 374 76 374 79 371 c 128,-1,15
 82 368 82 368 84.5 364.5 c 128,-1,16
 87 361 87 361 88 360 c 1,17,18
 79 341 79 341 75 329.5 c 128,-1,19
 71 318 71 318 69 310 c 128,-1,20
 67 302 67 302 68 296.5 c 128,-1,21
 69 291 69 291 70 283.5 c 128,-1,22
 71 276 71 276 72 264.5 c 128,-1,23
 73 253 73 253 73 235 c 1,24,25
 90 235 90 235 115.5 238 c 128,-1,26
 141 241 141 241 168.5 246.5 c 128,-1,27
 196 252 196 252 223.5 261 c 128,-1,28
 251 270 251 270 273 283.5 c 128,-1,29
 295 297 295 297 308.5 315 c 128,-1,30
 322 333 322 333 322 358 c 0,31,32
 322 373 322 373 304 384 c 128,-1,33
 286 395 286 395 258 402 c 128,-1,34
 230 409 230 409 196.5 412.5 c 128,-1,35
 163 416 163 416 131.5 417.5 c 128,-1,36
 100 419 100 419 74.5 419 c 128,-1,37
 49 419 49 419 39 419 c 1,38,39
 31 422 31 422 29.5 427.5 c 128,-1,40
 28 433 28 433 28 439 c 0,41,42
 28 450 28 450 32.5 456 c 128,-1,43
 37 462 37 462 49 467 c 1,44,45
 52 467 52 467 59.5 467 c 128,-1,46
 67 467 67 467 75.5 467 c 128,-1,47
 84 467 84 467 91.5 467.5 c 128,-1,48
 99 468 99 468 103 468 c 0,49,50
 131 468 131 468 153 467.5 c 128,-1,51
 175 467 175 467 197 464.5 c 128,-1,52
 219 462 219 462 244 458.5 c 128,-1,53
 269 455 269 455 302 448 c 1,54,55
 320 437 320 437 334.5 430.5 c 128,-1,56
 349 424 349 424 360 415.5 c 128,-1,57
 371 407 371 407 376 393.5 c 128,-1,58
 381 380 381 380 381 354 c 0,59,60
 381 320 381 320 364.5 295 c 128,-1,61
 348 270 348 270 322 251.5 c 128,-1,62
 296 233 296 233 262.5 220.5 c 128,-1,63
 229 208 229 208 194 199.5 c 128,-1,64
 159 191 159 191 126 185 c 128,-1,65
 93 179 93 179 69 175 c 1,66,-1
 69 141 l 2,67,68
 69 123 69 123 69.5 110 c 128,-1,69
 70 97 70 97 70.5 83.5 c 128,-1,70
 71 70 71 70 73 55 c 128,-1,71
 75 40 75 40 77 20 c 1,72,73
 72 11 72 11 63 5.5 c 128,-1,74
 54 0 54 0 44 0 c 0,75,76
 31 0 31 0 24 10.5 c 128,-1,77
 17 21 17 21 13 37.5 c 128,-1,78
 9 54 9 54 8 73.5 c 128,-1,79
 7 93 7 93 7.5 112 c 128,-1,80
 8 131 8 131 8 146 c 128,-1,81
 8 161 8 161 8 168 c 0,0,1
EndSplineSet
EndChar

StartChar: Q
Encoding: 81 81 52
Width: 516
Flags: W
LayerCount: 2
Fore
SplineSet
292 -20 m 1,0,1
 249 -17 249 -17 201.5 -8 c 128,-1,2
 154 1 154 1 113 21.5 c 128,-1,3
 72 42 72 42 45.5 75.5 c 128,-1,4
 19 109 19 109 19 161 c 0,5,6
 19 196 19 196 28 227 c 128,-1,7
 37 258 37 258 54 286 c 128,-1,8
 71 314 71 314 94.5 337 c 128,-1,9
 118 360 118 360 146 380 c 0,10,11
 148 381 148 381 153.5 383.5 c 128,-1,12
 159 386 159 386 166 390 c 128,-1,13
 173 394 173 394 178 396 c 2,14,-1
 185 399 l 2,15,16
 187 400 187 400 190.5 404 c 128,-1,17
 194 408 194 408 195 409 c 1,18,-1
 210 409 l 2,19,20
 222 409 222 409 234 409.5 c 128,-1,21
 246 410 246 410 258 410 c 2,22,-1
 273 410 l 2,23,24
 332 410 332 410 376.5 398 c 128,-1,25
 421 386 421 386 450 359 c 128,-1,26
 479 332 479 332 493.5 288 c 128,-1,27
 508 244 508 244 508 179 c 0,28,29
 508 137 508 137 499 108.5 c 128,-1,30
 490 80 490 80 471 59 c 128,-1,31
 452 38 452 38 424.5 22.5 c 128,-1,32
 397 7 397 7 360 -9 c 1,33,34
 365 -26 365 -26 372.5 -40.5 c 128,-1,35
 380 -55 380 -55 388 -69 c 128,-1,36
 396 -83 396 -83 404 -97 c 128,-1,37
 412 -111 412 -111 419 -127 c 1,38,39
 411 -134 411 -134 404.5 -135.5 c 128,-1,40
 398 -137 398 -137 388 -137 c 0,41,42
 368 -137 368 -137 355.5 -121.5 c 128,-1,43
 343 -106 343 -106 333 -86 c 128,-1,44
 323 -66 323 -66 314 -47 c 128,-1,45
 305 -28 305 -28 292 -20 c 1,0,1
77 149 m 0,46,47
 77 116 77 116 98.5 94 c 128,-1,48
 120 72 120 72 151 60 c 128,-1,49
 182 48 182 48 215.5 42.5 c 128,-1,50
 249 37 249 37 274 37 c 1,51,52
 274 66 274 66 268.5 94 c 128,-1,53
 263 122 263 122 263 151 c 2,54,-1
 263 157 l 2,55,56
 263 162 263 162 263 168 c 128,-1,57
 263 174 263 174 263 178 c 2,58,-1
 263 185 l 2,59,60
 263 187 263 187 266 190 c 128,-1,61
 269 193 269 193 272 196.5 c 128,-1,62
 275 200 275 200 277.5 202 c 128,-1,63
 280 204 280 204 282 205 c 0,64,65
 297 207 297 207 303.5 197 c 128,-1,66
 310 187 310 187 313.5 170 c 128,-1,67
 317 153 317 153 318.5 131.5 c 128,-1,68
 320 110 320 110 322.5 92 c 128,-1,69
 325 74 325 74 330 61.5 c 128,-1,70
 335 49 335 49 345 49 c 0,71,72
 376 49 376 49 397 62.5 c 128,-1,73
 418 76 418 76 431.5 97 c 128,-1,74
 445 118 445 118 451.5 143.5 c 128,-1,75
 458 169 458 169 458 195 c 0,76,77
 458 244 458 244 447 278 c 128,-1,78
 436 312 436 312 413.5 332.5 c 128,-1,79
 391 353 391 353 357.5 362 c 128,-1,80
 324 371 324 371 279 371 c 0,81,82
 238 371 238 371 201 351 c 128,-1,83
 164 331 164 331 137 299 c 128,-1,84
 110 267 110 267 93.5 227 c 128,-1,85
 77 187 77 187 77 149 c 0,46,47
EndSplineSet
EndChar

StartChar: R
Encoding: 82 82 53
Width: 603
Flags: W
LayerCount: 2
Fore
SplineSet
82 156 m 1,0,-1
 82 49 l 2,1,2
 82 48 82 48 78.5 44 c 128,-1,3
 75 40 75 40 70 35.5 c 128,-1,4
 65 31 65 31 59 26 c 128,-1,5
 53 21 53 21 49 20 c 0,6,7
 47 19 47 19 45 19 c 0,8,9
 44 19 44 19 42 19 c 2,10,-1
 39 19 l 2,11,12
 33 19 33 19 28 20 c 128,-1,13
 23 21 23 21 20 29 c 1,14,-1
 20 44 l 2,15,16
 20 56 20 56 19.5 68.5 c 128,-1,17
 19 81 19 81 19 92 c 2,18,-1
 19 107 l 2,19,20
 19 190 19 190 31 253.5 c 128,-1,21
 43 317 43 317 76.5 363 c 128,-1,22
 110 409 110 409 169 435.5 c 128,-1,23
 228 462 228 462 322 467 c 1,24,25
 336 463 336 463 347 455 c 128,-1,26
 358 447 358 447 365.5 435.5 c 128,-1,27
 373 424 373 424 377 411.5 c 128,-1,28
 381 399 381 399 381 385 c 0,29,30
 381 359 381 359 367 336.5 c 128,-1,31
 353 314 353 314 332.5 294 c 128,-1,32
 312 274 312 274 287.5 257.5 c 128,-1,33
 263 241 263 241 242.5 228 c 128,-1,34
 222 215 222 215 208 204 c 128,-1,35
 194 193 194 193 194 185 c 0,36,37
 194 173 194 173 203 160 c 128,-1,38
 212 147 212 147 227 135 c 128,-1,39
 242 123 242 123 260 112.5 c 128,-1,40
 278 102 278 102 295.5 93 c 128,-1,41
 313 84 313 84 328 77.5 c 128,-1,42
 343 71 343 71 350 67 c 1,43,-1
 368 67 l 2,44,45
 381 67 381 67 395 67 c 128,-1,46
 409 67 409 67 421 67 c 2,47,-1
 439 67 l 2,48,49
 460 67 460 67 479.5 69 c 128,-1,50
 499 71 499 71 518 73.5 c 128,-1,51
 537 76 537 76 556.5 78 c 128,-1,52
 576 80 576 80 597 80 c 1,53,54
 597 59 597 59 585.5 45 c 128,-1,55
 574 31 574 31 556 22 c 128,-1,56
 538 13 538 13 515.5 8 c 128,-1,57
 493 3 493 3 471.5 1.5 c 128,-1,58
 450 0 450 0 429 0 c 2,59,-1
 399 0 l 2,60,61
 358 0 358 0 318.5 13 c 128,-1,62
 279 26 279 26 242.5 48 c 128,-1,63
 206 70 206 70 174 98 c 128,-1,64
 142 126 142 126 116 156 c 1,65,-1
 82 156 l 1,0,-1
97 252 m 0,66,67
 97 240 97 240 106.5 236.5 c 128,-1,68
 116 233 116 233 127 233 c 0,69,70
 141 233 141 233 161 239.5 c 128,-1,71
 181 246 181 246 202 256 c 128,-1,72
 223 266 223 266 243 280 c 128,-1,73
 263 294 263 294 278.5 310.5 c 128,-1,74
 294 327 294 327 304 345 c 128,-1,75
 314 363 314 363 314 380 c 0,76,77
 314 394 314 394 309 401.5 c 128,-1,78
 304 409 304 409 287 409 c 0,79,80
 254 409 254 409 220.5 398.5 c 128,-1,81
 187 388 187 388 159.5 368 c 128,-1,82
 132 348 132 348 114.5 318.5 c 128,-1,83
 97 289 97 289 97 252 c 0,66,67
EndSplineSet
EndChar

StartChar: S
Encoding: 83 83 54
Width: 496
Flags: W
LayerCount: 2
Fore
SplineSet
19 112 m 0,0,1
 19 123 19 123 20 130 c 128,-1,2
 21 137 21 137 29 146 c 1,3,4
 48 134 48 134 57.5 122 c 128,-1,5
 67 110 67 110 73 99.5 c 128,-1,6
 79 89 79 89 86 80 c 128,-1,7
 93 71 93 71 109 64 c 128,-1,8
 125 57 125 57 153 53 c 128,-1,9
 181 49 181 49 229 49 c 0,10,11
 239 49 239 49 257 49 c 128,-1,12
 275 49 275 49 296.5 51.5 c 128,-1,13
 318 54 318 54 340 58.5 c 128,-1,14
 362 63 362 63 380 71.5 c 128,-1,15
 398 80 398 80 409.5 92.5 c 128,-1,16
 421 105 421 105 421 123 c 0,17,18
 421 126 421 126 420 130.5 c 128,-1,19
 419 135 419 135 419 136 c 2,20,-1
 371 185 l 1,21,-1
 49 273 l 2,22,23
 40 275 40 275 35.5 280 c 128,-1,24
 31 285 31 285 29 291 c 128,-1,25
 27 297 27 297 27 304 c 2,26,-1
 27 318 l 2,27,28
 27 345 27 345 45.5 365 c 128,-1,29
 64 385 64 385 92.5 398 c 128,-1,30
 121 411 121 411 156.5 419.5 c 128,-1,31
 192 428 192 428 226.5 432.5 c 128,-1,32
 261 437 261 437 290.5 438 c 128,-1,33
 320 439 320 439 336 439 c 2,34,-1
 347 439 l 2,35,36
 354 439 354 439 362.5 439 c 128,-1,37
 371 439 371 439 378 439 c 2,38,-1
 389 439 l 1,39,40
 399 436 399 436 400 428.5 c 128,-1,41
 401 421 401 421 401 414 c 0,42,43
 401 400 401 400 382.5 393.5 c 128,-1,44
 364 387 364 387 335.5 383.5 c 128,-1,45
 307 380 307 380 271 377 c 128,-1,46
 235 374 235 374 201.5 368.5 c 128,-1,47
 168 363 168 363 140 352 c 128,-1,48
 112 341 112 341 98 322 c 1,49,-1
 116 312 l 1,50,-1
 399 234 l 2,51,52
 416 229 416 229 431 215.5 c 128,-1,53
 446 202 446 202 456.5 184.5 c 128,-1,54
 467 167 467 167 473 147.5 c 128,-1,55
 479 128 479 128 479 112 c 0,56,57
 479 88 479 88 468 69.5 c 128,-1,58
 457 51 457 51 440 38.5 c 128,-1,59
 423 26 423 26 401 18.5 c 128,-1,60
 379 11 379 11 356 6.5 c 128,-1,61
 333 2 333 2 310.5 0.5 c 128,-1,62
 288 -1 288 -1 270 -1 c 0,63,64
 251 -1 251 -1 224.5 -0.5 c 128,-1,65
 198 0 198 0 170 3 c 128,-1,66
 142 6 142 6 115 12.5 c 128,-1,67
 88 19 88 19 66.5 31.5 c 128,-1,68
 45 44 45 44 32 63 c 128,-1,69
 19 82 19 82 19 112 c 0,0,1
EndSplineSet
EndChar

StartChar: T
Encoding: 84 84 55
Width: 633
Flags: W
LayerCount: 2
Fore
SplineSet
292 371 m 2,0,1
 291 371 291 371 280.5 371 c 128,-1,2
 270 371 270 371 257 371 c 128,-1,3
 244 371 244 371 231 371.5 c 128,-1,4
 218 372 218 372 212 372 c 0,5,6
 164 372 164 372 120.5 366 c 128,-1,7
 77 360 77 360 33 360 c 0,8,9
 23 360 23 360 21 368.5 c 128,-1,10
 19 377 19 377 19 385 c 0,11,12
 19 401 19 401 30.5 410.5 c 128,-1,13
 42 420 42 420 59 425 c 128,-1,14
 76 430 76 430 97 431.5 c 128,-1,15
 118 433 118 433 138 432.5 c 128,-1,16
 158 432 158 432 174.5 430.5 c 128,-1,17
 191 429 191 429 200 429 c 0,18,19
 299 429 299 429 402 421.5 c 128,-1,20
 505 414 505 414 604 409 c 0,21,22
 605 409 605 409 608 406.5 c 128,-1,23
 611 404 611 404 614.5 400.5 c 128,-1,24
 618 397 618 397 620.5 394 c 128,-1,25
 623 391 623 391 623 389 c 0,26,27
 623 388 623 388 624 388 c 1,28,-1
 624 386 l 1,29,-1
 625 385 l 2,30,31
 625 384 625 384 624.5 383.5 c 128,-1,32
 624 383 624 383 624 382 c 0,33,34
 623 381 623 381 623 380 c 0,35,36
 622 378 622 378 619 374.5 c 128,-1,37
 616 371 616 371 613 368 c 128,-1,38
 610 365 610 365 607.5 362.5 c 128,-1,39
 605 360 605 360 604 360 c 2,40,-1
 376 360 l 1,41,42
 376 340 376 340 371.5 322.5 c 128,-1,43
 367 305 367 305 361 288 c 128,-1,44
 355 271 355 271 349.5 253 c 128,-1,45
 344 235 344 235 342 214 c 1,46,-1
 342 205 l 1,47,48
 341 197 341 197 340.5 182.5 c 128,-1,49
 340 168 340 168 338.5 150 c 128,-1,50
 337 132 337 132 336.5 112 c 128,-1,51
 336 92 336 92 334.5 73.5 c 128,-1,52
 333 55 333 55 332.5 40.5 c 128,-1,53
 332 26 332 26 331 20 c 1,54,55
 325 3 325 3 309 -1.5 c 128,-1,56
 293 -6 293 -6 279 -6 c 1,57,58
 279 37 279 37 276.5 85 c 128,-1,59
 274 133 274 133 277 181.5 c 128,-1,60
 280 230 280 230 291.5 276 c 128,-1,61
 303 322 303 322 331 360 c 1,62,-1
 292 371 l 2,0,1
EndSplineSet
EndChar

StartChar: U
Encoding: 85 85 56
Width: 467
Flags: W
LayerCount: 2
Fore
SplineSet
8 314 m 2,0,-1
 8 336 l 2,1,2
 8 350 8 350 9.5 366 c 128,-1,3
 11 382 11 382 14 398.5 c 128,-1,4
 17 415 17 415 22.5 428.5 c 128,-1,5
 28 442 28 442 37 450.5 c 128,-1,6
 46 459 46 459 59 459 c 0,7,8
 67 459 67 459 71 454.5 c 128,-1,9
 75 450 75 450 77 442.5 c 128,-1,10
 79 435 79 435 79 428 c 2,11,-1
 79 415 l 2,12,13
 79 404 79 404 78.5 396 c 128,-1,14
 78 388 78 388 77 379.5 c 128,-1,15
 76 371 76 371 74 362 c 128,-1,16
 72 353 72 353 69 341 c 1,17,18
 72 309 72 309 75.5 275 c 128,-1,19
 79 241 79 241 85 209.5 c 128,-1,20
 91 178 91 178 101 150.5 c 128,-1,21
 111 123 111 123 128.5 102.5 c 128,-1,22
 146 82 146 82 173 69.5 c 128,-1,23
 200 57 200 57 239 57 c 0,24,25
 258 57 258 57 281 59.5 c 128,-1,26
 304 62 304 62 326 69 c 128,-1,27
 348 76 348 76 365.5 90 c 128,-1,28
 383 104 383 104 389 127 c 1,29,30
 389 131 389 131 389.5 142 c 128,-1,31
 390 153 390 153 390 165.5 c 128,-1,32
 390 178 390 178 390.5 189 c 128,-1,33
 391 200 391 200 391 205 c 0,34,35
 391 229 391 229 386 252.5 c 128,-1,36
 381 276 381 276 375 298.5 c 128,-1,37
 369 321 369 321 364.5 343 c 128,-1,38
 360 365 360 365 360 389 c 0,39,40
 360 402 360 402 362.5 410.5 c 128,-1,41
 365 419 365 419 380 419 c 0,42,43
 398 419 398 419 410 405 c 128,-1,44
 422 391 422 391 430 369 c 128,-1,45
 438 347 438 347 441.5 320 c 128,-1,46
 445 293 445 293 447.5 267 c 128,-1,47
 450 241 450 241 450 220 c 2,48,-1
 450 190 l 2,49,50
 450 138 450 138 432.5 101.5 c 128,-1,51
 415 65 415 65 384.5 42.5 c 128,-1,52
 354 20 354 20 311.5 10 c 128,-1,53
 269 0 269 0 219 0 c 0,54,55
 178 0 178 0 147 13.5 c 128,-1,56
 116 27 116 27 92.5 50.5 c 128,-1,57
 69 74 69 74 53 105 c 128,-1,58
 37 136 37 136 27 171.5 c 128,-1,59
 17 207 17 207 12.5 243.5 c 128,-1,60
 8 280 8 280 8 314 c 2,0,-1
EndSplineSet
EndChar

StartChar: V
Encoding: 86 86 57
Width: 487
Flags: W
LayerCount: 2
Fore
SplineSet
39 331 m 1,0,1
 34 337 34 337 29 345.5 c 128,-1,2
 24 354 24 354 19 363.5 c 128,-1,3
 14 373 14 373 11 382.5 c 128,-1,4
 8 392 8 392 8 399 c 0,5,6
 8 419 8 419 29 419 c 0,7,8
 54 419 54 419 72.5 398.5 c 128,-1,9
 91 378 91 378 106 346 c 128,-1,10
 121 314 121 314 134 276 c 128,-1,11
 147 238 147 238 160 202.5 c 128,-1,12
 173 167 173 167 188.5 138 c 128,-1,13
 204 109 204 109 224 98 c 1,14,-1
 302 243 l 1,15,-1
 312 253 l 2,16,17
 317 259 317 259 327 272.5 c 128,-1,18
 337 286 337 286 349 304 c 128,-1,19
 361 322 361 322 374.5 341 c 128,-1,20
 388 360 388 360 401 377 c 128,-1,21
 414 394 414 394 423.5 408 c 128,-1,22
 433 422 433 422 439 429 c 1,23,24
 439 429 439 429 443 429 c 128,-1,25
 447 429 447 429 448 429 c 0,26,27
 463 429 463 429 471 419 c 128,-1,28
 479 409 479 409 479 394 c 0,29,30
 479 393 479 393 478.5 387 c 128,-1,31
 478 381 478 381 478 380 c 0,32,33
 473 373 473 373 464 360.5 c 128,-1,34
 455 348 455 348 443.5 331 c 128,-1,35
 432 314 432 314 419 296.5 c 128,-1,36
 406 279 406 279 394.5 262.5 c 128,-1,37
 383 246 383 246 374 233 c 128,-1,38
 365 220 365 220 360 214 c 1,39,40
 360 212 360 212 356 209 c 128,-1,41
 352 206 352 206 350 205 c 1,42,-1
 253 20 l 2,43,44
 253 19 253 19 248 16.5 c 128,-1,45
 243 14 243 14 237 11 c 128,-1,46
 231 8 231 8 224.5 4.5 c 128,-1,47
 218 1 218 1 214 0 c 0,48,49
 213 0 213 0 209 -0.5 c 128,-1,50
 205 -1 205 -1 202 -1 c 2,51,-1
 198 -1 l 2,52,53
 196 -1 196 -1 195 0 c 2,54,-1
 39 331 l 1,0,1
EndSplineSet
EndChar

StartChar: W
Encoding: 87 87 58
Width: 730
Flags: W
LayerCount: 2
Fore
SplineSet
29 389 m 1,0,1
 21 399 21 399 20 406 c 128,-1,2
 19 413 19 413 19 424 c 256,3,4
 19 435 19 435 22.5 442.5 c 128,-1,5
 26 450 26 450 39 450 c 0,6,7
 47 450 47 450 53 446 c 128,-1,8
 59 442 59 442 64.5 435.5 c 128,-1,9
 70 429 70 429 73 422.5 c 128,-1,10
 76 416 76 416 78 409 c 0,11,12
 90 368 90 368 99 335 c 128,-1,13
 108 302 108 302 114.5 268.5 c 128,-1,14
 121 235 121 235 126 198.5 c 128,-1,15
 131 162 131 162 136 116 c 1,16,-1
 146 98 l 1,17,18
 154 100 154 100 162 105 c 128,-1,19
 170 110 170 110 175 116 c 0,20,21
 180 123 180 123 190.5 138.5 c 128,-1,22
 201 154 201 154 214.5 173.5 c 128,-1,23
 228 193 228 193 243 214 c 128,-1,24
 258 235 258 235 271.5 254.5 c 128,-1,25
 285 274 285 274 296 289 c 128,-1,26
 307 304 307 304 312 312 c 0,27,28
 320 323 320 323 325 327.5 c 128,-1,29
 330 332 330 332 342 332 c 0,30,31
 352 332 352 332 367.5 316.5 c 128,-1,32
 383 301 383 301 402.5 276.5 c 128,-1,33
 422 252 422 252 442 222.5 c 128,-1,34
 462 193 462 193 481.5 166 c 128,-1,35
 501 139 501 139 517.5 117 c 128,-1,36
 534 95 534 95 546 88 c 0,37,38
 547 88 547 88 548 87.5 c 128,-1,39
 549 87 549 87 550 87 c 2,40,-1
 553 87 l 2,41,42
 554 87 554 87 555 88 c 2,43,-1
 565 98 l 1,44,-1
 672 467 l 2,45,46
 676 480 676 480 678 484 c 128,-1,47
 680 488 680 488 690 488 c 256,48,49
 700 488 700 488 705.5 483.5 c 128,-1,50
 711 479 711 479 715 472.5 c 128,-1,51
 719 466 719 466 720.5 458 c 128,-1,52
 722 450 722 450 722 442 c 0,53,54
 722 431 722 431 717.5 405.5 c 128,-1,55
 713 380 713 380 705.5 347 c 128,-1,56
 698 314 698 314 687.5 274.5 c 128,-1,57
 677 235 677 235 664 197 c 128,-1,58
 651 159 651 159 637.5 123.5 c 128,-1,59
 624 88 624 88 610 60 c 128,-1,60
 596 32 596 32 582 15.5 c 128,-1,61
 568 -1 568 -1 555 -1 c 0,62,63
 554 -1 554 -1 550.5 -0.5 c 128,-1,64
 547 0 547 0 546 0 c 0,65,66
 516 26 516 26 490.5 54 c 128,-1,67
 465 82 465 82 442 111.5 c 128,-1,68
 419 141 419 141 396.5 171 c 128,-1,69
 374 201 374 201 350 234 c 0,70,71
 349 235 349 235 346 239 c 128,-1,72
 343 243 343 243 342 243 c 0,73,74
 340 243 340 243 339 244 c 1,75,76
 337 244 337 244 337 244.5 c 128,-1,77
 337 245 337 245 336 245 c 0,78,79
 323 245 323 245 307.5 226.5 c 128,-1,80
 292 208 292 208 275 181 c 128,-1,81
 258 154 258 154 238.5 122 c 128,-1,82
 219 90 219 90 199 63.5 c 128,-1,83
 179 37 179 37 158.5 18.5 c 128,-1,84
 138 0 138 0 116 0 c 1,85,86
 116 0 116 0 113 2 c 128,-1,87
 110 4 110 4 107.5 7.5 c 128,-1,88
 105 11 105 11 102 14.5 c 128,-1,89
 99 18 99 18 98 20 c 0,90,91
 97 21 97 21 97 24.5 c 128,-1,92
 97 28 97 28 98 29 c 1,93,-1
 29 389 l 1,0,1
EndSplineSet
EndChar

StartChar: X
Encoding: 88 88 59
Width: 516
Flags: W
LayerCount: 2
Fore
SplineSet
19 30 m 0,0,1
 19 46 19 46 30 65 c 128,-1,2
 41 84 41 84 56.5 103.5 c 128,-1,3
 72 123 72 123 91 141.5 c 128,-1,4
 110 160 110 160 125.5 175 c 128,-1,5
 141 190 141 190 150 200.5 c 128,-1,6
 159 211 159 211 156 214 c 2,7,-1
 20 360 l 2,8,9
 19 361 19 361 16.5 365.5 c 128,-1,10
 14 370 14 370 12.5 374.5 c 128,-1,11
 11 379 11 379 10 383.5 c 128,-1,12
 9 388 9 388 9 389 c 0,13,14
 9 391 9 391 11.5 394 c 128,-1,15
 14 397 14 397 17.5 400.5 c 128,-1,16
 21 404 21 404 24 406.5 c 128,-1,17
 27 409 27 409 29 409 c 256,18,19
 31 409 31 409 35 408 c 128,-1,20
 39 407 39 407 44 406 c 128,-1,21
 49 405 49 405 53 403 c 128,-1,22
 57 401 57 401 59 399 c 2,23,-1
 195 263 l 1,24,-1
 214 263 l 1,25,26
 235 286 235 286 264 316 c 128,-1,27
 293 346 293 346 326.5 373.5 c 128,-1,28
 360 401 360 401 395 420 c 128,-1,29
 430 439 430 439 462 439 c 0,30,31
 467 439 467 439 473.5 439 c 128,-1,32
 480 439 480 439 485 436.5 c 128,-1,33
 490 434 490 434 494 430.5 c 128,-1,34
 498 427 498 427 498 419 c 256,35,36
 498 411 498 411 496 404.5 c 128,-1,37
 494 398 494 398 487 389 c 1,38,39
 476 386 476 386 454.5 374 c 128,-1,40
 433 362 433 362 407 346 c 128,-1,41
 381 330 381 330 353.5 310.5 c 128,-1,42
 326 291 326 291 303.5 272.5 c 128,-1,43
 281 254 281 254 267 238.5 c 128,-1,44
 253 223 253 223 253 214 c 2,45,-1
 253 205 l 2,46,47
 253 200 253 200 263.5 188.5 c 128,-1,48
 274 177 274 177 289.5 163 c 128,-1,49
 305 149 305 149 324.5 133.5 c 128,-1,50
 344 118 344 118 363 105.5 c 128,-1,51
 382 93 382 93 398 85 c 128,-1,52
 414 77 414 77 424 77 c 0,53,54
 431 77 431 77 435 79 c 128,-1,55
 439 81 439 81 443 83 c 128,-1,56
 447 85 447 85 451.5 86.5 c 128,-1,57
 456 88 456 88 464 88 c 0,58,59
 479 88 479 88 483.5 79.5 c 128,-1,60
 488 71 488 71 488 57 c 0,61,62
 488 44 488 44 480.5 36.5 c 128,-1,63
 473 29 473 29 461.5 25 c 128,-1,64
 450 21 450 21 437.5 20 c 128,-1,65
 425 19 425 19 416 19 c 0,66,67
 399 19 399 19 379 27.5 c 128,-1,68
 359 36 359 36 338 49 c 128,-1,69
 317 62 317 62 297 78.5 c 128,-1,70
 277 95 277 95 259.5 111.5 c 128,-1,71
 242 128 242 128 227.5 142 c 128,-1,72
 213 156 213 156 205 166 c 1,73,74
 167 130 167 130 132.5 96 c 128,-1,75
 98 62 98 62 69 20 c 0,76,77
 64 12 64 12 62.5 7.5 c 128,-1,78
 61 3 61 3 60 1.5 c 128,-1,79
 59 0 59 0 56.5 -0.5 c 128,-1,80
 54 -1 54 -1 45 -1 c 0,81,82
 27 -1 27 -1 23 5.5 c 128,-1,83
 19 12 19 12 19 30 c 0,0,1
EndSplineSet
EndChar

StartChar: Y
Encoding: 89 89 60
Width: 419
Flags: W
LayerCount: 2
Fore
SplineSet
97 34 m 0,0,1
 97 37 97 37 97.5 46 c 128,-1,2
 98 55 98 55 98 59 c 1,3,4
 101 65 101 65 108.5 79.5 c 128,-1,5
 116 94 116 94 126 112.5 c 128,-1,6
 136 131 136 131 146.5 151 c 128,-1,7
 157 171 157 171 167 189 c 128,-1,8
 177 207 177 207 184.5 221.5 c 128,-1,9
 192 236 192 236 195 243 c 0,10,11
 196 246 196 246 199 253 c 128,-1,12
 202 260 202 260 205 267.5 c 128,-1,13
 208 275 208 275 210.5 282 c 128,-1,14
 213 289 213 289 214 292 c 1,15,16
 201 309 201 309 180.5 324.5 c 128,-1,17
 160 340 160 340 136 356.5 c 128,-1,18
 112 373 112 373 88 391 c 128,-1,19
 64 409 64 409 44.5 428.5 c 128,-1,20
 25 448 25 448 12.5 469.5 c 128,-1,21
 0 491 0 491 0 516 c 0,22,23
 0 535 0 535 4.5 541.5 c 128,-1,24
 9 548 9 548 24 548 c 0,25,26
 25 548 25 548 31 547.5 c 128,-1,27
 37 547 37 547 39 546 c 1,28,29
 48 531 48 531 61.5 511 c 128,-1,30
 75 491 75 491 91 469 c 128,-1,31
 107 447 107 447 125.5 426 c 128,-1,32
 144 405 144 405 163 388 c 128,-1,33
 182 371 182 371 202.5 360.5 c 128,-1,34
 223 350 223 350 243 350 c 0,35,36
 245 350 245 350 248.5 350 c 128,-1,37
 252 350 252 350 253 350 c 0,38,39
 257 357 257 357 265.5 374 c 128,-1,40
 274 391 274 391 283 409.5 c 128,-1,41
 292 428 292 428 300.5 444.5 c 128,-1,42
 309 461 309 461 312 467 c 0,43,44
 314 473 314 473 318 486.5 c 128,-1,45
 322 500 322 500 326.5 515 c 128,-1,46
 331 530 331 530 337 546 c 128,-1,47
 343 562 343 562 350 575 c 128,-1,48
 357 588 357 588 365.5 596.5 c 128,-1,49
 374 605 374 605 385 605 c 1,50,-1
 386 604 l 1,51,-1
 388 604 l 1,52,53
 388 603 388 603 389 603 c 0,54,55
 391 603 391 603 394 600.5 c 128,-1,56
 397 598 397 598 400.5 595 c 128,-1,57
 404 592 404 592 406.5 589 c 128,-1,58
 409 586 409 586 409 585 c 0,59,60
 390 512 390 512 363 441 c 128,-1,61
 336 370 336 370 302 302 c 1,62,-1
 302 282 l 1,63,64
 295 274 295 274 279 249.5 c 128,-1,65
 263 225 263 225 244 193.5 c 128,-1,66
 225 162 225 162 204.5 128 c 128,-1,67
 184 94 184 94 166 65.5 c 128,-1,68
 148 37 148 37 135 18 c 128,-1,69
 122 -1 122 -1 118 -1 c 0,70,71
 101 -1 101 -1 99 9 c 128,-1,72
 97 19 97 19 97 34 c 0,0,1
EndSplineSet
EndChar

StartChar: Z
Encoding: 90 90 61
Width: 730
Flags: W
LayerCount: 2
Fore
SplineSet
9 39 m 256,0,1
 9 41 9 41 12 44 c 2,2,-1
 18 53 l 2,3,4
 21 58 21 58 24 61.5 c 128,-1,5
 27 65 27 65 29 67 c 2,6,-1
 273 292 l 1,7,8
 280 297 280 297 292 304.5 c 128,-1,9
 304 312 304 312 318.5 322.5 c 128,-1,10
 333 333 333 333 348 345 c 128,-1,11
 363 357 363 357 374.5 368 c 128,-1,12
 386 379 386 379 393.5 388.5 c 128,-1,13
 401 398 401 398 401 404 c 0,14,15
 401 405 401 405 400 406.5 c 128,-1,16
 399 408 399 408 399 409 c 0,17,18
 378 411 378 411 343.5 409.5 c 128,-1,19
 309 408 309 408 269 406.5 c 128,-1,20
 229 405 229 405 189.5 406 c 128,-1,21
 150 407 150 407 117.5 414.5 c 128,-1,22
 85 422 85 422 65 436.5 c 128,-1,23
 45 451 45 451 45 479 c 1,24,25
 48 479 48 479 57 478.5 c 128,-1,26
 66 478 66 478 76 478 c 128,-1,27
 86 478 86 478 95 478 c 128,-1,28
 104 478 104 478 107 478 c 0,29,30
 121 478 121 478 151 477 c 128,-1,31
 181 476 181 476 218.5 475 c 128,-1,32
 256 474 256 474 297.5 473 c 128,-1,33
 339 472 339 472 376.5 471 c 128,-1,34
 414 470 414 470 443.5 468.5 c 128,-1,35
 473 467 473 467 487 467 c 1,36,37
 500 462 500 462 504 456 c 128,-1,38
 508 450 508 450 508 439 c 0,39,40
 508 424 508 424 494 405 c 128,-1,41
 480 386 480 386 457 363 c 128,-1,42
 434 340 434 340 404 314 c 128,-1,43
 374 288 374 288 340.5 261.5 c 128,-1,44
 307 235 307 235 272.5 208.5 c 128,-1,45
 238 182 238 182 206.5 156.5 c 128,-1,46
 175 131 175 131 149 108.5 c 128,-1,47
 123 86 123 86 107 67 c 1,48,-1
 136 67 l 2,49,50
 202 67 202 67 269 73.5 c 128,-1,51
 336 80 336 80 403 87.5 c 128,-1,52
 470 95 470 95 536.5 101 c 128,-1,53
 603 107 603 107 667 107 c 0,54,55
 712 107 712 107 712 67 c 0,56,57
 712 59 712 59 687.5 52.5 c 128,-1,58
 663 46 663 46 622 40 c 128,-1,59
 581 34 581 34 527.5 28.5 c 128,-1,60
 474 23 474 23 417 18.5 c 128,-1,61
 360 14 360 14 302 10.5 c 128,-1,62
 244 7 244 7 194.5 4.5 c 128,-1,63
 145 2 145 2 108 0.5 c 128,-1,64
 71 -1 71 -1 54 -1 c 2,65,-1
 47 -1 l 2,66,67
 42 -1 42 -1 36.5 -0.5 c 128,-1,68
 31 0 31 0 26 0 c 2,69,-1
 20 0 l 1,70,71
 19 2 19 2 16.5 7 c 128,-1,72
 14 12 14 12 12.5 18.5 c 128,-1,73
 11 25 11 25 10 31 c 128,-1,74
 9 37 9 37 9 39 c 256,0,1
EndSplineSet
EndChar

StartChar: bracketleft
Encoding: 91 91 62
Width: 371
Flags: W
LayerCount: 2
Fore
SplineSet
8 63 m 2,0,1
 8 85 8 85 13.5 104 c 128,-1,2
 19 123 19 123 20 146 c 0,3,4
 20 154 20 154 21.5 175.5 c 128,-1,5
 23 197 23 197 24.5 227 c 128,-1,6
 26 257 26 257 28.5 292.5 c 128,-1,7
 31 328 31 328 34 365 c 128,-1,8
 37 402 37 402 39.5 438 c 128,-1,9
 42 474 42 474 43.5 504 c 128,-1,10
 45 534 45 534 46.5 555.5 c 128,-1,11
 48 577 48 577 49 585 c 0,12,13
 49 587 49 587 48.5 592 c 128,-1,14
 48 597 48 597 48.5 601 c 128,-1,15
 49 605 49 605 51 609 c 128,-1,16
 53 613 53 613 59 614 c 2,17,-1
 282 643 l 2,18,19
 284 643 284 643 288 640 c 128,-1,20
 292 637 292 637 297 632.5 c 128,-1,21
 302 628 302 628 306 623 c 128,-1,22
 310 618 310 618 312 614 c 0,23,24
 314 608 314 608 309.5 601.5 c 128,-1,25
 305 595 305 595 298 589.5 c 128,-1,26
 291 584 291 584 283.5 579.5 c 128,-1,27
 276 575 276 575 273 575 c 0,28,29
 269 575 269 575 258.5 575.5 c 128,-1,30
 248 576 248 576 233.5 576.5 c 128,-1,31
 219 577 219 577 202 576.5 c 128,-1,32
 185 576 185 576 169 575 c 128,-1,33
 153 574 153 574 139 571.5 c 128,-1,34
 125 569 125 569 116 565 c 0,35,36
 114 564 114 564 111 542 c 128,-1,37
 108 520 108 520 105 485 c 128,-1,38
 102 450 102 450 98.5 405.5 c 128,-1,39
 95 361 95 361 92 315 c 128,-1,40
 89 269 89 269 86.5 224.5 c 128,-1,41
 84 180 84 180 82 145.5 c 128,-1,42
 80 111 80 111 78.5 89.5 c 128,-1,43
 77 68 77 68 77 67 c 1,44,-1
 85 67 l 2,45,46
 91 67 91 67 97 67 c 128,-1,47
 103 67 103 67 109 67 c 2,48,-1
 116 67 l 2,49,50
 144 67 144 67 170.5 73.5 c 128,-1,51
 197 80 197 80 223.5 87 c 128,-1,52
 250 94 250 94 275.5 100.5 c 128,-1,53
 301 107 301 107 326 107 c 0,54,55
 339 107 339 107 350 98.5 c 128,-1,56
 361 90 361 90 361 77 c 0,57,58
 361 65 361 65 356.5 57 c 128,-1,59
 352 49 352 49 341 39 c 1,60,61
 299 28 299 28 267 20 c 128,-1,62
 235 12 235 12 206 7.5 c 128,-1,63
 177 3 177 3 147.5 0.5 c 128,-1,64
 118 -2 118 -2 82 -2 c 0,65,66
 80 -2 80 -2 72.5 -2 c 128,-1,67
 65 -2 65 -2 56 -1.5 c 128,-1,68
 47 -1 47 -1 39 -0.5 c 128,-1,69
 31 0 31 0 29 0 c 0,70,71
 21 3 21 3 17 11 c 128,-1,72
 13 19 13 19 10.5 28 c 128,-1,73
 8 37 8 37 8 47 c 2,74,-1
 8 63 l 2,0,1
EndSplineSet
EndChar

StartChar: backslash
Encoding: 92 92 63
Width: 409
Flags: W
LayerCount: 2
Fore
SplineSet
9 507 m 2,0,1
 8 508 8 508 6.5 512 c 128,-1,2
 5 516 5 516 3.5 521 c 128,-1,3
 2 526 2 526 1 530 c 128,-1,4
 0 534 0 534 0 536 c 0,5,6
 0 539 0 539 2 544 c 128,-1,7
 4 549 4 549 8 553.5 c 128,-1,8
 12 558 12 558 16 561.5 c 128,-1,9
 20 565 20 565 24 565 c 2,10,-1
 29 565 l 1,11,12
 31 564 31 564 39 560 c 2,13,-1
 49 555 l 1,14,15
 53 549 53 549 60 537.5 c 128,-1,16
 67 526 67 526 77 512 c 128,-1,17
 87 498 87 498 97.5 482 c 128,-1,18
 108 466 108 466 117 451 c 2,19,-1
 134 426 l 2,20,21
 142 414 142 414 146 409 c 0,22,23
 146 408 146 408 150.5 404 c 128,-1,24
 155 400 155 400 156 399 c 2,25,-1
 331 156 l 1,26,27
 337 139 337 139 348 123.5 c 128,-1,28
 359 108 359 108 370 92.5 c 128,-1,29
 381 77 381 77 391.5 62 c 128,-1,30
 402 47 402 47 409 29 c 1,31,32
 406 27 406 27 399.5 23 c 128,-1,33
 393 19 393 19 385 14 c 128,-1,34
 377 9 377 9 370 5 c 128,-1,35
 363 1 363 1 360 0 c 0,36,37
 360 -1 360 -1 358 -1 c 2,38,-1
 355 -1 l 2,39,40
 345 -1 345 -1 332.5 14 c 128,-1,41
 320 29 320 29 310 47 c 128,-1,42
 300 65 300 65 292.5 83 c 128,-1,43
 285 101 285 101 282 107 c 2,44,-1
 9 507 l 2,0,1
EndSplineSet
EndChar

StartChar: bracketright
Encoding: 93 93 64
Width: 331
Flags: W
LayerCount: 2
Fore
SplineSet
-1 35 m 0,0,1
 -1 46 -1 46 13 52.5 c 128,-1,2
 27 59 27 59 48.5 63.5 c 128,-1,3
 70 68 70 68 95.5 70.5 c 128,-1,4
 121 73 121 73 142.5 76.5 c 128,-1,5
 164 80 164 80 179 84.5 c 128,-1,6
 194 89 194 89 195 98 c 0,7,8
 202 150 202 150 209.5 206.5 c 128,-1,9
 217 263 217 263 222.5 321 c 128,-1,10
 228 379 228 379 231 436 c 128,-1,11
 234 493 234 493 234 546 c 2,12,-1
 234 555 l 1,13,14
 212 560 212 560 184 560 c 128,-1,15
 156 560 156 560 127 561 c 128,-1,16
 98 562 98 562 71.5 566 c 128,-1,17
 45 570 45 570 29 585 c 1,18,19
 30 592 30 592 30.5 600.5 c 128,-1,20
 31 609 31 609 34 616.5 c 128,-1,21
 37 624 37 624 42.5 629 c 128,-1,22
 48 634 48 634 57 634 c 0,23,24
 86 634 86 634 118 631 c 128,-1,25
 150 628 150 628 182 624 c 128,-1,26
 214 620 214 620 245 617.5 c 128,-1,27
 276 615 276 615 302 614 c 1,28,29
 309 605 309 605 310.5 597.5 c 128,-1,30
 312 590 312 590 312 580 c 0,31,32
 312 567 312 567 310.5 558 c 128,-1,33
 309 549 309 549 302 536 c 1,34,35
 294 488 294 488 285.5 426.5 c 128,-1,36
 277 365 277 365 270 300 c 128,-1,37
 263 235 263 235 260.5 169.5 c 128,-1,38
 258 104 258 104 263 49 c 1,39,40
 250 31 250 31 222.5 21 c 128,-1,41
 195 11 195 11 164 6.5 c 128,-1,42
 133 2 133 2 103 0.5 c 128,-1,43
 73 -1 73 -1 54 -1 c 2,44,-1
 47 -1 l 2,45,46
 42 -1 42 -1 36.5 -0.5 c 128,-1,47
 31 0 31 0 26 0 c 2,48,-1
 20 0 l 1,49,50
 11 5 11 5 5 15 c 128,-1,51
 -1 25 -1 25 -1 35 c 0,0,1
EndSplineSet
EndChar

StartChar: asciicircum
Encoding: 94 94 65
Width: 312
Flags: W
LayerCount: 2
Fore
SplineSet
8 448 m 0,0,1
 8 465 8 465 14 490 c 128,-1,2
 20 515 20 515 29.5 542 c 128,-1,3
 39 569 39 569 53 596 c 128,-1,4
 67 623 67 623 83.5 644.5 c 128,-1,5
 100 666 100 666 119 679 c 128,-1,6
 138 692 138 692 158 692 c 0,7,8
 164 692 164 692 171 692.5 c 128,-1,9
 178 693 178 693 185 691 c 128,-1,10
 192 689 192 689 197 685.5 c 128,-1,11
 202 682 202 682 205 672 c 1,12,13
 210 643 210 643 219.5 613.5 c 128,-1,14
 229 584 229 584 242.5 555.5 c 128,-1,15
 256 527 256 527 271 500 c 128,-1,16
 286 473 286 473 302 448 c 1,17,18
 292 433 292 433 285 425 c 128,-1,19
 278 417 278 417 264 417 c 0,20,21
 251 417 251 417 239 432 c 128,-1,22
 227 447 227 447 217 468.5 c 128,-1,23
 207 490 207 490 197.5 515.5 c 128,-1,24
 188 541 188 541 180 563.5 c 128,-1,25
 172 586 172 586 164.5 600.5 c 128,-1,26
 157 615 157 615 151 615 c 0,27,28
 133 615 133 615 122.5 600 c 128,-1,29
 112 585 112 585 105.5 562 c 128,-1,30
 99 539 99 539 93.5 512 c 128,-1,31
 88 485 88 485 81 462 c 128,-1,32
 74 439 74 439 61.5 424 c 128,-1,33
 49 409 49 409 29 409 c 0,34,35
 24 409 24 409 20.5 414 c 128,-1,36
 17 419 17 419 14 425.5 c 128,-1,37
 11 432 11 432 9.5 438.5 c 128,-1,38
 8 445 8 445 8 448 c 0,0,1
EndSplineSet
EndChar

StartChar: underscore
Encoding: 95 95 66
Width: 429
Flags: W
LayerCount: 2
Fore
SplineSet
29 9 m 1,0,1
 24 10 24 10 22 14.5 c 128,-1,2
 20 19 20 19 19.5 24 c 128,-1,3
 19 29 19 29 19 34 c 128,-1,4
 19 39 19 39 19 42 c 0,5,6
 19 57 19 57 29 63 c 128,-1,7
 39 69 39 69 53.5 70.5 c 128,-1,8
 68 72 68 72 83 71 c 128,-1,9
 98 70 98 70 107 70 c 0,10,11
 144 70 144 70 177.5 68.5 c 128,-1,12
 211 67 211 67 244.5 66 c 128,-1,13
 278 65 278 65 313 62.5 c 128,-1,14
 348 60 348 60 389 59 c 0,15,16
 391 58 391 58 395 56 c 128,-1,17
 399 54 399 54 401.5 50.5 c 128,-1,18
 404 47 404 47 406.5 44 c 128,-1,19
 409 41 409 41 409 39 c 256,20,21
 409 37 409 37 405.5 30 c 128,-1,22
 402 23 402 23 399 20 c 0,23,24
 399 19 399 19 395 14.5 c 128,-1,25
 391 10 391 10 389 9 c 0,26,27
 371 6 371 6 357 4 c 128,-1,28
 343 2 343 2 330 1 c 128,-1,29
 317 0 317 0 304 0 c 2,30,-1
 274 0 l 2,31,32
 243 0 243 0 212 2 c 2,33,-1
 151 6 l 2,34,35
 121 8 121 8 90 9.5 c 128,-1,36
 59 11 59 11 29 9 c 1,0,1
EndSplineSet
EndChar

StartChar: grave
Encoding: 96 96 67
Width: 544
Flags: W
LayerCount: 2
Fore
SplineSet
478 422 m 1,0,1
 458 415 458 415 430.5 415.5 c 128,-1,2
 403 416 403 416 372.5 421.5 c 128,-1,3
 342 427 342 427 310.5 435.5 c 128,-1,4
 279 444 279 444 252 453 c 128,-1,5
 225 462 225 462 204.5 470 c 128,-1,6
 184 478 184 478 174 481 c 0,7,8
 169 483 169 483 165 484.5 c 128,-1,9
 161 486 161 486 155 489 c 128,-1,10
 149 492 149 492 139 496 c 1,11,-1
 116 508 l 2,12,13
 109 512 109 512 100.5 517 c 128,-1,14
 92 522 92 522 84 528.5 c 128,-1,15
 76 535 76 535 71.5 543.5 c 128,-1,16
 67 552 67 552 67 562 c 0,17,18
 67 567 67 567 68.5 573 c 128,-1,19
 70 579 70 579 73 584.5 c 128,-1,20
 76 590 76 590 80.5 593.5 c 128,-1,21
 85 597 85 597 92 597 c 0,22,23
 93 597 93 597 93 596.5 c 128,-1,24
 93 596 93 596 95 596 c 1,25,26
 96 595 96 595 98 595 c 0,27,28
 99 595 99 595 102 592.5 c 128,-1,29
 105 590 105 590 107.5 586.5 c 128,-1,30
 110 583 110 583 113 580 c 128,-1,31
 116 577 116 577 116 575 c 1,32,33
 153 555 153 555 180.5 543 c 128,-1,34
 208 531 208 531 231 523.5 c 128,-1,35
 254 516 254 516 275.5 511.5 c 128,-1,36
 297 507 297 507 320 502.5 c 128,-1,37
 343 498 343 498 371 491 c 128,-1,38
 399 484 399 484 437 471 c 1,39,40
 455 466 455 466 466.5 453 c 128,-1,41
 478 440 478 440 478 422 c 1,0,1
EndSplineSet
EndChar

StartChar: a
Encoding: 97 97 68
Width: 509
Flags: W
LayerCount: 2
Fore
SplineSet
297 49 m 0,0,1
 281 49 281 49 263.5 44.5 c 128,-1,2
 246 40 246 40 229 34 c 128,-1,3
 212 28 212 28 193.5 23.5 c 128,-1,4
 175 19 175 19 156 19 c 0,5,6
 127 19 127 19 100 28 c 128,-1,7
 73 37 73 37 52.5 55 c 128,-1,8
 32 73 32 73 20 98.5 c 128,-1,9
 8 124 8 124 8 156 c 0,10,11
 8 184 8 184 25.5 208 c 128,-1,12
 43 232 43 232 69 248 c 128,-1,13
 95 264 95 264 125 273 c 128,-1,14
 155 282 155 282 179 282 c 0,15,16
 190 282 190 282 206.5 280.5 c 128,-1,17
 223 279 223 279 242.5 275.5 c 128,-1,18
 262 272 262 272 282 266.5 c 128,-1,19
 302 261 302 261 318.5 252 c 128,-1,20
 335 243 335 243 346.5 231.5 c 128,-1,21
 358 220 358 220 360 205 c 0,22,23
 360 200 360 200 358 187.5 c 128,-1,24
 356 175 356 175 355 161 c 128,-1,25
 354 147 354 147 352.5 134.5 c 128,-1,26
 351 122 351 122 350 116 c 1,27,-1
 350 110 l 2,28,29
 350 88 350 88 360 77 c 128,-1,30
 370 66 370 66 384.5 61.5 c 128,-1,31
 399 57 399 57 415 57 c 2,32,-1
 447 57 l 2,33,34
 462 57 462 57 466 57.5 c 128,-1,35
 470 58 470 58 471.5 58 c 128,-1,36
 473 58 473 58 476.5 58.5 c 128,-1,37
 480 59 480 59 496 59 c 0,38,39
 509 59 509 59 516 54 c 128,-1,40
 523 49 523 49 523 33 c 0,41,42
 523 16 523 16 512 9 c 128,-1,43
 501 2 501 2 486 -0.5 c 128,-1,44
 471 -3 471 -3 456 -2 c 128,-1,45
 441 -1 441 -1 433 -1 c 0,46,47
 410 -1 410 -1 389.5 7 c 128,-1,48
 369 15 369 15 352 24.5 c 128,-1,49
 335 34 335 34 321 41.5 c 128,-1,50
 307 49 307 49 297 49 c 0,0,1
67 146 m 0,51,52
 67 122 67 122 77.5 107.5 c 128,-1,53
 88 93 88 93 103.5 86.5 c 128,-1,54
 119 80 119 80 138 78.5 c 128,-1,55
 157 77 157 77 175 77 c 0,56,57
 182 77 182 77 198.5 78 c 128,-1,58
 215 79 215 79 233 82.5 c 128,-1,59
 251 86 251 86 265.5 92 c 128,-1,60
 280 98 280 98 282 107 c 2,61,-1
 302 185 l 2,62,63
 304 193 304 193 298 199 c 128,-1,64
 292 205 292 205 281.5 209 c 128,-1,65
 271 213 271 213 258.5 216 c 128,-1,66
 246 219 246 219 234 221 c 128,-1,67
 222 223 222 223 212.5 224 c 128,-1,68
 203 225 203 225 201 225 c 0,69,70
 183 225 183 225 159.5 221.5 c 128,-1,71
 136 218 136 218 115.5 209.5 c 128,-1,72
 95 201 95 201 81 186 c 128,-1,73
 67 171 67 171 67 146 c 0,51,52
EndSplineSet
EndChar

StartChar: b
Encoding: 98 98 69
Width: 457
Flags: W
LayerCount: 2
Fore
SplineSet
88 9 m 1,0,1
 80 14 80 14 75 22.5 c 128,-1,2
 70 31 70 31 67 41 c 128,-1,3
 64 51 64 51 61.5 61 c 128,-1,4
 59 71 59 71 59 77 c 1,5,6
 57 88 57 88 54 111 c 128,-1,7
 51 134 51 134 47 164.5 c 128,-1,8
 43 195 43 195 39 229 c 128,-1,9
 35 263 35 263 31 294.5 c 128,-1,10
 27 326 27 326 24 351 c 128,-1,11
 21 376 21 376 20 389 c 0,12,13
 20 391 20 391 19.5 397 c 128,-1,14
 19 403 19 403 19 405 c 0,15,16
 19 420 19 420 25 424.5 c 128,-1,17
 31 429 31 429 46 429 c 0,18,19
 64 429 64 429 72 415.5 c 128,-1,20
 80 402 80 402 83.5 381 c 128,-1,21
 87 360 87 360 87.5 336 c 128,-1,22
 88 312 88 312 90.5 291 c 128,-1,23
 93 270 93 270 99 256.5 c 128,-1,24
 105 243 105 243 120 243 c 0,25,26
 142 243 142 243 164 246 c 128,-1,27
 186 249 186 249 208 253.5 c 128,-1,28
 230 258 230 258 252.5 260.5 c 128,-1,29
 275 263 275 263 297 263 c 2,30,-1
 307 263 l 2,31,32
 315 263 315 263 323.5 263 c 128,-1,33
 332 263 332 263 340 263 c 2,34,-1
 350 263 l 1,35,36
 373 251 373 251 389.5 232.5 c 128,-1,37
 406 214 406 214 417.5 192.5 c 128,-1,38
 429 171 429 171 436 146.5 c 128,-1,39
 443 122 443 122 448 98 c 1,40,41
 443 75 443 75 427.5 59 c 128,-1,42
 412 43 412 43 391 32 c 128,-1,43
 370 21 370 21 345 14.5 c 128,-1,44
 320 8 320 8 294.5 4.5 c 128,-1,45
 269 1 269 1 246 0 c 128,-1,46
 223 -1 223 -1 205 -1 c 0,47,48
 188 -1 188 -1 174.5 -0.5 c 128,-1,49
 161 0 161 0 148 1 c 128,-1,50
 135 2 135 2 120.5 4 c 128,-1,51
 106 6 106 6 88 9 c 1,0,1
116 141 m 0,52,53
 116 98 116 98 133 77.5 c 128,-1,54
 150 57 150 57 194 57 c 0,55,56
 203 57 203 57 221 57.5 c 128,-1,57
 239 58 239 58 259.5 60 c 128,-1,58
 280 62 280 62 302 65.5 c 128,-1,59
 324 69 324 69 341.5 75.5 c 128,-1,60
 359 82 359 82 370 91.5 c 128,-1,61
 381 101 381 101 381 116 c 0,62,63
 381 138 381 138 373 154.5 c 128,-1,64
 365 171 365 171 351 182.5 c 128,-1,65
 337 194 337 194 319 200 c 128,-1,66
 301 206 301 206 281 206 c 0,67,68
 260 206 260 206 238.5 204 c 128,-1,69
 217 202 217 202 195 198.5 c 128,-1,70
 173 195 173 195 153 186.5 c 128,-1,71
 133 178 133 178 116 166 c 1,72,73
 116 162 116 162 116 153 c 128,-1,74
 116 144 116 144 116 141 c 0,52,53
EndSplineSet
EndChar

StartChar: c
Encoding: 99 99 70
Width: 457
Flags: W
LayerCount: 2
Fore
SplineSet
8 154 m 0,0,1
 8 197 8 197 31 224.5 c 128,-1,2
 54 252 54 252 87.5 267 c 128,-1,3
 121 282 121 282 160.5 287.5 c 128,-1,4
 200 293 200 293 234 293 c 2,5,-1
 246 293 l 2,6,7
 253 293 253 293 262.5 292.5 c 128,-1,8
 272 292 272 292 280 292 c 2,9,-1
 292 292 l 1,10,11
 312 289 312 289 318 280.5 c 128,-1,12
 324 272 324 272 324 259 c 0,13,14
 324 243 324 243 313.5 233 c 128,-1,15
 303 223 303 223 287 223 c 0,16,17
 277 223 277 223 273.5 226.5 c 128,-1,18
 270 230 270 230 267.5 234 c 128,-1,19
 265 238 265 238 261 241.5 c 128,-1,20
 257 245 257 245 246 245 c 0,21,22
 231 245 231 245 212 243 c 128,-1,23
 193 241 193 241 173 237 c 128,-1,24
 153 233 153 233 134 226 c 128,-1,25
 115 219 115 219 100 208 c 128,-1,26
 85 197 85 197 76 181.5 c 128,-1,27
 67 166 67 166 67 144 c 0,28,29
 67 126 67 126 77.5 111.5 c 128,-1,30
 88 97 88 97 105 86 c 128,-1,31
 122 75 122 75 143.5 67.5 c 128,-1,32
 165 60 165 60 186 56 c 128,-1,33
 207 52 207 52 226.5 50 c 128,-1,34
 246 48 246 48 258 48 c 0,35,36
 286 48 286 48 310 56.5 c 128,-1,37
 334 65 334 65 357.5 75 c 128,-1,38
 381 85 381 85 404 93 c 128,-1,39
 427 101 427 101 451 101 c 1,40,41
 451 65 451 65 430.5 44 c 128,-1,42
 410 23 410 23 379 13 c 128,-1,43
 348 3 348 3 313 1 c 128,-1,44
 278 -1 278 -1 249 -1 c 0,45,46
 225 -1 225 -1 197.5 1.5 c 128,-1,47
 170 4 170 4 143 10.5 c 128,-1,48
 116 17 116 17 92 28 c 128,-1,49
 68 39 68 39 49.5 56.5 c 128,-1,50
 31 74 31 74 19.5 98 c 128,-1,51
 8 122 8 122 8 154 c 0,0,1
EndSplineSet
EndChar

StartChar: d
Encoding: 100 100 71
Width: 478
Flags: W
LayerCount: 2
Fore
SplineSet
368 30 m 0,0,1
 335 30 335 30 303.5 24.5 c 128,-1,2
 272 19 272 19 240 19 c 0,3,4
 218 19 218 19 192.5 19.5 c 128,-1,5
 167 20 167 20 141.5 23.5 c 128,-1,6
 116 27 116 27 92 34.5 c 128,-1,7
 68 42 68 42 49.5 55.5 c 128,-1,8
 31 69 31 69 19.5 89 c 128,-1,9
 8 109 8 109 8 139 c 0,10,11
 8 175 8 175 27.5 201 c 128,-1,12
 47 227 47 227 75.5 242.5 c 128,-1,13
 104 258 104 258 138.5 265.5 c 128,-1,14
 173 273 173 273 205 273 c 0,15,16
 247 273 247 273 290.5 259.5 c 128,-1,17
 334 246 334 246 371 224 c 1,18,-1
 371 409 l 2,19,20
 371 422 371 422 375.5 425.5 c 128,-1,21
 380 429 380 429 388 429 c 0,22,23
 402 429 402 429 412 401.5 c 128,-1,24
 422 374 422 374 429 331 c 128,-1,25
 436 288 436 288 440.5 236 c 128,-1,26
 445 184 445 184 447 136 c 128,-1,27
 449 88 449 88 449.5 50.5 c 128,-1,28
 450 13 450 13 450 -3 c 1,29,30
 434 -3 434 -3 422.5 2.5 c 128,-1,31
 411 8 411 8 402.5 14 c 128,-1,32
 394 20 394 20 386 25 c 128,-1,33
 378 30 378 30 368 30 c 0,0,1
67 139 m 0,34,35
 67 119 67 119 78 106.5 c 128,-1,36
 89 94 89 94 107 86 c 128,-1,37
 125 78 125 78 147 74 c 128,-1,38
 169 70 169 70 191 68.5 c 128,-1,39
 213 67 213 67 233 67 c 2,40,-1
 266 67 l 2,41,42
 268 67 268 67 284.5 66 c 128,-1,43
 301 65 301 65 320 66.5 c 128,-1,44
 339 68 339 68 355 72.5 c 128,-1,45
 371 77 371 77 371 88 c 2,46,-1
 371 195 l 1,47,48
 360 184 360 184 351.5 179 c 128,-1,49
 343 174 343 174 330 174 c 0,50,51
 329 174 329 174 319 180.5 c 128,-1,52
 309 187 309 187 292.5 194.5 c 128,-1,53
 276 202 276 202 254.5 208.5 c 128,-1,54
 233 215 233 215 208 215 c 0,55,56
 191 215 191 215 167 211.5 c 128,-1,57
 143 208 143 208 120.5 199.5 c 128,-1,58
 98 191 98 191 82.5 176 c 128,-1,59
 67 161 67 161 67 139 c 0,34,35
EndSplineSet
EndChar

StartChar: e
Encoding: 101 101 72
Width: 487
Flags: W
LayerCount: 2
Fore
SplineSet
19 176 m 0,0,1
 19 210 19 210 38 242 c 128,-1,2
 57 274 57 274 86.5 298 c 128,-1,3
 116 322 116 322 151.5 336 c 128,-1,4
 187 350 187 350 219 350 c 0,5,6
 245 350 245 350 270.5 343.5 c 128,-1,7
 296 337 296 337 316 323 c 128,-1,8
 336 309 336 309 348.5 288.5 c 128,-1,9
 361 268 361 268 361 240 c 0,10,11
 361 227 361 227 359.5 219.5 c 128,-1,12
 358 212 358 212 353 206.5 c 128,-1,13
 348 201 348 201 340.5 196.5 c 128,-1,14
 333 192 333 192 322 185 c 1,15,16
 316 184 316 184 304 180.5 c 128,-1,17
 292 177 292 177 276.5 173 c 128,-1,18
 261 169 261 169 244 165 c 128,-1,19
 227 161 227 161 211.5 157 c 128,-1,20
 196 153 196 153 184 150 c 128,-1,21
 172 147 172 147 166 146 c 0,22,23
 163 145 163 145 153 144 c 128,-1,24
 143 143 143 143 131.5 141.5 c 128,-1,25
 120 140 120 140 110 138.5 c 128,-1,26
 100 137 100 137 98 136 c 0,27,28
 95 135 95 135 91.5 131.5 c 128,-1,29
 88 128 88 128 88 127 c 0,30,31
 88 107 88 107 99 93.5 c 128,-1,32
 110 80 110 80 127 71 c 128,-1,33
 144 62 144 62 165.5 57.5 c 128,-1,34
 187 53 187 53 208 50.5 c 128,-1,35
 229 48 229 48 247 48 c 128,-1,36
 265 48 265 48 276 48 c 0,37,38
 326 48 326 48 374 53.5 c 128,-1,39
 422 59 422 59 472 59 c 1,40,-1
 472 51 l 2,41,42
 472 45 472 45 470.5 38.5 c 128,-1,43
 469 32 469 32 466 26.5 c 128,-1,44
 463 21 463 21 458 20 c 0,45,46
 420 12 420 12 390.5 7.5 c 128,-1,47
 361 3 361 3 335 1.5 c 128,-1,48
 309 0 309 0 281 -0.5 c 128,-1,49
 253 -1 253 -1 219 -1 c 2,50,-1
 202 -1 l 2,51,52
 191 -1 191 -1 178 -0.5 c 128,-1,53
 165 0 165 0 153 0 c 2,54,-1
 136 0 l 1,55,56
 105 8 105 8 82.5 25.5 c 128,-1,57
 60 43 60 43 46 67 c 128,-1,58
 32 91 32 91 25.5 119 c 128,-1,59
 19 147 19 147 19 176 c 0,0,1
243 294 m 0,60,61
 230 294 230 294 213.5 291.5 c 128,-1,62
 197 289 197 289 179.5 283.5 c 128,-1,63
 162 278 162 278 145 269.5 c 128,-1,64
 128 261 128 261 115 249.5 c 128,-1,65
 102 238 102 238 93.5 224 c 128,-1,66
 85 210 85 210 85 193 c 1,67,-1
 126 193 l 2,68,69
 148 193 148 193 171 195 c 128,-1,70
 194 197 194 197 216 201.5 c 128,-1,71
 238 206 238 206 254.5 215.5 c 128,-1,72
 271 225 271 225 281.5 240 c 128,-1,73
 292 255 292 255 292 277 c 2,74,-1
 292 282 l 1,75,-1
 282 292 l 1,76,77
 280 292 280 292 274.5 292.5 c 128,-1,78
 269 293 269 293 263 293.5 c 128,-1,79
 257 294 257 294 251.5 294 c 128,-1,80
 246 294 246 294 243 294 c 0,60,61
EndSplineSet
EndChar

StartChar: f
Encoding: 102 102 73
Width: 360
Flags: W
LayerCount: 2
Fore
SplineSet
19 312 m 0,0,1
 19 349 19 349 21 386.5 c 128,-1,2
 23 424 23 424 30 459 c 128,-1,3
 37 494 37 494 49.5 524 c 128,-1,4
 62 554 62 554 83.5 576.5 c 128,-1,5
 105 599 105 599 137 612 c 128,-1,6
 169 625 169 625 213 625 c 0,7,8
 241 625 241 625 265.5 618.5 c 128,-1,9
 290 612 290 612 309 598.5 c 128,-1,10
 328 585 328 585 340 563.5 c 128,-1,11
 352 542 352 542 352 512 c 0,12,13
 352 504 352 504 350 493.5 c 128,-1,14
 348 483 348 483 344 472.5 c 128,-1,15
 340 462 340 462 333.5 454.5 c 128,-1,16
 327 447 327 447 317 447 c 0,17,18
 315 447 315 447 314 447 c 256,19,20
 313 447 313 447 312 448 c 2,21,-1
 307 453 l 2,22,23
 303 457 303 457 302 458 c 1,24,25
 303 462 303 462 304.5 470 c 128,-1,26
 306 478 306 478 307.5 487 c 128,-1,27
 309 496 309 496 310 504.5 c 128,-1,28
 311 513 311 513 312 516 c 1,29,-1
 312 527 l 2,30,31
 312 543 312 543 300.5 552.5 c 128,-1,32
 289 562 289 562 273.5 567.5 c 128,-1,33
 258 573 258 573 241.5 575 c 128,-1,34
 225 577 225 577 215 577 c 0,35,36
 178 577 178 577 153.5 564 c 128,-1,37
 129 551 129 551 113.5 529 c 128,-1,38
 98 507 98 507 89 478.5 c 128,-1,39
 80 450 80 450 76 419.5 c 128,-1,40
 72 389 72 389 71 358.5 c 128,-1,41
 70 328 70 328 69 302 c 1,42,43
 72 294 72 294 76 286 c 128,-1,44
 80 278 80 278 88 273 c 1,45,46
 141 275 141 275 199.5 273.5 c 128,-1,47
 258 272 258 272 312 263 c 0,48,49
 317 262 317 262 319.5 257.5 c 128,-1,50
 322 253 322 253 323.5 247 c 128,-1,51
 325 241 325 241 325.5 235.5 c 128,-1,52
 326 230 326 230 326 228 c 1,53,54
 320 228 320 228 305.5 227.5 c 128,-1,55
 291 227 291 227 273 226.5 c 128,-1,56
 255 226 255 226 235.5 225.5 c 128,-1,57
 216 225 216 225 198 225 c 128,-1,58
 180 225 180 225 166 224.5 c 128,-1,59
 152 224 152 224 146 224 c 2,60,-1
 133 224 l 2,61,62
 125 224 125 224 114 222 c 128,-1,63
 103 220 103 220 92.5 216 c 128,-1,64
 82 212 82 212 78 205 c 1,65,-1
 78 195 l 1,66,-1
 127 -88 l 2,67,68
 128 -95 128 -95 125 -100.5 c 128,-1,69
 122 -106 122 -106 116 -110 c 128,-1,70
 110 -114 110 -114 104 -115.5 c 128,-1,71
 98 -117 98 -117 93 -117 c 0,72,73
 75 -117 75 -117 63 -91 c 128,-1,74
 51 -65 51 -65 43 -24.5 c 128,-1,75
 35 16 35 16 30 66 c 128,-1,76
 25 116 25 116 22.5 163.5 c 128,-1,77
 20 211 20 211 19.5 251 c 128,-1,78
 19 291 19 291 19 312 c 0,0,1
EndSplineSet
EndChar

StartChar: g
Encoding: 103 103 74
Width: 429
Flags: W
LayerCount: 2
Fore
SplineSet
17 -242 m 1,0,1
 29 -242 29 -242 39.5 -253.5 c 128,-1,2
 50 -265 50 -265 60 -280 c 128,-1,3
 70 -295 70 -295 79 -310.5 c 128,-1,4
 88 -326 88 -326 98 -332 c 1,5,6
 119 -349 119 -349 145.5 -360 c 128,-1,7
 172 -371 172 -371 200 -377.5 c 128,-1,8
 228 -384 228 -384 256.5 -387.5 c 128,-1,9
 285 -391 285 -391 312 -391 c 0,10,11
 314 -391 314 -391 319.5 -390.5 c 128,-1,12
 325 -390 325 -390 331 -390 c 128,-1,13
 337 -390 337 -390 342.5 -389.5 c 128,-1,14
 348 -389 348 -389 350 -389 c 0,15,16
 365 -382 365 -382 373.5 -370.5 c 128,-1,17
 382 -359 382 -359 385.5 -345.5 c 128,-1,18
 389 -332 389 -332 390 -317 c 128,-1,19
 391 -302 391 -302 391 -287 c 0,20,21
 391 -276 391 -276 389.5 -249.5 c 128,-1,22
 388 -223 388 -223 385 -187.5 c 128,-1,23
 382 -152 382 -152 377.5 -113 c 128,-1,24
 373 -74 373 -74 365.5 -39 c 128,-1,25
 358 -4 358 -4 347 22 c 128,-1,26
 336 48 336 48 322 58 c 1,27,28
 312 47 312 47 302 36.5 c 128,-1,29
 292 26 292 26 279.5 18 c 128,-1,30
 267 10 267 10 254 5 c 128,-1,31
 241 0 241 0 225 0 c 0,32,33
 193 0 193 0 157 7 c 128,-1,34
 121 14 121 14 90 31 c 128,-1,35
 59 48 59 48 39 74.5 c 128,-1,36
 19 101 19 101 19 141 c 0,37,38
 19 178 19 178 39 203.5 c 128,-1,39
 59 229 59 229 88.5 244.5 c 128,-1,40
 118 260 118 260 153 267 c 128,-1,41
 188 274 188 274 219 274 c 0,42,43
 229 274 229 274 243.5 273.5 c 128,-1,44
 258 273 258 273 273 271 c 128,-1,45
 288 269 288 269 301 265 c 128,-1,46
 314 261 314 261 322 253 c 0,47,48
 323 251 323 251 324.5 242.5 c 128,-1,49
 326 234 326 234 327.5 224 c 128,-1,50
 329 214 329 214 330 205 c 128,-1,51
 331 196 331 196 331 195 c 0,52,53
 335 177 335 177 342.5 160.5 c 128,-1,54
 350 144 350 144 359 126.5 c 128,-1,55
 368 109 368 109 376 92 c 128,-1,56
 384 75 384 75 389 58 c 0,57,58
 416 -28 416 -28 433 -113 c 128,-1,59
 450 -198 450 -198 450 -288 c 0,60,61
 450 -292 450 -292 449.5 -302.5 c 128,-1,62
 449 -313 449 -313 449 -324.5 c 128,-1,63
 449 -336 449 -336 448.5 -346.5 c 128,-1,64
 448 -357 448 -357 448 -361 c 0,65,66
 447 -387 447 -387 432 -404.5 c 128,-1,67
 417 -422 417 -422 395.5 -431.5 c 128,-1,68
 374 -441 374 -441 349.5 -445.5 c 128,-1,69
 325 -450 325 -450 306 -450 c 0,70,71
 274 -450 274 -450 239.5 -444.5 c 128,-1,72
 205 -439 205 -439 173 -428 c 128,-1,73
 141 -417 141 -417 112.5 -400.5 c 128,-1,74
 84 -384 84 -384 63 -361 c 128,-1,75
 42 -338 42 -338 29.5 -309 c 128,-1,76
 17 -280 17 -280 17 -242 c 1,0,1
77 135 m 0,77,78
 77 115 77 115 89 100 c 128,-1,79
 101 85 101 85 119 75.5 c 128,-1,80
 137 66 137 66 157 61.5 c 128,-1,81
 177 57 177 57 192 57 c 0,82,83
 249 57 249 57 271 85.5 c 128,-1,84
 293 114 293 114 293 169 c 0,85,86
 293 185 293 185 287 194.5 c 128,-1,87
 281 204 281 204 271 208 c 128,-1,88
 261 212 261 212 248 213.5 c 128,-1,89
 235 215 235 215 222 215 c 0,90,91
 204 215 204 215 179 211.5 c 128,-1,92
 154 208 154 208 131.5 199 c 128,-1,93
 109 190 109 190 93 174.5 c 128,-1,94
 77 159 77 159 77 135 c 0,77,78
EndSplineSet
EndChar

StartChar: h
Encoding: 104 104 75
Width: 516
Flags: W
LayerCount: 2
Fore
SplineSet
314 215 m 0,0,1
 284 215 284 215 262.5 204 c 128,-1,2
 241 193 241 193 224 177 c 128,-1,3
 207 161 207 161 195 141.5 c 128,-1,4
 183 122 183 122 171 105.5 c 128,-1,5
 159 89 159 89 146 78 c 128,-1,6
 133 67 133 67 116 67 c 0,7,8
 104 67 104 67 97.5 77 c 128,-1,9
 91 87 91 87 88 98 c 0,10,11
 75 141 75 141 61.5 190.5 c 128,-1,12
 48 240 48 240 36 291 c 128,-1,13
 24 342 24 342 16 393.5 c 128,-1,14
 8 445 8 445 8 492 c 2,15,-1
 8 498 l 2,16,17
 8 503 8 503 8.5 508.5 c 128,-1,18
 9 514 9 514 9 518 c 2,19,-1
 9 526 l 1,20,21
 11 535 11 535 19 535.5 c 128,-1,22
 27 536 27 536 34 536 c 0,23,24
 35 536 35 536 41.5 536 c 128,-1,25
 48 536 48 536 49 536 c 0,26,27
 51 521 51 521 56 490 c 128,-1,28
 61 459 61 459 68.5 421 c 128,-1,29
 76 383 76 383 84.5 342.5 c 128,-1,30
 93 302 93 302 102.5 269 c 128,-1,31
 112 236 112 236 122 215 c 128,-1,32
 132 194 132 194 141 194 c 0,33,34
 156 194 156 194 176 206 c 128,-1,35
 196 218 196 218 218.5 233 c 128,-1,36
 241 248 241 248 266.5 261 c 128,-1,37
 292 274 292 274 320 274 c 0,38,39
 326 274 326 274 336 273.5 c 128,-1,40
 346 273 346 273 356.5 272 c 128,-1,41
 367 271 367 271 376.5 269 c 128,-1,42
 386 267 386 267 389 263 c 2,43,-1
 478 175 l 2,44,45
 486 167 486 167 492 146 c 128,-1,46
 498 125 498 125 502 101 c 128,-1,47
 506 77 506 77 507 55.5 c 128,-1,48
 508 34 508 34 508 22 c 0,49,50
 508 8 508 8 499 3.5 c 128,-1,51
 490 -1 490 -1 478 -1 c 0,52,53
 462 -1 462 -1 455 15 c 128,-1,54
 448 31 448 31 442.5 55.5 c 128,-1,55
 437 80 437 80 430 107.5 c 128,-1,56
 423 135 423 135 410 159.5 c 128,-1,57
 397 184 397 184 374.5 199.5 c 128,-1,58
 352 215 352 215 314 215 c 0,0,1
EndSplineSet
EndChar

StartChar: i
Encoding: 105 105 76
Width: 117
Flags: W
LayerCount: 2
Fore
SplineSet
49 9 m 1,0,1
 42 29 42 29 36.5 52.5 c 128,-1,2
 31 76 31 76 27.5 101 c 128,-1,3
 24 126 24 126 22 150 c 128,-1,4
 20 174 20 174 20 195 c 0,5,6
 20 198 20 198 21 206.5 c 128,-1,7
 22 215 22 215 23.5 224 c 128,-1,8
 25 233 25 233 27 241.5 c 128,-1,9
 29 250 29 250 30 253 c 0,10,11
 31 254 31 254 39 255 c 128,-1,12
 47 256 47 256 49 256 c 0,13,14
 62 256 62 256 70 242 c 128,-1,15
 78 228 78 228 84 206 c 128,-1,16
 90 184 90 184 92.5 157.5 c 128,-1,17
 95 131 95 131 97 106.5 c 128,-1,18
 99 82 99 82 99 63 c 128,-1,19
 99 44 99 44 99 37 c 0,20,21
 99 34 99 34 99.5 27.5 c 128,-1,22
 100 21 100 21 99 14.5 c 128,-1,23
 98 8 98 8 94.5 4 c 128,-1,24
 91 0 91 0 83 0 c 2,25,-1
 79 0 l 2,26,27
 77 0 77 0 73 1.5 c 128,-1,28
 69 3 69 3 64 4.5 c 128,-1,29
 59 6 59 6 55 7 c 128,-1,30
 51 8 51 8 49 9 c 1,0,1
38 450 m 0,31,32
 38 475 38 475 70 487 c 0,33,34
 77 490 77 490 82.5 485 c 128,-1,35
 88 480 88 480 91.5 472 c 128,-1,36
 95 464 95 464 96.5 455.5 c 128,-1,37
 98 447 98 447 98 443 c 0,38,39
 98 437 98 437 95 433.5 c 128,-1,40
 92 430 92 430 87.5 429 c 128,-1,41
 83 428 83 428 78 428 c 2,42,-1
 70 428 l 2,43,44
 56 428 56 428 47 431 c 128,-1,45
 38 434 38 434 38 450 c 0,31,32
EndSplineSet
EndChar

StartChar: j
Encoding: 106 106 77
Width: 156
Flags: W
LayerCount: 2
Fore
SplineSet
-254 -229 m 0,0,1
 -254 -208 -254 -208 -253 -192.5 c 128,-1,2
 -252 -177 -252 -177 -244 -156 c 0,3,4
 -243 -156 -243 -156 -241.5 -155.5 c 128,-1,5
 -240 -155 -240 -155 -239 -155 c 2,6,7
 -239 -155 -239 -155 -238 -155.5 c 128,-1,8
 -237 -156 -237 -156 -236 -156 c 256,9,10
 -235 -156 -235 -156 -234 -156 c 0,11,12
 -233 -157 -233 -157 -229 -161 c 2,13,-1
 -224 -166 l 1,14,15
 -233 -264 -233 -264 -186 -312.5 c 128,-1,16
 -139 -361 -139 -361 -43 -361 c 0,17,18
 1 -361 1 -361 28.5 -342.5 c 128,-1,19
 56 -324 56 -324 71.5 -294 c 128,-1,20
 87 -264 87 -264 92.5 -226.5 c 128,-1,21
 98 -189 98 -189 98 -151 c 0,22,23
 98 -104 98 -104 89.5 -58 c 128,-1,24
 81 -12 81 -12 70 33.5 c 128,-1,25
 59 79 59 79 47.5 123.5 c 128,-1,26
 36 168 36 168 29 214 c 0,27,28
 29 220 29 220 31.5 225 c 128,-1,29
 34 230 34 230 38 234.5 c 128,-1,30
 42 239 42 239 48 241.5 c 128,-1,31
 54 244 54 244 59 244 c 0,32,33
 72 244 72 244 82.5 229.5 c 128,-1,34
 93 215 93 215 101.5 191.5 c 128,-1,35
 110 168 110 168 116 139 c 128,-1,36
 122 110 122 110 127.5 82 c 128,-1,37
 133 54 133 54 137 29.5 c 128,-1,38
 141 5 141 5 146 -9 c 1,39,-1
 146 -33 l 2,40,41
 146 -50 146 -50 146 -68.5 c 128,-1,42
 146 -87 146 -87 146 -104 c 2,43,-1
 146 -127 l 2,44,45
 146 -162 146 -162 145 -196.5 c 128,-1,46
 144 -231 144 -231 137.5 -262.5 c 128,-1,47
 131 -294 131 -294 119 -321 c 128,-1,48
 107 -348 107 -348 86 -368 c 128,-1,49
 65 -388 65 -388 34.5 -399 c 128,-1,50
 4 -410 4 -410 -39 -410 c 0,51,52
 -85 -410 -85 -410 -124 -399.5 c 128,-1,53
 -163 -389 -163 -389 -192 -367.5 c 128,-1,54
 -221 -346 -221 -346 -237.5 -311.5 c 128,-1,55
 -254 -277 -254 -277 -254 -229 c 0,0,1
-1 394 m 256,56,57
 -1 406 -1 406 9 412.5 c 128,-1,58
 19 419 19 419 29 419 c 0,59,60
 40 419 40 419 49.5 409.5 c 128,-1,61
 59 400 59 400 59 389 c 256,62,63
 59 378 59 378 49 369 c 128,-1,64
 39 360 39 360 28 360 c 0,65,66
 14 360 14 360 6.5 371 c 128,-1,67
 -1 382 -1 382 -1 394 c 256,56,57
EndSplineSet
EndChar

StartChar: k
Encoding: 107 107 78
Width: 575
Flags: W
LayerCount: 2
Fore
SplineSet
136 167 m 0,0,1
 131 167 131 167 123.5 165.5 c 128,-1,2
 116 164 116 164 116 156 c 2,3,-1
 116 20 l 2,4,5
 116 19 116 19 109 15 c 128,-1,6
 102 11 102 11 98 9 c 1,7,-1
 88 9 l 1,8,9
 79 14 79 14 72 16 c 1,10,11
 67 20 67 20 63 23 c 128,-1,12
 59 26 59 26 59 29 c 2,13,-1
 59 146 l 1,14,15
 57 146 57 146 50.5 150 c 128,-1,16
 44 154 44 154 37.5 159 c 128,-1,17
 31 164 31 164 25.5 169.5 c 128,-1,18
 20 175 20 175 20 180 c 0,19,20
 20 192 20 192 30 205 c 128,-1,21
 40 218 40 218 49 224 c 1,22,-1
 49 238 l 2,23,24
 49 249 49 249 49 261 c 128,-1,25
 49 273 49 273 49 283 c 2,26,-1
 49 297 l 2,27,28
 49 326 49 326 49 349.5 c 128,-1,29
 49 373 49 373 47 394.5 c 128,-1,30
 45 416 45 416 41 440.5 c 128,-1,31
 37 465 37 465 29 496 c 0,32,33
 29 500 29 500 32 505.5 c 128,-1,34
 35 511 35 511 39 516.5 c 128,-1,35
 43 522 43 522 48.5 525.5 c 128,-1,36
 54 529 54 529 59 526 c 0,37,38
 70 521 70 521 79 502 c 128,-1,39
 88 483 88 483 94 456 c 128,-1,40
 100 429 100 429 104 397.5 c 128,-1,41
 108 366 108 366 110.5 337.5 c 128,-1,42
 113 309 113 309 114.5 286 c 128,-1,43
 116 263 116 263 116 253 c 1,44,45
 132 266 132 266 150 274.5 c 128,-1,46
 168 283 168 283 186.5 291 c 128,-1,47
 205 299 205 299 222 308 c 128,-1,48
 239 317 239 317 253 331 c 0,49,50
 259 337 259 337 266 348.5 c 128,-1,51
 273 360 273 360 280 371.5 c 128,-1,52
 287 383 287 383 296 391 c 128,-1,53
 305 399 305 399 317 399 c 0,54,55
 323 399 323 399 326.5 396.5 c 128,-1,56
 330 394 330 394 331 389.5 c 128,-1,57
 332 385 332 385 332 380 c 2,58,-1
 332 371 l 2,59,60
 332 345 332 345 318 324 c 128,-1,61
 304 303 304 303 283.5 285.5 c 128,-1,62
 263 268 263 268 239 254.5 c 128,-1,63
 215 241 215 241 195 234 c 1,64,65
 235 187 235 187 271 155 c 128,-1,66
 307 123 307 123 346.5 100.5 c 128,-1,67
 386 78 386 78 434 63.5 c 128,-1,68
 482 49 482 49 546 39 c 1,69,70
 558 39 558 39 562.5 34 c 128,-1,71
 567 29 567 29 567 20 c 0,72,73
 567 19 567 19 566 14.5 c 128,-1,74
 565 10 565 10 565 9 c 0,75,76
 547 3 547 3 533 1 c 128,-1,77
 519 -1 519 -1 501 -1 c 0,78,79
 478 -1 478 -1 452 1 c 128,-1,80
 426 3 426 3 399.5 7.5 c 128,-1,81
 373 12 373 12 348.5 19.5 c 128,-1,82
 324 27 324 27 302 39 c 256,83,84
 280 51 280 51 262 72 c 128,-1,85
 244 93 244 93 225.5 114.5 c 128,-1,86
 207 136 207 136 185.5 151.5 c 128,-1,87
 164 167 164 167 136 167 c 0,0,1
EndSplineSet
EndChar

StartChar: l
Encoding: 108 108 79
Width: 263
Flags: W
LayerCount: 2
Fore
SplineSet
8 167 m 0,0,1
 8 220 8 220 12.5 267 c 128,-1,2
 17 314 17 314 21.5 362 c 128,-1,3
 26 410 26 410 28.5 459 c 128,-1,4
 31 508 31 508 29 565 c 1,5,6
 30 569 30 569 32 574 c 128,-1,7
 34 579 34 579 37.5 583.5 c 128,-1,8
 41 588 41 588 45 591.5 c 128,-1,9
 49 595 49 595 54 595 c 0,10,11
 66 595 66 595 74 582.5 c 128,-1,12
 82 570 82 570 85.5 550.5 c 128,-1,13
 89 531 89 531 90 508 c 128,-1,14
 91 485 91 485 90.5 463.5 c 128,-1,15
 90 442 90 442 89 426 c 128,-1,16
 88 410 88 410 88 404 c 0,17,18
 88 345 88 345 82.5 287.5 c 128,-1,19
 77 230 77 230 77 170 c 2,20,-1
 77 154 l 2,21,22
 77 142 77 142 77 129 c 128,-1,23
 77 116 77 116 77 104 c 2,24,-1
 77 88 l 1,25,26
 78 78 78 78 84 71.5 c 128,-1,27
 90 65 90 65 97.5 60.5 c 128,-1,28
 105 56 105 56 113 53 c 128,-1,29
 121 50 121 50 127 49 c 0,30,31
 131 49 131 49 140.5 48.5 c 128,-1,32
 150 48 150 48 161 48 c 128,-1,33
 172 48 172 48 181.5 48 c 128,-1,34
 191 48 191 48 195 48 c 0,35,36
 212 48 212 48 222.5 48.5 c 128,-1,37
 233 49 233 49 239.5 50 c 128,-1,38
 246 51 246 51 252 52.5 c 128,-1,39
 258 54 258 54 265 54.5 c 128,-1,40
 272 55 272 55 282 56 c 128,-1,41
 292 57 292 57 309 57 c 1,42,43
 309 24 309 24 296 11 c 128,-1,44
 283 -2 283 -2 262.5 -4.5 c 128,-1,45
 242 -7 242 -7 217.5 -4 c 128,-1,46
 193 -1 193 -1 170 -1 c 2,47,-1
 156 -1 l 2,48,49
 146 -1 146 -1 134 -0.5 c 128,-1,50
 122 0 122 0 111 0 c 2,51,-1
 98 0 l 1,52,53
 67 6 67 6 49 22.5 c 128,-1,54
 31 39 31 39 22.5 62.5 c 128,-1,55
 14 86 14 86 11 113 c 128,-1,56
 8 140 8 140 8 167 c 0,0,1
EndSplineSet
EndChar

StartChar: m
Encoding: 109 109 80
Width: 779
Flags: W
LayerCount: 2
Fore
SplineSet
589 225 m 0,0,1
 559 225 559 225 537.5 212.5 c 128,-1,2
 516 200 516 200 498 181.5 c 128,-1,3
 480 163 480 163 465 141 c 128,-1,4
 450 119 450 119 433.5 100.5 c 128,-1,5
 417 82 417 82 398 69.5 c 128,-1,6
 379 57 379 57 354 57 c 1,7,8
 354 76 354 76 353 100 c 128,-1,9
 352 124 352 124 348 149 c 128,-1,10
 344 174 344 174 337 198.5 c 128,-1,11
 330 223 330 223 317 241.5 c 128,-1,12
 304 260 304 260 284.5 271.5 c 128,-1,13
 265 283 265 283 238 283 c 0,14,15
 204 283 204 283 179.5 267 c 128,-1,16
 155 251 155 251 138.5 226 c 128,-1,17
 122 201 122 201 114 170.5 c 128,-1,18
 106 140 106 140 106 110 c 1,19,20
 93 110 93 110 86.5 107.5 c 128,-1,21
 80 105 80 105 73.5 102 c 128,-1,22
 67 99 67 99 60.5 96 c 128,-1,23
 54 93 54 93 42 93 c 1,24,25
 42 118 42 118 38 142.5 c 128,-1,26
 34 167 34 167 30 191 c 128,-1,27
 26 215 26 215 22.5 239 c 128,-1,28
 19 263 19 263 19 287 c 2,29,-1
 19 294 l 2,30,31
 19 299 19 299 19.5 304.5 c 128,-1,32
 20 310 20 310 20 314 c 2,33,-1
 20 322 l 1,34,35
 23 330 23 330 28 331 c 128,-1,36
 33 332 33 332 39 332 c 0,37,38
 52 332 52 332 59 322 c 128,-1,39
 66 312 66 312 70 298.5 c 128,-1,40
 74 285 74 285 75.5 271.5 c 128,-1,41
 77 258 77 258 78 253 c 1,42,-1
 88 253 l 1,43,44
 120 297 120 297 162.5 319 c 128,-1,45
 205 341 205 341 258 341 c 0,46,47
 294 341 294 341 318.5 325 c 128,-1,48
 343 309 343 309 360 285 c 128,-1,49
 377 261 377 261 388 231.5 c 128,-1,50
 399 202 399 202 409 175 c 1,51,-1
 419 175 l 1,52,53
 441 195 441 195 464.5 215 c 128,-1,54
 488 235 488 235 512.5 249.5 c 128,-1,55
 537 264 537 264 564.5 273.5 c 128,-1,56
 592 283 592 283 625 283 c 0,57,58
 649 283 649 283 669.5 267.5 c 128,-1,59
 690 252 690 252 706.5 227 c 128,-1,60
 723 202 723 202 735 171.5 c 128,-1,61
 747 141 747 141 755 109 c 128,-1,62
 763 77 763 77 767 48 c 128,-1,63
 771 19 771 19 771 -3 c 1,64,65
 734 -3 734 -3 717 14 c 128,-1,66
 700 31 700 31 692 56.5 c 128,-1,67
 684 82 684 82 681 111.5 c 128,-1,68
 678 141 678 141 670 166 c 128,-1,69
 662 191 662 191 644 208 c 128,-1,70
 626 225 626 225 589 225 c 0,0,1
EndSplineSet
EndChar

StartChar: n
Encoding: 110 110 81
Width: 448
Flags: W
LayerCount: 2
Fore
SplineSet
261 215 m 0,0,1
 226 215 226 215 199.5 202.5 c 128,-1,2
 173 190 173 190 152 170 c 128,-1,3
 131 150 131 150 117 127.5 c 128,-1,4
 103 105 103 105 92.5 85 c 128,-1,5
 82 65 82 65 76.5 52 c 128,-1,6
 71 39 71 39 69 39 c 0,7,8
 42 39 42 39 31 53 c 128,-1,9
 20 67 20 67 17 87.5 c 128,-1,10
 14 108 14 108 16.5 130.5 c 128,-1,11
 19 153 19 153 19 170 c 2,12,-1
 19 187 l 2,13,14
 19 199 19 199 19.5 212 c 128,-1,15
 20 225 20 225 20 236 c 2,16,-1
 20 253 l 1,17,18
 23 261 23 261 28 262 c 128,-1,19
 33 263 33 263 39 263 c 0,20,21
 48 263 48 263 54 252.5 c 128,-1,22
 60 242 60 242 65 227 c 128,-1,23
 70 212 70 212 73 197.5 c 128,-1,24
 76 183 76 183 78 175 c 1,25,26
 90 177 90 177 100 185 c 128,-1,27
 110 193 110 193 120.5 204 c 128,-1,28
 131 215 131 215 143 227 c 128,-1,29
 155 239 155 239 171 249.5 c 128,-1,30
 187 260 187 260 208.5 267 c 128,-1,31
 230 274 230 274 258 274 c 0,32,33
 314 274 314 274 350 249.5 c 128,-1,34
 386 225 386 225 405.5 185.5 c 128,-1,35
 425 146 425 146 432 96.5 c 128,-1,36
 439 47 439 47 439 -4 c 1,37,38
 409 -4 409 -4 392.5 5.5 c 128,-1,39
 376 15 376 15 369 30.5 c 128,-1,40
 362 46 362 46 361 65.5 c 128,-1,41
 360 85 360 85 360 105.5 c 128,-1,42
 360 126 360 126 357.5 146 c 128,-1,43
 355 166 355 166 345.5 181 c 128,-1,44
 336 196 336 196 316.5 205.5 c 128,-1,45
 297 215 297 215 261 215 c 0,0,1
EndSplineSet
EndChar

StartChar: o
Encoding: 111 111 82
Width: 419
Flags: W
LayerCount: 2
Fore
SplineSet
19 118 m 0,0,1
 19 152 19 152 31 188 c 128,-1,2
 43 224 43 224 65.5 254 c 128,-1,3
 88 284 88 284 119 303 c 128,-1,4
 150 322 150 322 190 322 c 0,5,6
 246 322 246 322 284 311 c 128,-1,7
 322 300 322 300 346 277.5 c 128,-1,8
 370 255 370 255 380.5 219.5 c 128,-1,9
 391 184 391 184 391 136 c 0,10,11
 391 133 391 133 390.5 124.5 c 128,-1,12
 390 116 390 116 390 107 c 128,-1,13
 390 98 390 98 389.5 89.5 c 128,-1,14
 389 81 389 81 389 77 c 1,15,16
 382 52 382 52 362.5 36.5 c 128,-1,17
 343 21 343 21 317.5 13 c 128,-1,18
 292 5 292 5 264.5 2 c 128,-1,19
 237 -1 237 -1 215 -1 c 0,20,21
 184 -1 184 -1 150 3 c 128,-1,22
 116 7 116 7 86.5 19.5 c 128,-1,23
 57 32 57 32 38 55.5 c 128,-1,24
 19 79 19 79 19 118 c 0,0,1
69 131 m 0,25,26
 69 105 69 105 84.5 88.5 c 128,-1,27
 100 72 100 72 122 63 c 128,-1,28
 144 54 144 54 169.5 51 c 128,-1,29
 195 48 195 48 213 48 c 256,30,31
 231 48 231 48 244.5 48 c 128,-1,32
 258 48 258 48 271 51 c 128,-1,33
 284 54 284 54 298 60 c 128,-1,34
 312 66 312 66 331 77 c 1,35,36
 341 93 341 93 342 108.5 c 128,-1,37
 343 124 343 124 343 141 c 0,38,39
 343 175 343 175 330 201 c 128,-1,40
 317 227 317 227 295 243 c 128,-1,41
 273 259 273 259 242.5 264.5 c 128,-1,42
 212 270 212 270 175 263 c 0,43,44
 160 260 160 260 141 245 c 128,-1,45
 122 230 122 230 106 210 c 128,-1,46
 90 190 90 190 79.5 168.5 c 128,-1,47
 69 147 69 147 69 131 c 0,25,26
EndSplineSet
EndChar

StartChar: p
Encoding: 112 112 83
Width: 423
Flags: W
LayerCount: 2
Fore
SplineSet
36 -337 m 1,0,1
 47 -236 47 -236 45.5 -149.5 c 128,-1,2
 44 -63 44 -63 39 8.5 c 128,-1,3
 34 80 34 80 29 137 c 128,-1,4
 24 194 24 194 27.5 235 c 128,-1,5
 31 276 31 276 46 303 c 128,-1,6
 61 330 61 330 97 340.5 c 128,-1,7
 133 351 133 351 192.5 347 c 128,-1,8
 252 343 252 343 345 322 c 1,9,10
 366 310 366 310 378 296.5 c 128,-1,11
 390 283 390 283 395.5 266.5 c 128,-1,12
 401 250 401 250 402.5 230 c 128,-1,13
 404 210 404 210 404 187 c 0,14,15
 404 161 404 161 386 141 c 128,-1,16
 368 121 368 121 340 107 c 128,-1,17
 312 93 312 93 277.5 82.5 c 128,-1,18
 243 72 243 72 209.5 65.5 c 128,-1,19
 176 59 176 59 147 55 c 128,-1,20
 118 51 118 51 101 49 c 1,21,22
 97 42 97 42 95 21.5 c 128,-1,23
 93 1 93 1 93 -28 c 128,-1,24
 93 -57 93 -57 94 -89.5 c 128,-1,25
 95 -122 95 -122 96.5 -153 c 128,-1,26
 98 -184 98 -184 98 -210 c 128,-1,27
 98 -236 98 -236 97 -250 c 1,28,29
 95 -259 95 -259 94 -274.5 c 128,-1,30
 93 -290 93 -290 91 -304 c 128,-1,31
 89 -318 89 -318 88 -327 c 2,32,-1
 87 -337 l 1,33,-1
 36 -337 l 1,0,1
241 286 m 1,34,35
 189 297 189 297 147.5 292 c 128,-1,36
 106 287 106 287 84 265.5 c 128,-1,37
 62 244 62 244 62.5 204 c 128,-1,38
 63 164 63 164 95 102 c 1,39,40
 113 102 113 102 138 103.5 c 128,-1,41
 163 105 163 105 190.5 110 c 128,-1,42
 218 115 218 115 246 123 c 128,-1,43
 274 131 274 131 296.5 143.5 c 128,-1,44
 319 156 319 156 332.5 173 c 128,-1,45
 346 190 346 190 346 212 c 1,46,47
 351 235 351 235 345 248 c 128,-1,48
 339 261 339 261 324 268 c 128,-1,49
 309 275 309 275 287.5 279 c 128,-1,50
 266 283 266 283 241 286 c 1,34,35
EndSplineSet
EndChar

StartChar: q
Encoding: 113 113 84
Width: 389
Flags: W
LayerCount: 2
Fore
SplineSet
214 -344 m 0,0,1
 214 -342 214 -342 214.5 -338 c 128,-1,2
 215 -334 215 -334 215 -333 c 2,3,-1
 274 8 l 1,4,-1
 274 46 l 1,5,6
 252 46 252 46 232 41.5 c 128,-1,7
 212 37 212 37 190 37 c 0,8,9
 166 37 166 37 136 39.5 c 128,-1,10
 106 42 106 42 80 52 c 128,-1,11
 54 62 54 62 37 81 c 128,-1,12
 20 100 20 100 20 132 c 256,13,14
 20 164 20 164 41.5 188.5 c 128,-1,15
 63 213 63 213 94 229.5 c 128,-1,16
 125 246 125 246 159 254.5 c 128,-1,17
 193 263 193 263 218 263 c 0,18,19
 241 263 241 263 266.5 258.5 c 128,-1,20
 292 254 292 254 313.5 243.5 c 128,-1,21
 335 233 335 233 349 215 c 128,-1,22
 363 197 363 197 363 169 c 2,23,-1
 363 161 l 2,24,25
 363 156 363 156 362.5 150 c 128,-1,26
 362 144 362 144 361.5 140 c 128,-1,27
 361 136 361 136 360 134 c 2,28,-1
 274 -234 l 1,29,30
 314 -190 314 -190 344 -158 c 128,-1,31
 374 -126 374 -126 398 -107.5 c 128,-1,32
 422 -89 422 -89 439.5 -86 c 128,-1,33
 457 -83 457 -83 472 -99 c 1,34,35
 472 -103 472 -103 461.5 -115 c 128,-1,36
 451 -127 451 -127 435.5 -144 c 128,-1,37
 420 -161 420 -161 400.5 -181 c 128,-1,38
 381 -201 381 -201 362 -221 c 128,-1,39
 343 -241 343 -241 327.5 -260.5 c 128,-1,40
 312 -280 312 -280 303 -295 c 0,41,42
 292 -313 292 -313 287 -325.5 c 128,-1,43
 282 -338 282 -338 276.5 -346 c 128,-1,44
 271 -354 271 -354 261 -358 c 128,-1,45
 251 -362 251 -362 229 -362 c 0,46,47
 220 -362 220 -362 217 -356.5 c 128,-1,48
 214 -351 214 -351 214 -344 c 0,0,1
77 136 m 0,49,50
 77 126 77 126 82.5 119.5 c 128,-1,51
 88 113 88 113 96 109 c 128,-1,52
 104 105 104 105 112.5 101.5 c 128,-1,53
 121 98 121 98 127 95 c 1,54,55
 131 95 131 95 139 95 c 128,-1,56
 147 95 147 95 157 95 c 128,-1,57
 167 95 167 95 175 94.5 c 128,-1,58
 183 94 183 94 186 94 c 0,59,60
 213 94 213 94 235 95.5 c 128,-1,61
 257 97 257 97 272 105 c 128,-1,62
 287 113 287 113 295 130.5 c 128,-1,63
 303 148 303 148 303 179 c 0,64,65
 303 193 303 193 296 200 c 128,-1,66
 289 207 289 207 278.5 209.5 c 128,-1,67
 268 212 268 212 254.5 212 c 128,-1,68
 241 212 241 212 229 212 c 0,69,70
 215 212 215 212 189.5 208.5 c 128,-1,71
 164 205 164 205 139.5 195.5 c 128,-1,72
 115 186 115 186 96 171 c 128,-1,73
 77 156 77 156 77 136 c 0,49,50
EndSplineSet
EndChar

StartChar: r
Encoding: 114 114 85
Width: 457
Flags: W
LayerCount: 2
Fore
SplineSet
29 195 m 2,0,1
 28 195 28 195 24 198.5 c 128,-1,2
 20 202 20 202 20 205 c 1,3,4
 19 205 19 205 19 207 c 2,5,-1
 19 212 l 2,6,7
 19 213 19 213 20 214 c 0,8,9
 31 225 31 225 38.5 230 c 128,-1,10
 46 235 46 235 59 235 c 0,11,12
 63 235 63 235 66.5 233 c 128,-1,13
 70 231 70 231 72 229 c 128,-1,14
 74 227 74 227 76.5 225 c 128,-1,15
 79 223 79 223 82 223 c 256,16,17
 85 223 85 223 94 232.5 c 128,-1,18
 103 242 103 242 118 256 c 128,-1,19
 133 270 133 270 155 286.5 c 128,-1,20
 177 303 177 303 204.5 317 c 128,-1,21
 232 331 232 331 264.5 340.5 c 128,-1,22
 297 350 297 350 336 350 c 2,23,-1
 342 350 l 1,24,25
 346 349 346 349 358.5 346.5 c 128,-1,26
 371 344 371 344 385 340.5 c 128,-1,27
 399 337 399 337 411.5 334.5 c 128,-1,28
 424 332 424 332 429 331 c 0,29,30
 430 330 430 330 433 327.5 c 128,-1,31
 436 325 436 325 439 322.5 c 128,-1,32
 442 320 442 320 444.5 317 c 128,-1,33
 447 314 447 314 448 312 c 0,34,35
 448 311 448 311 449 309 c 2,36,37
 449 309 449 309 449.5 308 c 128,-1,38
 450 307 450 307 450 307 c 1,39,-1
 449 305 l 1,40,41
 449 305 449 305 449 304 c 0,42,43
 448 303 448 303 448 302 c 0,44,45
 447 299 447 299 443 295.5 c 128,-1,46
 439 292 439 292 439 292 c 1,47,-1
 263 292 l 2,48,49
 241 292 241 292 215.5 279.5 c 128,-1,50
 190 267 190 267 167.5 247.5 c 128,-1,51
 145 228 145 228 130.5 203.5 c 128,-1,52
 116 179 116 179 116 156 c 2,53,-1
 116 14 l 1,54,55
 105 14 105 14 100 11.5 c 128,-1,56
 95 9 95 9 91.5 6 c 128,-1,57
 88 3 88 3 84 1 c 128,-1,58
 80 -1 80 -1 73 -1 c 2,59,-1
 71 -1 l 2,60,61
 70 -1 70 -1 69 0 c 0,62,63
 65 1 65 1 62 4.5 c 128,-1,64
 59 8 59 8 59 9 c 2,65,-1
 29 195 l 2,0,1
EndSplineSet
EndChar

StartChar: s
Encoding: 115 115 86
Width: 457
Flags: W
LayerCount: 2
Fore
SplineSet
106 61 m 2,0,-1
 106 82 l 2,1,2
 106 95 106 95 108 107 c 128,-1,3
 110 119 110 119 116 128 c 128,-1,4
 122 137 122 137 133 137 c 1,5,-1
 133 136 l 1,6,-1
 136 136 l 1,7,-1
 156 59 l 1,8,9
 156 55 156 55 160 53 c 128,-1,10
 164 51 164 51 168.5 49.5 c 128,-1,11
 173 48 173 48 177.5 48 c 128,-1,12
 182 48 182 48 185 48 c 0,13,14
 187 48 187 48 190.5 48.5 c 128,-1,15
 194 49 194 49 195 49 c 0,16,17
 201 50 201 50 218 54.5 c 128,-1,18
 235 59 235 59 253.5 63 c 128,-1,19
 272 67 272 67 288.5 71.5 c 128,-1,20
 305 76 305 76 312 77 c 1,21,22
 317 85 317 85 327 91.5 c 128,-1,23
 337 98 337 98 347 104 c 128,-1,24
 357 110 357 110 364 117 c 128,-1,25
 371 124 371 124 371 135 c 0,26,27
 371 160 371 160 358.5 175 c 128,-1,28
 346 190 346 190 326.5 197.5 c 128,-1,29
 307 205 307 205 285 208 c 128,-1,30
 263 211 263 211 243 214 c 0,31,32
 235 215 235 215 217.5 217.5 c 128,-1,33
 200 220 200 220 178 223 c 128,-1,34
 156 226 156 226 132 229.5 c 128,-1,35
 108 233 108 233 85.5 235.5 c 128,-1,36
 63 238 63 238 45.5 240 c 128,-1,37
 28 242 28 242 20 243 c 1,38,39
 14 247 14 247 7 257 c 128,-1,40
 0 267 0 267 0 273 c 0,41,42
 0 290 0 290 18.5 304.5 c 128,-1,43
 37 319 37 319 65 331 c 128,-1,44
 93 343 93 343 128.5 352 c 128,-1,45
 164 361 164 361 198.5 368 c 128,-1,46
 233 375 233 375 262.5 378 c 128,-1,47
 292 381 292 381 308 381 c 0,48,49
 320 381 320 381 330.5 373 c 128,-1,50
 341 365 341 365 341 350 c 0,51,52
 341 338 341 338 334.5 332.5 c 128,-1,53
 328 327 328 327 318.5 325.5 c 128,-1,54
 309 324 309 324 299.5 323.5 c 128,-1,55
 290 323 290 323 282 322 c 0,56,57
 266 319 266 319 241.5 314 c 128,-1,58
 217 309 217 309 193 304 c 128,-1,59
 169 299 169 299 153 296 c 2,60,-1
 136 292 l 1,61,-1
 136 281 l 1,62,63
 155 281 155 281 184 280 c 128,-1,64
 213 279 213 279 246 275 c 128,-1,65
 279 271 279 271 311.5 262.5 c 128,-1,66
 344 254 344 254 370 239.5 c 128,-1,67
 396 225 396 225 412.5 203.5 c 128,-1,68
 429 182 429 182 429 151 c 0,69,70
 429 109 429 109 406 80 c 128,-1,71
 383 51 383 51 348 33 c 128,-1,72
 313 15 313 15 272 7 c 128,-1,73
 231 -1 231 -1 196 -1 c 0,74,75
 182 -1 182 -1 166 1.5 c 128,-1,76
 150 4 150 4 136.5 11 c 128,-1,77
 123 18 123 18 114.5 30 c 128,-1,78
 106 42 106 42 106 61 c 2,0,-1
EndSplineSet
EndChar

StartChar: t
Encoding: 116 116 87
Width: 516
Flags: W
LayerCount: 2
Fore
SplineSet
140 261 m 1,0,1
 112 261 112 261 88.5 256.5 c 128,-1,2
 65 252 65 252 37 252 c 0,3,4
 26 252 26 252 23 260.5 c 128,-1,5
 20 269 20 269 20 277 c 2,6,-1
 20 282 l 1,7,8
 22 286 22 286 26.5 292 c 128,-1,9
 31 298 31 298 36 303.5 c 128,-1,10
 41 309 41 309 44.5 313 c 128,-1,11
 48 317 48 317 49 317 c 2,12,-1
 141 317 l 1,13,-1
 141 467 l 2,14,15
 141 471 141 471 144 473 c 128,-1,16
 147 475 147 475 151.5 476.5 c 128,-1,17
 156 478 156 478 160 478.5 c 128,-1,18
 164 479 164 479 166 479 c 0,19,20
 182 479 182 479 189.5 467.5 c 128,-1,21
 197 456 197 456 199.5 439 c 128,-1,22
 202 422 202 422 201.5 402 c 128,-1,23
 201 382 201 382 201 365 c 128,-1,24
 201 348 201 348 203.5 335.5 c 128,-1,25
 206 323 206 323 215 322 c 0,26,27
 223 321 223 321 245.5 318.5 c 128,-1,28
 268 316 268 316 292.5 312.5 c 128,-1,29
 317 309 317 309 339 306 c 128,-1,30
 361 303 361 303 371 302 c 0,31,32
 373 302 373 302 378.5 300.5 c 128,-1,33
 384 299 384 299 390.5 298 c 128,-1,34
 397 297 397 297 402 295 c 128,-1,35
 407 293 407 293 409 292 c 0,36,37
 411 292 411 292 415 288 c 128,-1,38
 419 284 419 284 419 282 c 0,39,40
 419 275 419 275 415 269 c 128,-1,41
 411 263 411 263 405 259.5 c 128,-1,42
 399 256 399 256 392.5 254.5 c 128,-1,43
 386 253 386 253 380 253 c 0,44,45
 378 253 378 253 369 254.5 c 128,-1,46
 360 256 360 256 350.5 258 c 128,-1,47
 341 260 341 260 332.5 261.5 c 128,-1,48
 324 263 324 263 322 263 c 2,49,-1
 312 263 l 2,50,51
 303 263 303 263 293 263 c 128,-1,52
 283 263 283 263 273 263 c 2,53,-1
 246 263 l 2,54,55
 239 263 239 263 232 263 c 128,-1,56
 225 263 225 263 220 263 c 2,57,-1
 215 263 l 1,58,-1
 205 253 l 2,59,60
 205 252 205 252 205 246 c 128,-1,61
 205 240 205 240 204 232 c 128,-1,62
 203 224 203 224 202.5 215.5 c 128,-1,63
 202 207 202 207 202 202 c 0,64,65
 202 148 202 148 213 117 c 128,-1,66
 224 86 224 86 247.5 70.5 c 128,-1,67
 271 55 271 55 307.5 51.5 c 128,-1,68
 344 48 344 48 397 48 c 0,69,70
 403 48 403 48 413 48 c 128,-1,71
 423 48 423 48 433 48 c 128,-1,72
 443 48 443 48 450 48.5 c 128,-1,73
 457 49 457 49 458 49 c 256,74,75
 459 49 459 49 463 50.5 c 128,-1,76
 467 52 467 52 472.5 53.5 c 128,-1,77
 478 55 478 55 481.5 57 c 128,-1,78
 485 59 485 59 487 59 c 0,79,80
 491 59 491 59 493.5 55.5 c 128,-1,81
 496 52 496 52 497 47 c 128,-1,82
 498 42 498 42 498 38 c 2,83,-1
 498 31 l 2,84,85
 498 15 498 15 491 8 c 128,-1,86
 484 1 484 1 458 0 c 1,87,-1
 441 0 l 2,88,89
 429 0 429 0 416.5 -0.5 c 128,-1,90
 404 -1 404 -1 391 -1 c 2,91,-1
 376 -1 l 2,92,93
 319 -1 319 -1 279 3.5 c 128,-1,94
 239 8 239 8 213 18.5 c 128,-1,95
 187 29 187 29 172 47 c 128,-1,96
 157 65 157 65 150.5 94 c 128,-1,97
 144 123 144 123 142 164 c 128,-1,98
 140 205 140 205 140 261 c 1,0,1
EndSplineSet
EndChar

StartChar: u
Encoding: 117 117 88
Width: 614
Flags: W
LayerCount: 2
Fore
SplineSet
346 88 m 0,0,1
 320 88 320 88 294.5 75.5 c 128,-1,2
 269 63 269 63 242 47 c 128,-1,3
 215 31 215 31 186 18.5 c 128,-1,4
 157 6 157 6 127 6 c 0,5,6
 123 6 123 6 115 6.5 c 128,-1,7
 107 7 107 7 97.5 7.5 c 128,-1,8
 88 8 88 8 80 8 c 128,-1,9
 72 8 72 8 69 9 c 0,10,11
 50 20 50 20 38.5 35 c 128,-1,12
 27 50 27 50 20.5 67.5 c 128,-1,13
 14 85 14 85 11 104 c 128,-1,14
 8 123 8 123 8 142 c 2,15,-1
 8 170 l 2,16,17
 8 188 8 188 9.5 209 c 128,-1,18
 11 230 11 230 13.5 252 c 128,-1,19
 16 274 16 274 21 292.5 c 128,-1,20
 26 311 26 311 35 324 c 128,-1,21
 44 337 44 337 59 341 c 0,22,23
 65 343 65 343 71 338 c 128,-1,24
 77 333 77 333 80.5 326.5 c 128,-1,25
 84 320 84 320 86 312.5 c 128,-1,26
 88 305 88 305 88 302 c 256,27,28
 88 299 88 299 85 289 c 128,-1,29
 82 279 82 279 78.5 267.5 c 128,-1,30
 75 256 75 256 72 246 c 128,-1,31
 69 236 69 236 69 234 c 0,32,33
 69 233 69 233 68.5 225.5 c 128,-1,34
 68 218 68 218 67.5 209 c 128,-1,35
 67 200 67 200 67 189.5 c 128,-1,36
 67 179 67 179 67 173 c 0,37,38
 67 160 67 160 66 143.5 c 128,-1,39
 65 127 65 127 67.5 111 c 128,-1,40
 70 95 70 95 76 81 c 128,-1,41
 82 67 82 67 98 59 c 0,42,43
 99 59 99 59 104.5 58.5 c 128,-1,44
 110 58 110 58 116.5 58 c 128,-1,45
 123 58 123 58 128.5 57.5 c 128,-1,46
 134 57 134 57 136 57 c 0,47,48
 190 57 190 57 238 81 c 128,-1,49
 286 105 286 105 322 146 c 1,50,51
 321 152 321 152 320.5 169 c 128,-1,52
 320 186 320 186 320 204.5 c 128,-1,53
 320 223 320 223 320.5 239.5 c 128,-1,54
 321 256 321 256 322 263 c 0,55,56
 322 269 322 269 324 275.5 c 128,-1,57
 326 282 326 282 329 288 c 128,-1,58
 332 294 332 294 337.5 298 c 128,-1,59
 343 302 343 302 350 302 c 0,60,61
 365 302 365 302 371 291 c 128,-1,62
 377 280 377 280 379.5 262 c 128,-1,63
 382 244 382 244 383.5 220.5 c 128,-1,64
 385 197 385 197 390 173 c 128,-1,65
 395 149 395 149 407 125.5 c 128,-1,66
 419 102 419 102 442 83.5 c 128,-1,67
 465 65 465 65 502 52.5 c 128,-1,68
 539 40 539 40 595 39 c 1,69,70
 595 37 595 37 595 34 c 128,-1,71
 595 31 595 31 595 29 c 0,72,73
 595 14 595 14 582 7.5 c 128,-1,74
 569 1 569 1 550.5 -1 c 128,-1,75
 532 -3 532 -3 514 -2 c 128,-1,76
 496 -1 496 -1 487 -1 c 0,77,78
 457 -1 457 -1 433 13 c 128,-1,79
 409 27 409 27 390 43.5 c 128,-1,80
 371 60 371 60 359.5 74 c 128,-1,81
 348 88 348 88 346 88 c 0,0,1
EndSplineSet
EndChar

StartChar: v
Encoding: 118 118 89
Width: 429
Flags: W
LayerCount: 2
Fore
SplineSet
0 292 m 1,0,1
 -2 301 -2 301 1 308.5 c 128,-1,2
 4 316 4 316 9.5 321 c 128,-1,3
 15 326 15 326 23 329 c 128,-1,4
 31 332 31 332 39 331 c 1,5,6
 52 322 52 322 66 301.5 c 128,-1,7
 80 281 80 281 94 256.5 c 128,-1,8
 108 232 108 232 120.5 205 c 128,-1,9
 133 178 133 178 144.5 156 c 128,-1,10
 156 134 156 134 165 120 c 128,-1,11
 174 106 174 106 180 106 c 0,12,13
 184 106 184 106 195.5 125 c 128,-1,14
 207 144 207 144 224 172.5 c 128,-1,15
 241 201 241 201 260.5 234 c 128,-1,16
 280 267 280 267 301.5 295.5 c 128,-1,17
 323 324 323 324 345.5 342.5 c 128,-1,18
 368 361 368 361 389 361 c 0,19,20
 397 361 397 361 403.5 358 c 128,-1,21
 410 355 410 355 410 346 c 0,22,23
 410 345 410 345 409.5 344 c 128,-1,24
 409 343 409 343 409 341 c 1,25,26
 375 314 375 314 342 274.5 c 128,-1,27
 309 235 309 235 281 190.5 c 128,-1,28
 253 146 253 146 232.5 99 c 128,-1,29
 212 52 212 52 205 9 c 1,30,31
 187 3 187 3 177 1.5 c 128,-1,32
 167 0 167 0 151 0 c 2,33,-1
 136 0 l 1,34,35
 131 16 131 16 123.5 40.5 c 128,-1,36
 116 65 116 65 107.5 92.5 c 128,-1,37
 99 120 99 120 89 149 c 128,-1,38
 79 178 79 178 65.5 204.5 c 128,-1,39
 52 231 52 231 36 254 c 128,-1,40
 20 277 20 277 0 292 c 1,0,1
EndSplineSet
EndChar

StartChar: w
Encoding: 119 119 90
Width: 614
Flags: W
LayerCount: 2
Fore
SplineSet
19 273 m 0,0,1
 19 286 19 286 26.5 299 c 128,-1,2
 34 312 34 312 49 312 c 0,3,4
 68 312 68 312 75.5 297 c 128,-1,5
 83 282 83 282 85.5 261.5 c 128,-1,6
 88 241 88 241 87 219.5 c 128,-1,7
 86 198 86 198 88 185 c 1,8,9
 88 178 88 178 90.5 161.5 c 128,-1,10
 93 145 93 145 96 126.5 c 128,-1,11
 99 108 99 108 102 91 c 128,-1,12
 105 74 105 74 107 67 c 0,13,14
 108 67 108 67 114.5 66 c 128,-1,15
 121 65 121 65 122 65 c 0,16,17
 141 65 141 65 154 76.5 c 128,-1,18
 167 88 167 88 175.5 104.5 c 128,-1,19
 184 121 184 121 190.5 141 c 128,-1,20
 197 161 197 161 204.5 177.5 c 128,-1,21
 212 194 212 194 222.5 205 c 128,-1,22
 233 216 233 216 248 216 c 0,23,24
 269 216 269 216 283.5 204 c 128,-1,25
 298 192 298 192 311.5 174.5 c 128,-1,26
 325 157 325 157 336.5 136.5 c 128,-1,27
 348 116 348 116 362.5 98.5 c 128,-1,28
 377 81 377 81 394 69 c 128,-1,29
 411 57 411 57 433 57 c 0,30,31
 434 57 434 57 440.5 58 c 128,-1,32
 447 59 447 59 448 59 c 0,33,34
 457 72 457 72 466 97 c 128,-1,35
 475 122 475 122 484.5 151.5 c 128,-1,36
 494 181 494 181 503.5 211 c 128,-1,37
 513 241 513 241 522.5 266.5 c 128,-1,38
 532 292 532 292 542 307 c 128,-1,39
 552 322 552 322 560 322 c 0,40,41
 561 322 561 322 561.5 322 c 128,-1,42
 562 322 562 322 564 322 c 2,43,-1
 565 322 l 1,44,45
 567 321 567 321 569.5 318.5 c 128,-1,46
 572 316 572 316 575.5 312.5 c 128,-1,47
 579 309 579 309 581.5 306 c 128,-1,48
 584 303 584 303 585 302 c 1,49,-1
 585 300 l 2,50,51
 585 299 585 299 585.5 298 c 128,-1,52
 586 297 586 297 586 297 c 257,53,54
 586 297 586 297 585.5 295 c 128,-1,55
 585 293 585 293 585 292 c 0,56,57
 582 284 582 284 577 266.5 c 128,-1,58
 572 249 572 249 565 227 c 128,-1,59
 558 205 558 205 551 180.5 c 128,-1,60
 544 156 544 156 537 133 c 128,-1,61
 530 110 530 110 524 93 c 128,-1,62
 518 76 518 76 516 67 c 1,63,64
 509 51 509 51 502 38 c 0,65,66
 496 27 496 27 489.5 18 c 128,-1,67
 483 9 483 9 478 9 c 2,68,-1
 380 9 l 2,69,70
 368 9 368 9 355.5 18 c 128,-1,71
 343 27 343 27 331.5 40.5 c 128,-1,72
 320 54 320 54 308.5 70.5 c 128,-1,73
 297 87 297 87 287 102 c 128,-1,74
 277 117 277 117 268 129 c 128,-1,75
 259 141 259 141 253 146 c 1,76,77
 232 133 232 133 220 118 c 128,-1,78
 208 103 208 103 200 86.5 c 128,-1,79
 192 70 192 70 185 54.5 c 128,-1,80
 178 39 178 39 167 26.5 c 128,-1,81
 156 14 156 14 138.5 7 c 128,-1,82
 121 0 121 0 91 0 c 0,83,84
 81 0 81 0 71.5 18 c 128,-1,85
 62 36 62 36 54 63 c 128,-1,86
 46 90 46 90 39.5 123 c 128,-1,87
 33 156 33 156 28.5 186.5 c 128,-1,88
 24 217 24 217 21.5 240 c 128,-1,89
 19 263 19 263 19 273 c 0,0,1
EndSplineSet
EndChar

StartChar: x
Encoding: 120 120 91
Width: 496
Flags: W
LayerCount: 2
Fore
SplineSet
156 166 m 1,0,1
 153 180 153 180 139.5 199 c 128,-1,2
 126 218 126 218 110.5 236.5 c 128,-1,3
 95 255 95 255 80 272 c 128,-1,4
 65 289 65 289 59 302 c 0,5,6
 59 303 59 303 58 306.5 c 128,-1,7
 57 310 57 310 57 312 c 0,8,9
 57 325 57 325 64 328.5 c 128,-1,10
 71 332 71 332 82 332 c 0,11,12
 84 332 84 332 90 331.5 c 128,-1,13
 96 331 96 331 98 331 c 1,14,15
 100 326 100 326 108 315 c 128,-1,16
 116 304 116 304 125.5 291.5 c 128,-1,17
 135 279 135 279 143.5 268 c 128,-1,18
 152 257 152 257 156 253 c 0,19,20
 161 248 161 248 169 239.5 c 128,-1,21
 177 231 177 231 184.5 223.5 c 128,-1,22
 192 216 192 216 198 210.5 c 128,-1,23
 204 205 204 205 205 205 c 2,24,-1
 215 205 l 1,25,26
 218 207 218 207 227 213.5 c 128,-1,27
 236 220 236 220 247.5 227.5 c 128,-1,28
 259 235 259 235 272 243.5 c 128,-1,29
 285 252 285 252 296.5 260 c 128,-1,30
 308 268 308 268 317 274 c 128,-1,31
 326 280 326 280 331 282 c 0,32,33
 343 289 343 289 362 299 c 128,-1,34
 381 309 381 309 399 318 c 128,-1,35
 417 327 417 327 431.5 334 c 128,-1,36
 446 341 446 341 448 341 c 2,37,-1
 473 341 l 1,38,39
 473 323 473 323 460 306.5 c 128,-1,40
 447 290 447 290 426 274 c 128,-1,41
 405 258 405 258 379.5 243.5 c 128,-1,42
 354 229 354 229 329 214.5 c 128,-1,43
 304 200 304 200 283.5 185.5 c 128,-1,44
 263 171 263 171 253 156 c 1,45,46
 269 146 269 146 289 132 c 128,-1,47
 309 118 309 118 330 106 c 128,-1,48
 351 94 351 94 373.5 85.5 c 128,-1,49
 396 77 396 77 419 77 c 0,50,51
 434 77 434 77 444.5 82.5 c 128,-1,52
 455 88 455 88 468 88 c 0,53,54
 473 88 473 88 478 87 c 128,-1,55
 483 86 483 86 486.5 83 c 128,-1,56
 490 80 490 80 490 74 c 128,-1,57
 490 68 490 68 487 59 c 0,58,59
 486 56 486 56 482.5 51.5 c 128,-1,60
 479 47 479 47 474.5 42 c 128,-1,61
 470 37 470 37 465.5 33.5 c 128,-1,62
 461 30 461 30 458 29 c 0,63,64
 456 29 456 29 449.5 28 c 128,-1,65
 443 27 443 27 436 26.5 c 128,-1,66
 429 26 429 26 422.5 26 c 128,-1,67
 416 26 416 26 414 26 c 0,68,69
 383 26 383 26 357.5 39 c 128,-1,70
 332 52 332 52 308 67 c 128,-1,71
 284 82 284 82 259.5 95 c 128,-1,72
 235 108 235 108 209 108 c 0,73,74
 195 108 195 108 184.5 103 c 128,-1,75
 174 98 174 98 164 90 c 128,-1,76
 154 82 154 82 145 73.5 c 128,-1,77
 136 65 136 65 127 59 c 0,78,79
 118 52 118 52 105.5 42 c 128,-1,80
 93 32 93 32 80 23 c 128,-1,81
 67 14 67 14 58 6 c 1,82,-1
 49 0 l 1,83,-1
 18 0 l 1,84,85
 18 29 18 29 33 51 c 128,-1,86
 48 73 48 73 69.5 92 c 128,-1,87
 91 111 91 111 115 128.5 c 128,-1,88
 139 146 139 146 156 166 c 1,0,1
EndSplineSet
EndChar

StartChar: y
Encoding: 121 121 92
Width: 389
Flags: W
LayerCount: 2
Fore
SplineSet
-78 -338 m 0,0,1
 -78 -326 -78 -326 -77 -309 c 128,-1,2
 -76 -292 -76 -292 -70.5 -276 c 128,-1,3
 -65 -260 -65 -260 -55 -248 c 128,-1,4
 -45 -236 -45 -236 -29 -234 c 1,5,6
 -29 -235 -29 -235 -28.5 -238.5 c 128,-1,7
 -28 -242 -28 -242 -28 -244 c 0,8,9
 -28 -258 -28 -258 -34 -269.5 c 128,-1,10
 -40 -281 -40 -281 -40 -298 c 0,11,12
 -40 -326 -40 -326 -29 -349 c 128,-1,13
 -18 -372 -18 -372 0 -390 c 128,-1,14
 18 -408 18 -408 41.5 -421 c 128,-1,15
 65 -434 65 -434 91.5 -442.5 c 128,-1,16
 118 -451 118 -451 145 -455 c 128,-1,17
 172 -459 172 -459 195 -459 c 0,18,19
 228 -459 228 -459 251 -448 c 128,-1,20
 274 -437 274 -437 290.5 -418.5 c 128,-1,21
 307 -400 307 -400 317 -375.5 c 128,-1,22
 327 -351 327 -351 332.5 -324.5 c 128,-1,23
 338 -298 338 -298 340.5 -271 c 128,-1,24
 343 -244 343 -244 343 -220 c 0,25,26
 343 -216 343 -216 342 -195.5 c 128,-1,27
 341 -175 341 -175 339 -147.5 c 128,-1,28
 337 -120 337 -120 334 -89 c 128,-1,29
 331 -58 331 -58 326 -31 c 128,-1,30
 321 -4 321 -4 314 13 c 128,-1,31
 307 30 307 30 298 30 c 0,32,33
 279 30 279 30 260.5 25 c 128,-1,34
 242 20 242 20 224 14 c 128,-1,35
 206 8 206 8 186.5 3 c 128,-1,36
 167 -2 167 -2 146 -2 c 0,37,38
 142 -2 142 -2 132.5 -2 c 128,-1,39
 123 -2 123 -2 112 -1.5 c 128,-1,40
 101 -1 101 -1 91.5 -0.5 c 128,-1,41
 82 0 82 0 78 0 c 1,42,43
 57 8 57 8 43.5 24 c 128,-1,44
 30 40 30 40 22 60.5 c 128,-1,45
 14 81 14 81 11 103.5 c 128,-1,46
 8 126 8 126 8 145 c 0,47,48
 8 173 8 173 9.5 195.5 c 128,-1,49
 11 218 11 218 20 243 c 0,50,51
 21 245 21 245 27 245.5 c 128,-1,52
 33 246 33 246 34 246 c 0,53,54
 52 246 52 246 58 231 c 128,-1,55
 64 216 64 216 65 194 c 128,-1,56
 66 172 66 172 66.5 146.5 c 128,-1,57
 67 121 67 121 74 99 c 128,-1,58
 81 77 81 77 97.5 62.5 c 128,-1,59
 114 48 114 48 148 48 c 0,60,61
 194 48 194 48 220 59 c 128,-1,62
 246 70 246 70 259 92.5 c 128,-1,63
 272 115 272 115 274 147.5 c 128,-1,64
 276 180 276 180 273 224 c 0,65,66
 272 237 272 237 278 241 c 128,-1,67
 284 245 284 245 292 245 c 0,68,69
 302 245 302 245 313.5 223 c 128,-1,70
 325 201 325 201 335 167 c 128,-1,71
 345 133 345 133 355 93.5 c 128,-1,72
 365 54 365 54 372 18 c 128,-1,73
 379 -18 379 -18 383.5 -44.5 c 128,-1,74
 388 -71 388 -71 389 -78 c 0,75,76
 390 -82 390 -82 392 -93.5 c 128,-1,77
 394 -105 394 -105 395.5 -121.5 c 128,-1,78
 397 -138 397 -138 399 -155.5 c 128,-1,79
 401 -173 401 -173 403 -189.5 c 128,-1,80
 405 -206 405 -206 407 -218 c 128,-1,81
 409 -230 409 -230 409 -234 c 2,82,-1
 409 -239 l 2,83,84
 409 -291 409 -291 396.5 -339 c 128,-1,85
 384 -387 384 -387 357.5 -424.5 c 128,-1,86
 331 -462 331 -462 290.5 -484.5 c 128,-1,87
 250 -507 250 -507 193 -507 c 0,88,89
 169 -507 169 -507 139.5 -503 c 128,-1,90
 110 -499 110 -499 80 -490.5 c 128,-1,91
 50 -482 50 -482 21.5 -469 c 128,-1,92
 -7 -456 -7 -456 -29 -436.5 c 128,-1,93
 -51 -417 -51 -417 -64.5 -393 c 128,-1,94
 -78 -369 -78 -369 -78 -338 c 0,0,1
EndSplineSet
EndChar

StartChar: z
Encoding: 122 122 93
Width: 594
Flags: W
LayerCount: 2
Fore
SplineSet
78 20 m 1,0,1
 85 47 85 47 101.5 70 c 128,-1,2
 118 93 118 93 140 113 c 128,-1,3
 162 133 162 133 188 151 c 2,4,-1
 240 187 l 2,5,6
 266 205 266 205 289.5 223.5 c 128,-1,7
 313 242 313 242 331 263 c 1,8,9
 312 261 312 261 280 259.5 c 128,-1,10
 248 258 248 258 212 258 c 128,-1,11
 176 258 176 258 139 260.5 c 128,-1,12
 102 263 102 263 72 272.5 c 128,-1,13
 42 282 42 282 23.5 298 c 128,-1,14
 5 314 5 314 5 341 c 1,15,-1
 88 341 l 1,16,17
 88 339 88 339 92 335.5 c 128,-1,18
 96 332 96 332 98 331 c 0,19,20
 101 330 101 330 111 328.5 c 128,-1,21
 121 327 121 327 132 325.5 c 128,-1,22
 143 324 143 324 152 323 c 128,-1,23
 161 322 161 322 166 322 c 0,24,25
 176 322 176 322 197 321.5 c 128,-1,26
 218 321 218 321 243.5 321 c 128,-1,27
 269 321 269 321 297.5 320.5 c 128,-1,28
 326 320 326 320 352 320.5 c 128,-1,29
 378 321 378 321 398.5 321 c 128,-1,30
 419 321 419 321 429 322 c 1,31,32
 429 320 429 320 431 316 c 128,-1,33
 433 312 433 312 434.5 307.5 c 128,-1,34
 436 303 436 303 437.5 298.5 c 128,-1,35
 439 294 439 294 439 292 c 0,36,37
 439 291 439 291 437.5 286.5 c 128,-1,38
 436 282 436 282 434.5 277.5 c 128,-1,39
 433 273 433 273 431 268.5 c 128,-1,40
 429 264 429 264 429 263 c 0,41,42
 405 235 405 235 375 212 c 128,-1,43
 345 189 345 189 315 166 c 128,-1,44
 285 143 285 143 256.5 119 c 128,-1,45
 228 95 228 95 205 67 c 1,46,-1
 575 67 l 1,47,48
 575 67 575 67 579 60.5 c 128,-1,49
 583 54 583 54 585 49 c 1,50,-1
 585 47 l 2,51,52
 585 46 585 46 585.5 45 c 128,-1,53
 586 44 586 44 586 44 c 1,54,55
 586 26 586 26 575 18.5 c 128,-1,56
 564 11 564 11 549 9 c 128,-1,57
 534 7 534 7 519 8 c 128,-1,58
 504 9 504 9 496 9 c 1,59,60
 490 8 490 8 472.5 8 c 128,-1,61
 455 8 455 8 431 7 c 128,-1,62
 407 6 407 6 380 4.5 c 128,-1,63
 353 3 353 3 329 2 c 128,-1,64
 305 1 305 1 287 0.5 c 128,-1,65
 269 0 269 0 263 0 c 2,66,-1
 247 0 l 2,67,68
 205 0 205 0 161.5 2 c 128,-1,69
 118 4 118 4 78 20 c 1,0,1
EndSplineSet
EndChar

StartChar: braceleft
Encoding: 123 123 94
Width: 282
Flags: W
LayerCount: 2
Fore
SplineSet
77 59 m 0,0,1
 77 80 77 80 89.5 95 c 128,-1,2
 102 110 102 110 116.5 122 c 128,-1,3
 131 134 131 134 143.5 147.5 c 128,-1,4
 156 161 156 161 156 180 c 0,5,6
 156 197 156 197 140.5 206 c 128,-1,7
 125 215 125 215 105 219 c 128,-1,8
 85 223 85 223 66 223.5 c 128,-1,9
 47 224 47 224 39 224 c 1,10,11
 34 225 34 225 31.5 229 c 128,-1,12
 29 233 29 233 28 237 c 128,-1,13
 27 241 27 241 27.5 245.5 c 128,-1,14
 28 250 28 250 28 253 c 0,15,16
 28 271 28 271 37 281.5 c 128,-1,17
 46 292 46 292 60.5 299 c 128,-1,18
 75 306 75 306 92.5 310 c 128,-1,19
 110 314 110 314 127 322 c 1,20,-1
 127 331 l 1,21,22
 99 353 99 353 77 374.5 c 128,-1,23
 55 396 55 396 40 420.5 c 128,-1,24
 25 445 25 445 17 473 c 128,-1,25
 9 501 9 501 9 536 c 0,26,27
 9 554 9 554 23 577.5 c 128,-1,28
 37 601 37 601 58.5 625 c 128,-1,29
 80 649 80 649 106.5 671.5 c 128,-1,30
 133 694 133 694 159 712 c 128,-1,31
 185 730 185 730 207.5 740.5 c 128,-1,32
 230 751 230 751 243 751 c 0,33,34
 258 751 258 751 266 743.5 c 128,-1,35
 274 736 274 736 282 722 c 1,36,37
 269 702 269 702 248.5 687.5 c 128,-1,38
 228 673 228 673 205 659.5 c 128,-1,39
 182 646 182 646 159.5 632 c 128,-1,40
 137 618 137 618 118.5 600.5 c 128,-1,41
 100 583 100 583 88.5 562 c 128,-1,42
 77 541 77 541 77 512 c 0,43,44
 77 494 77 494 79.5 478 c 128,-1,45
 82 462 82 462 98 448 c 2,46,-1
 205 351 l 2,47,48
 205 350 205 350 206 347.5 c 128,-1,49
 207 345 207 345 207 341 c 128,-1,50
 207 337 207 337 207 334 c 128,-1,51
 207 331 207 331 207 330 c 0,52,53
 207 311 207 311 201.5 296 c 128,-1,54
 196 281 196 281 175 273 c 1,55,56
 184 265 184 265 194.5 255.5 c 128,-1,57
 205 246 205 246 214 234.5 c 128,-1,58
 223 223 223 223 229 210 c 128,-1,59
 235 197 235 197 235 185 c 0,60,61
 235 164 235 164 224 145 c 128,-1,62
 213 126 213 126 198 108 c 128,-1,63
 183 90 183 90 166 75 c 128,-1,64
 149 60 149 60 136 49 c 0,65,66
 136 48 136 48 136 46.5 c 128,-1,67
 136 45 136 45 136 44 c 0,68,69
 136 19 136 19 152.5 4 c 128,-1,70
 169 -11 169 -11 194 -20.5 c 128,-1,71
 219 -30 219 -30 248.5 -34.5 c 128,-1,72
 278 -39 278 -39 303 -43.5 c 128,-1,73
 328 -48 328 -48 344.5 -55 c 128,-1,74
 361 -62 361 -62 361 -74 c 0,75,76
 361 -78 361 -78 360.5 -83 c 128,-1,77
 360 -88 360 -88 358.5 -91.5 c 128,-1,78
 357 -95 357 -95 352.5 -97 c 128,-1,79
 348 -99 348 -99 341 -98 c 0,80,81
 337 -98 337 -98 329 -98.5 c 128,-1,82
 321 -99 321 -99 311.5 -99 c 128,-1,83
 302 -99 302 -99 294 -99.5 c 128,-1,84
 286 -100 286 -100 282 -100 c 0,85,86
 246 -100 246 -100 209.5 -90.5 c 128,-1,87
 173 -81 173 -81 143.5 -60.5 c 128,-1,88
 114 -40 114 -40 95.5 -10.5 c 128,-1,89
 77 19 77 19 77 59 c 0,0,1
EndSplineSet
EndChar

StartChar: bar
Encoding: 124 124 95
Width: 127
Flags: W
LayerCount: 2
Fore
SplineSet
110 520 m 1,0,1
 110 457 110 457 104 396.5 c 128,-1,2
 98 336 98 336 90 275 c 128,-1,3
 82 214 82 214 78 153 c 128,-1,4
 74 92 74 92 78 29 c 1,5,6
 55 -2 55 -2 16 -2 c 1,7,8
 16 6 16 6 16.5 25.5 c 128,-1,9
 17 45 17 45 18 67 c 128,-1,10
 19 89 19 89 19.5 108.5 c 128,-1,11
 20 128 20 128 20 136 c 0,12,13
 21 169 21 169 23.5 210 c 128,-1,14
 26 251 26 251 29.5 293 c 128,-1,15
 33 335 33 335 37.5 377.5 c 128,-1,16
 42 420 42 420 49 457 c 0,17,18
 54 488 54 488 67 504 c 128,-1,19
 80 520 80 520 110 520 c 1,0,1
EndSplineSet
EndChar

StartChar: braceright
Encoding: 125 125 96
Width: 389
Flags: W
LayerCount: 2
Fore
SplineSet
48 -111 m 0,0,1
 48 -97 48 -97 66.5 -93.5 c 128,-1,2
 85 -90 85 -90 113.5 -89 c 128,-1,3
 142 -88 142 -88 174.5 -87 c 128,-1,4
 207 -86 207 -86 235.5 -77 c 128,-1,5
 264 -68 264 -68 283 -48.5 c 128,-1,6
 302 -29 302 -29 302 8 c 0,7,8
 302 37 302 37 294 61.5 c 128,-1,9
 286 86 286 86 274 108.5 c 128,-1,10
 262 131 262 131 247.5 152.5 c 128,-1,11
 233 174 233 174 221 196 c 128,-1,12
 209 218 209 218 201 241.5 c 128,-1,13
 193 265 193 265 193 292 c 2,14,-1
 193 313 l 2,15,16
 193 323 193 323 195 333 c 128,-1,17
 197 343 197 343 201 352 c 128,-1,18
 205 361 205 361 214 371 c 1,19,20
 207 383 207 383 197 390.5 c 128,-1,21
 187 398 187 398 175 403.5 c 128,-1,22
 163 409 163 409 151 414 c 128,-1,23
 139 419 139 419 129 429 c 128,-1,24
 119 439 119 439 113 454.5 c 128,-1,25
 107 470 107 470 107 496 c 0,26,27
 107 518 107 518 114.5 534.5 c 128,-1,28
 122 551 122 551 133 565 c 128,-1,29
 144 579 144 579 156.5 591.5 c 128,-1,30
 169 604 169 604 179.5 618 c 128,-1,31
 190 632 190 632 197.5 649 c 128,-1,32
 205 666 205 666 205 687 c 0,33,34
 205 707 205 707 194.5 722.5 c 128,-1,35
 184 738 184 738 166.5 748.5 c 128,-1,36
 149 759 149 759 127 765.5 c 128,-1,37
 105 772 105 772 83.5 775.5 c 128,-1,38
 62 779 62 779 42.5 780 c 128,-1,39
 23 781 23 781 9 781 c 1,40,-1
 9 819 l 1,41,42
 9 819 9 819 16 821.5 c 128,-1,43
 23 824 23 824 32.5 827 c 128,-1,44
 42 830 42 830 52 833 c 128,-1,45
 62 836 62 836 69 837 c 0,46,47
 70 837 70 837 75 838 c 128,-1,48
 80 839 80 839 82 839 c 0,49,50
 116 839 116 839 148 825.5 c 128,-1,51
 180 812 180 812 206 789.5 c 128,-1,52
 232 767 232 767 248 736.5 c 128,-1,53
 264 706 264 706 264 672 c 0,54,55
 264 644 264 644 250 622 c 128,-1,56
 236 600 236 600 219 580 c 128,-1,57
 202 560 202 560 188 539 c 128,-1,58
 174 518 174 518 174 492 c 0,59,60
 174 482 174 482 175.5 474.5 c 128,-1,61
 177 467 177 467 185 457 c 1,62,63
 195 453 195 453 211 449.5 c 128,-1,64
 227 446 227 446 245 442.5 c 128,-1,65
 263 439 263 439 282.5 434 c 128,-1,66
 302 429 302 429 317 422 c 128,-1,67
 332 415 332 415 342 404.5 c 128,-1,68
 352 394 352 394 352 380 c 0,69,70
 352 377 352 377 351 370 c 128,-1,71
 350 363 350 363 350 360 c 1,72,73
 335 355 335 355 319.5 350 c 128,-1,74
 304 345 304 345 291.5 337.5 c 128,-1,75
 279 330 279 330 271 318 c 128,-1,76
 263 306 263 306 263 287 c 0,77,78
 263 264 263 264 270 243.5 c 128,-1,79
 277 223 277 223 288.5 202.5 c 128,-1,80
 300 182 300 182 313 162 c 128,-1,81
 326 142 326 142 337 121 c 128,-1,82
 348 100 348 100 355.5 77 c 128,-1,83
 363 54 363 54 363 29 c 0,84,85
 363 26 363 26 363 17 c 128,-1,86
 363 8 363 8 362 -0.5 c 128,-1,87
 361 -9 361 -9 360.5 -17.5 c 128,-1,88
 360 -26 360 -26 360 -30 c 1,89,90
 346 -67 346 -67 325.5 -91.5 c 128,-1,91
 305 -116 305 -116 278.5 -130.5 c 128,-1,92
 252 -145 252 -145 220 -151 c 128,-1,93
 188 -157 188 -157 150 -157 c 0,94,95
 139 -157 139 -157 121 -156.5 c 128,-1,96
 103 -156 103 -156 87 -151.5 c 128,-1,97
 71 -147 71 -147 59.5 -137.5 c 128,-1,98
 48 -128 48 -128 48 -111 c 0,0,1
EndSplineSet
EndChar

StartChar: asciitilde
Encoding: 126 126 97
Width: 478
Flags: W
LayerCount: 2
Fore
SplineSet
151 526 m 0,0,1
 134 526 134 526 123 519.5 c 128,-1,2
 112 513 112 513 103.5 503 c 128,-1,3
 95 493 95 493 88.5 481.5 c 128,-1,4
 82 470 82 470 75.5 460 c 128,-1,5
 69 450 69 450 60.5 443.5 c 128,-1,6
 52 437 52 437 39 437 c 256,7,8
 26 437 26 437 22.5 443.5 c 128,-1,9
 19 450 19 450 19 462 c 0,10,11
 19 487 19 487 33 509 c 128,-1,12
 47 531 47 531 67.5 548 c 128,-1,13
 88 565 88 565 113 575.5 c 128,-1,14
 138 586 138 586 160 586 c 0,15,16
 178 586 178 586 192 579 c 128,-1,17
 206 572 206 572 217.5 562 c 128,-1,18
 229 552 229 552 240 540.5 c 128,-1,19
 251 529 251 529 263.5 519 c 128,-1,20
 276 509 276 509 291.5 502.5 c 128,-1,21
 307 496 307 496 326 496 c 0,22,23
 344 496 344 496 357.5 504 c 128,-1,24
 371 512 371 512 382.5 521.5 c 128,-1,25
 394 531 394 531 405.5 539 c 128,-1,26
 417 547 417 547 433 547 c 0,27,28
 450 547 450 547 456 539.5 c 128,-1,29
 462 532 462 532 467 516 c 1,30,31
 461 508 461 508 447.5 493.5 c 128,-1,32
 434 479 434 479 417.5 464.5 c 128,-1,33
 401 450 401 450 383.5 439.5 c 128,-1,34
 366 429 366 429 352 429 c 0,35,36
 326 429 326 429 304 436.5 c 128,-1,37
 282 444 282 444 263 454.5 c 128,-1,38
 244 465 244 465 228 477.5 c 128,-1,39
 212 490 212 490 198 500.5 c 128,-1,40
 184 511 184 511 172.5 518.5 c 128,-1,41
 161 526 161 526 151 526 c 0,0,1
EndSplineSet
EndChar

